<?xml version="1.0" standalone="no"?>
<!DOCTYPE svg PUBLIC "-//W3C//DTD SVG 1.1//EN" "http://www.w3.org/Graphics/SVG/1.1/DTD/svg11.dtd" >
<svg xmlns="http://www.w3.org/2000/svg" xmlns:xlink="http://www.w3.org/1999/xlink" version="1.1">
<metadata></metadata>
<defs>
<font id="fbextazabold" horiz-adv-x="756" >
<font-face units-per-em="2048" ascent="1638" descent="-410" />
<missing-glyph horiz-adv-x="409" />
<glyph unicode="&#xd;" horiz-adv-x="512" />
<glyph unicode=" "  horiz-adv-x="409" />
<glyph unicode="&#x09;" horiz-adv-x="409" />
<glyph unicode="&#xa0;" horiz-adv-x="409" />
<glyph unicode="!" horiz-adv-x="647" d="M466 1229v-320l-49 -384q-8 -51 -49 -51h-88q-43 0 -49 49l-50 386v318q0 28 17.5 49.5t45.5 21.5h163q34 0 46.5 -17t12.5 -52zM470 130q0 -20 -2 -40.5t-6 -38.5t-11.5 -32.5t-17.5 -23.5q-18 -16 -46.5 -21.5t-62.5 -5.5q-35 0 -63.5 5.5t-46.5 21.5q-11 9 -18 23.5 t-11 32.5t-6 37.5t-2 39.5q0 16 1 33.5t3.5 33.5t6.5 30t11 23q18 23 49.5 32.5t73.5 9.5q38 0 68.5 -7t49.5 -26q9 -9 14.5 -23.5t9 -31.5t5 -35.5t1.5 -36.5z" />
<glyph unicode="&#x22;" horiz-adv-x="770" d="M376 1236l-198 -362q-10 -17 -19 -27.5t-29 -10.5h-86q-14 0 -21 11t0 32l117 376q14 47 44 47h172q23 0 30 -17.5t-10 -48.5zM726 1236l-198 -362q-10 -17 -19 -27.5t-29 -10.5h-86q-14 0 -21 11t0 32l117 376q14 47 44 47h172q23 0 30 -17.5t-10 -48.5z" />
<glyph unicode="#" horiz-adv-x="1208" d="M667 399l74 412h-193l-75 -412h194zM970 975h176l-28 -164h-178l-72 -412h182l-26 -166h-183l-41 -233h-198l41 233h-201l-41 -233h-199l41 233h-182l27 166h188l74 412h-189l27 164h195l45 237h198l-45 -237h191l41 237h196z" />
<glyph unicode="$" horiz-adv-x="1079" d="M730 330q0 40 -38 84q-34 37 -84 59v-268q122 14 122 125zM454 795v227q-42 0 -76 -27q-41 -32 -41 -77q0 -77 117 -123zM966 352q0 -135 -112 -234q-113 -98 -244 -104v-58q0 -31 -31 -31h-96q-27 0 -27 29v56q-186 21 -311 119q-27 21 -27 35q0 13 17 33l61 73 q12 15 22.5 22t18.5 7q15 0 35 -14q48 -33 93.5 -53t90.5 -25v323q-97 38 -164 79.5t-106 84.5q-36 41 -55 90.5t-19 110.5q0 131 104 215q49 40 108.5 62t131.5 28v70q0 24 8 32.5t41 8.5h74q29 0 29 -41v-72q84 -8 157.5 -33t137.5 -69q28 -18 28 -49q0 -15 -8 -29 l-51 -72q-27 -37 -62 -16q-123 71 -202 80v-265q358 -142 358 -393z" />
<glyph unicode="%" horiz-adv-x="1617" d="M530 905q0 74 -36 125t-93 51q-58 0 -95 -52q-36 -53 -36 -124q0 -75 38 -128q39 -52 93 -52q27 0 51 13t41 36.5t27 56.5t10 74zM1332 297q0 37 -9.5 69.5t-26.5 56t-41 37t-52 13.5q-57 0 -94 -51q-37 -49 -37 -125t39 -128t92 -52q28 0 51.5 13t41 37t27 57t9.5 73z M732 905q0 -136 -82 -227q-91 -100 -249 -100q-153 0 -238 87q-86 89 -86 240q0 131 80 223q89 101 244 101q161 0 251 -103q80 -92 80 -221zM1279 1137q0 -14 -10 -29l-784 -1134q-14 -18 -35 -18q-12 0 -19 6l-82 61q-24 18 -24 34q0 12 10 27l782 1130q18 25 39 25 q14 0 25 -8l76 -60q22 -18 22 -34zM1535 297q0 -134 -82 -225q-90 -102 -250 -102q-151 0 -237 86q-86 89 -86 241q0 133 80 225q89 101 243 101q162 0 252 -103q80 -92 80 -223z" />
<glyph unicode="&#x26;" horiz-adv-x="1521" d="M1419 158q-20 -84 -107.5 -148.5t-174.5 -64.5q-136 0 -312 172q-182 -172 -405 -172q-141 0 -227 75q-91 79 -91 218q0 150 119 269q75 75 248 173q-68 139 -68 256q0 130 76 216q79 91 207 91q110 0 179 -57q75 -62 75 -170q0 -195 -287 -324q121 -223 244 -385 q172 213 172 338q0 80 -121 88v39h400v-39q-63 -8 -91 -22q-50 -24 -84 -88q-125 -231 -233 -369q149 -174 285 -174q57 0 97 28q27 18 73 72zM840 1022q0 69 -40 114.5t-108 45.5q-143 0 -143 -164q0 -107 74 -266q217 126 217 270zM776 168q-127 166 -280 446 q-220 -131 -220 -311q0 -107 66 -181q68 -77 174 -77q133 0 260 123z" />
<glyph unicode="'" horiz-adv-x="418" d="M376 1236l-198 -362q-10 -17 -19 -27.5t-29 -10.5h-86q-14 0 -21 11t0 32l117 376q14 47 44 47h172q23 0 30 -17.5t-10 -48.5z" />
<glyph unicode="(" horiz-adv-x="598" d="M505 -81q19 -35 -6 -51q-28 -17 -59 -34.5t-66 -37.5q-26 -16 -53 17q-66 83 -119.5 177t-91.5 203q-74 207 -74 399q0 187 73 402q74 218 193 370q23 29 41 29q12 0 19 -4l137 -78q14 -8 13.5 -23t-13.5 -35q-94 -145 -152 -344q-51 -179 -51 -317q0 -315 209 -673z" />
<glyph unicode=")" horiz-adv-x="598" d="M513 592q0 -194 -73 -399q-78 -217 -211 -380q-14 -17 -26.5 -21t-26.5 4l-125 72q-27 16 -7 51q209 358 209 673q0 138 -51 317q-57 199 -151 344q-28 42 0 58l137 78q7 4 18 4q18 0 41 -29q119 -152 192 -370q74 -220 74 -402z" />
<glyph unicode="*" horiz-adv-x="823" d="M747 1153v-66q0 -36 -35 -36h-4l-195 30l166 -131q14 -11 14 -26q0 -14 -59 -76q-8 -8 -18 -8q-31 0 -86 78l-76 108l22 -192v-7q0 -32 -37 -32h-67q-29 0 -29 49q0 29 14 99q15 67 15 77l-78 -105q-56 -75 -90 -75q-8 0 -19 8q-59 59 -59 78q0 13 14 24l179 131 l-199 -30h-8q-33 0 -33 36v66q0 33 63 33q17 0 42 -2t57 -8q38 -7 57.5 -11t20.5 -4l-111 80q-78 57 -78 90q0 8 8 19q58 57 76 57q11 0 25 -14l135 -170q0 13 -16 84q-15 64 -15 100q0 54 31 55l65 2q33 1 33 -63q0 -17 -1.5 -43t-6.5 -60q-5 -38 -7.5 -59t-2.5 -25 l133 179q11 14 24 14q17 0 74 -59q8 -11 8 -19q0 -17 -17.5 -39.5t-55.5 -50.5q-26 -20 -52.5 -38t-52.5 -38q4 0 23 3t53 10q29 5 53 7.5t41 2.5q62 0 62 -33z" />
<glyph unicode="+" horiz-adv-x="823" d="M781 686v-156q0 -24 -24 -24h-238v-252q0 -25 -24 -25h-164q-25 0 -25 25v252h-241q-25 0 -25 24v156q0 23 25 23h239v247q0 25 27 25h164q24 0 24 -25v-247h238q24 0 24 -23z" />
<glyph unicode="," horiz-adv-x="470" d="M400 285l-188 -411q-8 -19 -20.5 -29t-32.5 -10h-86q-31 0 -21 43l103 420q6 23 14.5 35t24.5 12h182q25 0 32 -14t-8 -46z" />
<glyph unicode="-" horiz-adv-x="823" d="M720 686v-156q0 -24 -24 -24h-569q-25 0 -25 24v156q0 23 25 23h569q24 0 24 -23z" />
<glyph unicode="." horiz-adv-x="523" d="M408 130q0 -20 -2 -40.5t-6 -38.5t-11.5 -32.5t-17.5 -23.5q-18 -16 -46.5 -21.5t-62.5 -5.5q-35 0 -63.5 5.5t-46.5 21.5q-11 9 -18 23.5t-11 32.5t-6 37.5t-2 39.5q0 16 1 33.5t3.5 33.5t6.5 30t11 23q18 23 49.5 32.5t73.5 9.5q38 0 68.5 -7t49.5 -26q9 -9 14.5 -23.5 t9 -31.5t5 -35.5t1.5 -36.5z" />
<glyph unicode="/" horiz-adv-x="864" d="M817 1190q0 -6 -6 -21l-522 -1140q-14 -29 -45 -29h-162q-33 0 -33 16q0 8 8 25l522 1141q13 30 43 30h162q33 0 33 -22z" />
<glyph unicode="0" horiz-adv-x="1126" d="M754 610q0 116 -14.5 202t-43.5 144q-51 103 -133 103q-186 0 -186 -449q0 -463 188 -463q83 0 133 111q56 124 56 352zM1040 610q0 -268 -106 -440q-127 -206 -371 -206q-225 0 -354 183q-123 175 -123 463q0 262 102 430q124 207 375 207q125 0 219.5 -51.5 t157.5 -157.5q51 -85 75.5 -191t24.5 -237z" />
<glyph unicode="1" horiz-adv-x="1126" d="M967 141v-88q0 -53 -47 -53h-669q-51 0 -51 53v80q0 62 51 62h217v708q-38 -26 -80 -54.5t-102 -60.5q-7 -4 -16.5 -7t-20.5 0q-11 2 -18.5 8.5t-11.5 13.5l-48 90q-8 14 -8 25q0 24 27 38q40 21 84 46t87.5 54t84.5 62t75 70q8 8 19 16t30 8h129q16 0 33.5 -16t17.5 -41 v-960h168q49 0 49 -54z" />
<glyph unicode="2" horiz-adv-x="1126" d="M1033 147v-97q0 -28 -8.5 -39t-31.5 -11h-855q-45 0 -45 53v29q0 68 28.5 140.5t76.5 130.5t121.5 124t182.5 142q46 32 82 61t61 59.5t38 65t13 77.5q0 32 -8.5 64.5t-31.5 58.5q-13 15 -28.5 24t-32 14.5t-32 7.5t-27.5 2q-35 0 -58.5 -7t-44.5 -27t-31.5 -45 t-10.5 -47q0 -30 -12.5 -42.5t-37.5 -12.5h-174q-41 0 -41 52q0 73 27 131.5t87 103.5t135 67.5t172 22.5q99 0 174.5 -21.5t133.5 -66.5q65 -49 94.5 -119t29.5 -163q0 -70 -23 -133t-68 -122t-111.5 -115t-152.5 -113q-24 -16 -61 -44t-73 -58t-63 -57.5t-31 -41.5h594 q43 0 43 -48z" />
<glyph unicode="3" horiz-adv-x="1126" d="M1021 342q0 -165 -131 -266q-136 -106 -385 -106q-248 0 -377 79q-44 28 -20 72l45 84q19 37 67 16q136 -59 252 -59q256 0 256 188q0 115 -98 166q-66 33 -146 33h-86q-45 0 -45 47v106q0 46 54 46h110q176 0 176 153q0 38 -17 68t-52 51q-30 18 -64 26.5t-71 8.5 q-132 0 -222 -72q-17 -14 -39 -10q-24 4 -34 22l-50 88q-8 18 -8 27q0 24 29 45q129 94 360 94q226 0 342 -98q97 -82 97 -217q0 -199 -187 -268q244 -79 244 -324z" />
<glyph unicode="4" horiz-adv-x="1126" d="M1054 416v-125q0 -35 -37 -35h-94v-207q0 -49 -43 -49h-189q-47 0 -47 49v207h-524q-37 0 -37 35v184l465 703q22 34 63 34h215q21 0 27 -18q6 -19 -4 -35l-472 -700h267v219q0 37 33 37h207q39 0 39 -43v-221h94q37 0 37 -35z" />
<glyph unicode="5" horiz-adv-x="1126" d="M1009 403q0 -212 -151 -329q-138 -106 -352 -106q-60 0 -116 6.5t-110 18.5q-121 26 -172 68q-13 13 -2 37l56 121q13 28 45 8q109 -67 274 -67q244 0 244 217q0 227 -221 227q-74 0 -118 -32q-40 -31 -73 -25l-162 31q-30 6 -26 40l71 551q6 43 50 43h651q41 0 41 -45 v-104q0 -45 -45 -45h-443l-34 -250q52 33 172 33q186 0 299 -101q122 -107 122 -297z" />
<glyph unicode="6" horiz-adv-x="1126" d="M760 393q0 103 -66 162q-55 49 -129 49q-47 0 -84 -15.5t-63 -43t-40 -67t-14 -87.5q0 -119 68 -178q53 -47 127 -47q86 0 139 53q62 60 62 174zM1028 420q0 -197 -132 -324q-129 -126 -335 -126q-203 0 -324 118q-139 136 -139 412q0 385 168 583q141 166 360 166 q161 0 260 -41q29 -12 29 -37q0 -8 -6 -24l-39 -103q-13 -36 -39 -28q-93 31 -155 31q-132 0 -209 -83t-84 -219q84 60 209 60q188 0 313 -110q123 -110 123 -275z" />
<glyph unicode="7" horiz-adv-x="1126" d="M1032 1146q0 -19 -3 -37t-11 -29q-69 -103 -139.5 -223t-132.5 -259q-135 -305 -189 -553q-9 -45 -59 -45h-203q-51 0 -37 53q34 130 80.5 262.5t107.5 270.5q61 139 125 248.5t118 183.5h-556q-39 0 -39 45v108q0 41 43 41h853q23 0 32.5 -17.5t9.5 -48.5z" />
<glyph unicode="8" horiz-adv-x="1126" d="M778 367q0 89 -63 152t-160 63q-94 0 -154 -59q-59 -59 -59 -156q0 -207 223 -207q94 0 153 60q60 61 60 147zM717 932q0 64 -41 108q-47 50 -129 50q-170 0 -170 -170q0 -62 43 -105q49 -51 127 -51q80 0 125 49t45 119zM1040 332q0 -160 -127 -266q-136 -112 -352 -112 q-220 0 -352 109q-123 105 -123 275q0 245 246 346q-203 50 -203 260q0 146 113 233q114 87 323 87q188 0 289 -89q100 -88 100 -229q0 -80 -43 -147q-51 -82 -143 -109q272 -74 272 -358z" />
<glyph unicode="9" horiz-adv-x="1126" d="M755 825q0 103 -59 165q-59 63 -145 63q-84 0 -138 -64q-53 -65 -53 -166q0 -87 49 -145q56 -64 146 -64q200 0 200 211zM1028 655q0 -349 -178 -530q-150 -153 -377 -153q-184 0 -254 38q-40 22 -23 62l39 92q17 40 64 22q36 -14 74.5 -20t80.5 -6q130 0 218 100 q90 100 90 262q-41 -47 -122 -79q-78 -31 -136 -31q-181 0 -293 109q-113 110 -113 278q0 200 126 325q128 125 339 125q219 0 342 -160q123 -159 123 -434z" />
<glyph unicode=":" horiz-adv-x="546" d="M408 150q0 -40 -8 -79t-29 -57q-18 -15 -46.5 -20.5t-62.5 -5.5q-35 0 -63.5 5.5t-46.5 20.5q-21 18 -29 56.5t-8 77.5q0 16 1 33.5t3.5 33.5t6.5 30t11 23q18 23 49.5 32.5t73.5 9.5q38 0 68.5 -7t49.5 -26q9 -9 14.5 -23.5t9 -31.5t5 -35.5t1.5 -36.5zM408 842 q0 -40 -8 -79t-29 -57q-18 -16 -46.5 -21.5t-62.5 -5.5q-35 0 -63.5 5.5t-46.5 21.5q-21 18 -29 56.5t-8 77.5q0 16 1 33.5t3.5 33.5t6.5 30t11 23q18 23 49.5 32.5t73.5 9.5q38 0 68.5 -7t49.5 -26q9 -9 14.5 -23.5t9 -31.5t5 -35.5t1.5 -36.5z" />
<glyph unicode=";" horiz-adv-x="526" d="M408 842q0 -40 -8 -79t-29 -57q-18 -16 -46.5 -21.5t-62.5 -5.5q-35 0 -63.5 5.5t-46.5 21.5q-21 18 -29 56.5t-8 77.5q0 16 1 33.5t3.5 33.5t6.5 30t11 23q18 23 49.5 32.5t73.5 9.5q38 0 68.5 -7t49.5 -26q9 -9 14.5 -23.5t9 -31.5t5 -35.5t1.5 -36.5zM370 285 l-188 -411q-8 -19 -20.5 -29t-32.5 -10h-86q-31 0 -21 43l103 420q6 23 14.5 35t24.5 12h182q25 0 32 -14t-8 -46z" />
<glyph unicode="&#x3c;" horiz-adv-x="823" d="M774 854q0 -16 -10 -20l-520 -232l516 -229q12 -6 12 -19q0 -4 -2 -14l-57 -150q-6 -16 -19 -16q-9 0 -16 4l-590 297q-39 19 -39 127q0 99 35 117l592 303q7 4 12 4q17 0 23 -14l61 -146q2 -8 2 -12z" />
<glyph unicode="=" horiz-adv-x="823" d="M761 469v-145q0 -25 -24 -25h-651q-25 0 -25 25v145q0 25 25 25h651q24 0 24 -25zM761 885v-156q0 -27 -24 -27h-651q-25 0 -25 27v156q0 22 25 22h651q24 0 24 -22z" />
<glyph unicode="&#x3e;" horiz-adv-x="823" d="M780 602q0 -102 -49 -127l-580 -297q-7 -4 -16 -4q-13 0 -19 16l-57 150q-2 10 -2 14q0 13 12 19l506 229l-510 232q-10 4 -10 20q0 4 2 12l61 146q6 14 23 14q5 0 12 -4l582 -303q45 -23 45 -117z" />
<glyph unicode="?" horiz-adv-x="1037" d="M922 975q0 -63 -25.5 -121t-71.5 -109.5t-110.5 -94.5t-143.5 -76l-5 -46q-3 -30 -13.5 -45t-39.5 -15h-132q-29 0 -37 17t-10 51l-10 156q-2 22 5 36.5t33 24.5q48 18 95 43t85 53.5t61 59t23 60.5q-1 32 -9.5 54.5t-34.5 44.5q-29 26 -63 35t-85 9q-52 0 -111.5 -18 t-117.5 -54q-17 -11 -39 -6q-23 1 -33 21l-45 88q-5 9 -6.5 14t-1.5 12q0 24 27 45q66 49 163.5 76t218.5 27q94 0 168 -19t137 -64q67 -48 97.5 -113t30.5 -146zM607 130q0 -20 -2 -40.5t-6 -38.5t-11.5 -32.5t-17.5 -23.5q-18 -16 -46.5 -21.5t-62.5 -5.5q-35 0 -63.5 5.5 t-46.5 21.5q-11 9 -18 23.5t-11 32.5t-6 37.5t-2 39.5q0 16 1 33.5t3.5 33.5t6.5 30t11 23q18 23 49.5 32.5t73.5 9.5q38 0 68.5 -7t49.5 -26q9 -9 14.5 -23.5t9 -31.5t5 -35.5t1.5 -36.5z" />
<glyph unicode="@" horiz-adv-x="1629" d="M1590 141q-101 -248 -294 -382q-196 -137 -461 -137q-329 0 -542.5 211t-213.5 540q0 224 103 411q108 195 300 298.5t424 103.5q394 0 543 -288q71 -137 71 -289q0 -160 -67 -304q-72 -157 -200 -235q-114 -70 -246 -70q-173 0 -173 150q0 46 20 120q-72 -120 -110 -163 q-94 -107 -185 -107q-73 0 -111 61q-32 51 -32 129q0 287 214 505q61 63 141 106q41 22 87 22q101 0 121 -134l29 102l209 8l-157 -537q-26 -90 -26 -133q0 -28 20 -47.5t49 -19.5q85 0 182 93q81 78 125 169q61 126 61 269q0 240 -153 389.5t-394 149.5q-213 0 -384 -99.5 t-271.5 -287t-100.5 -402.5q0 -295 187 -484t482 -189q236 0 426 125q194 128 275 346h52zM940 649q0 113 -61 113q-71 0 -156 -199q-87 -204 -87 -328q0 -79 51 -79q54 0 140 137q113 181 113 356z" />
<glyph unicode="[" horiz-adv-x="688" d="M647 -105v-146q0 -24 -25 -24h-418q-20 0 -20 24v1705q0 25 25 25h413q25 0 25 -23v-147q0 -25 -25 -25h-178v-1365h178q25 0 25 -24z" />
<glyph unicode="\" horiz-adv-x="796" d="M264 1272l475 -1270h-205l-477 1270h207z" />
<glyph unicode="]" horiz-adv-x="688" d="M503 1454v-1705q0 -24 -21 -24h-417q-25 0 -25 24v146q0 24 25 24h178v1365h-178q-25 0 -25 25v147q0 23 25 23h413q25 0 25 -25z" />
<glyph unicode="^" horiz-adv-x="960" d="M892 467h-137l-275 582l-278 -582h-137l366 758q17 35 47 35q31 0 47 -35z" />
<glyph unicode="_" horiz-adv-x="1024" d="M1024 -229h-1024v90h1024v-90z" />
<glyph unicode="{" horiz-adv-x="614" d="M572 -114v-125q0 -31 -51 -34q-88 -5 -160.5 11.5t-132.5 55.5q-127 82 -127 226q0 14 3 32.5t8 43.5l55 269q6 30 6 51q0 99 -100 151q-33 16 -33 45q0 28 33 45q100 54 100 152q0 19 -6 51l-55 268q-5 26 -8 45t-3 31q0 146 127 228q119 76 293 67q51 -3 51 -35v-125 q0 -26 -32 -26q-36 0 -66.5 -11t-52.5 -30.5t-34.5 -46.5t-12.5 -60q0 -3 1.5 -18.5t6.5 -44.5l35 -215q5 -26 6.5 -40t1.5 -18q0 -72 -45 -127q-14 -18 -39.5 -40.5t-60.5 -49.5q35 -26 60.5 -48.5t39.5 -41.5q45 -56 45 -127q0 -3 -1.5 -17t-6.5 -40l-35 -215 q-5 -29 -6.5 -44.5t-1.5 -19.5q0 -64 47 -105t119 -41q32 0 32 -27z" />
<glyph unicode="|" horiz-adv-x="567" d="M383 1456v-1707q0 -24 -25 -24h-154q-20 0 -20 24v1705q0 25 25 25h149q25 0 25 -23z" />
<glyph unicode="}" horiz-adv-x="614" d="M572 612q0 -28 -32 -45q-101 -53 -101 -151q0 -11 2 -24t5 -27l55 -269q5 -23 7.5 -42.5t2.5 -33.5q0 -144 -127 -226q-60 -39 -132.5 -55.5t-160.5 -11.5q-51 3 -51 34v125q0 27 33 27q69 0 119 41q49 40 49 105q0 4 -3 19.5t-8 44.5l-34 215q-4 26 -6.5 40t-2.5 17 q0 36 11.5 67t34.5 60q15 18 40 41t60 49q-35 26 -60 49t-40 41q-23 29 -34.5 60t-11.5 67q0 4 2.5 18t6.5 40l34 215q5 29 8 44.5t3 18.5q0 67 -49 107q-50 41 -119 41q-33 0 -33 26v125q0 32 51 35q174 9 293 -67q127 -82 127 -228q0 -13 -2.5 -32t-7.5 -44l-55 -268 q-3 -14 -5 -27t-2 -24q0 -98 101 -152q32 -17 32 -45z" />
<glyph unicode="~" horiz-adv-x="1107" d="M1076 641q-41 -172 -119 -246q-69 -65 -161 -65q-88 0 -278.5 75.5t-250.5 75.5q-127 0 -192 -186q-13 -37 -33 -37t-14 37q14 100 73 190q74 113 197 113q82 0 272.5 -72.5t259.5 -72.5q74 0 125 61q39 45 70 127q16 41 37 41q16 0 16 -27q0 -6 -2 -14z" />
<glyph unicode="&#xa2;" horiz-adv-x="874" d="M769 299q-80 -319 -330 -319q-67 0 -137 30l-121 -334h-61l133 365q-143 135 -143 346q0 215 133 334q104 88 233 88q19 0 53 -2l119 328h62l-123 -344q157 -72 157 -175q0 -71 -79 -71q-48 0 -74 33q-12 16 -21 59q-10 55 -16 65l-195 -538q78 -53 140 -53q110 0 174 73 q24 31 69 125zM507 739q-25 11 -51 11q-109 0 -164 -97q-45 -80 -45 -196q0 -117 67 -244z" />
<glyph unicode="&#xa3;" horiz-adv-x="874" d="M836 258q-15 -113 -72 -188q-68 -90 -174 -90q-72 0 -150 45q-30 18 -129 92q-67 -137 -159 -137q-46 0 -73.5 31.5t-27.5 78.5q0 60 40 96.5t102 36.5q28 0 71 -6q2 12 4 37v29q0 75 -18 280h-166v82h166q-12 127 -12 170q0 225 159 324q72 45 158 45q82 0 145 -45 q72 -49 72 -129q0 -27 -20.5 -49.5t-46.5 -22.5q-33 0 -54 33q-10 14 -14 69q-4 50 -28.5 73.5t-73.5 23.5q-156 0 -156 -240q0 -57 10 -160q2 -16 8 -92h221v-82h-221q2 -39 2 -57q0 -150 -53 -307q164 -54 191 -60q45 -10 88 -10q141 0 180 137zM254 147q-37 23 -72 23 q-82 0 -82 -74q0 -67 56 -67q69 0 98 118z" />
<glyph unicode="&#xa7;" horiz-adv-x="874" d="M741 412q0 -179 -188 -293q104 -115 104 -217q0 -103 -68.5 -173.5t-172.5 -70.5q-84 0 -149.5 55.5t-65.5 136.5q0 29 19.5 52.5t47.5 23.5q64 0 64 -76q0 -16 -7.5 -46.5t-7.5 -45.5q0 -32 37 -51q31 -16 66 -16q57 0 104 43t47 98q0 109 -176 240q-121 92 -174 153 q-88 101 -88 205q0 176 189 291q-105 117 -105 221q0 102 69.5 172t172.5 70q86 0 151.5 -53.5t65.5 -135.5q0 -77 -68 -77q-67 0 -67 67q0 12 6 40t6 42q0 80 -94 80q-62 0 -105 -43t-43 -107q0 -55 23 -90q39 -61 129 -125q125 -92 184 -157q94 -105 94 -213zM655 332 q0 119 -192 268q-74 57 -113 94q-129 -78 -129 -190q0 -80 66 -158q41 -45 133 -115q61 -47 104 -86q131 78 131 187z" />
<glyph unicode="&#xa9;" horiz-adv-x="1335" d="M1274 580q0 -162 -82 -305.5t-225.5 -222.5t-298.5 -79q-162 0 -305.5 82t-222.5 224.5t-79 300.5q0 163 84 307.5t226.5 221.5t296.5 77q161 0 304.5 -81t221.5 -220q80 -146 80 -305zM1223 580q0 149 -76 280t-208 203t-271 72q-148 0 -278 -75t-202 -202 q-73 -133 -73 -278q0 -148 74.5 -279t204.5 -202.5t274 -71.5q149 0 279 74.5t203 204.5t73 274zM999 369q-118 -174 -327 -174q-166 0 -281 107.5t-115 272.5q0 175 127 287q121 109 299 109q60 0 158 -33q21 -6 31 -6q27 0 43 37h35l16 -238h-33q-61 201 -260 201 q-139 0 -215 -107q-59 -84 -59 -225q0 -354 282 -354q168 0 269 139z" />
<glyph unicode="&#xab;" horiz-adv-x="1024" d="M961 -8h-60l-393 473l393 469h60l-244 -469zM508 -8h-57l-388 473l388 469h57l-244 -469z" />
<glyph unicode="&#xad;" horiz-adv-x="823" d="M720 686v-156q0 -24 -24 -24h-569q-25 0 -25 24v156q0 23 25 23h569q24 0 24 -23z" />
<glyph unicode="&#xb6;" horiz-adv-x="792" d="M797 1112h-115v-1491h-61v1491h-160v-1491h-62v893q-135 6 -209 31q-108 35 -159 125q-43 75 -43 170q0 190 170 278q82 41 215 41h424v-47z" />
<glyph unicode="&#xb7;" horiz-adv-x="512" d="M367 678q0 -47 -32 -79t-79 -32q-45 0 -78 33t-33 78q0 47 32 78.5t79 31.5t79 -31.5t32 -78.5z" />
<glyph unicode="&#xbb;" horiz-adv-x="1024" d="M961 463l-388 -471h-57l244 471l-244 471h57zM516 463l-393 -471h-60l244 471l-244 471h60z" />
<glyph unicode="&#xbc;" horiz-adv-x="1312" d="M1283 123h-92v-158h-100v158h-293v61l319 398h74v-389h92v-70zM1103 1184l-799 -1231h-76l799 1231h76zM405 567h-277v29q74 0 82 18q4 11 4 64v319q0 88 -12 101q-6 4 -17 4q-18 0 -57 -17l-14 23l176 76h28v-506q0 -51 7 -64q10 -18 80 -18v-29zM1091 193v268 l-224 -268h224z" />
<glyph unicode="&#xbd;" horiz-adv-x="1312" d="M1277 96l-53 -131h-422v27q323 250 323 389q0 55 -35.5 89t-89.5 34q-104 0 -141 -101h-39q27 179 207 179q78 0 137 -41q68 -45 68 -119q0 -135 -293 -373h160q110 0 139 47h39zM1082 1184l-798 -1231h-76l799 1231h75zM405 567h-277v29q74 0 82 18q4 11 4 64v319 q0 88 -12 101q-6 4 -17 4q-18 0 -57 -17l-14 23l176 76h28v-506q0 -51 7 -64q10 -18 80 -18v-29z" />
<glyph unicode="&#xbe;" horiz-adv-x="1312" d="M1283 123h-92v-158h-100v158h-293v61l319 398h74v-389h92v-70zM1091 1184l-797 -1231h-76l799 1231h74zM445 770q0 -108 -92 -166q-80 -49 -192 -49q-125 0 -125 53q0 39 49 39q23 0 71 -20.5t76 -20.5q48 0 82.5 33t34.5 80q0 145 -198 141v25q59 0 107 36.5t48 96.5 q0 94 -104 94q-72 0 -125 -76l-33 15q66 133 197 133q63 0 112 -31q58 -37 58 -96q0 -58 -90 -131q124 -45 124 -156zM1091 193v268l-222 -268h222z" />
<glyph unicode="&#xd7;" horiz-adv-x="987" d="M844 281l-49 -50l-303 304l-302 -304l-49 50l301 301l-301 301l52 49l299 -299l301 299l49 -47l-301 -301z" />
<glyph unicode="&#xf7;" horiz-adv-x="1124" d="M648 987q0 -35 -25.5 -60.5t-62.5 -25.5q-35 0 -61.5 25.5t-26.5 60.5q0 37 25.5 62.5t62.5 25.5q39 0 63.5 -24.5t24.5 -63.5zM1101 641h-1079v82h1079v-82zM648 367q0 -37 -25.5 -62.5t-62.5 -25.5q-35 0 -61.5 25.5t-26.5 62.5q0 36 26.5 62t61.5 26q39 0 63.5 -26 t24.5 -62z" />
<glyph unicode="&#x591;" d="M657 770q0 -119 -82.5 -202t-203.5 -83q-117 0 -200 84t-83 201q0 119 83 203t200 84q121 0 203.5 -84t82.5 -203zM578 770q0 88 -59.5 148.5t-147.5 60.5q-86 0 -145.5 -60.5t-59.5 -148.5q0 -84 59.5 -145.5t145.5 -61.5q88 0 147.5 61.5t59.5 145.5z" />
<glyph unicode="&#x592;" d="M657 770q0 -119 -82.5 -202t-203.5 -83q-117 0 -200 84t-83 201q0 119 83 203t200 84q121 0 203.5 -84t82.5 -203zM578 770q0 88 -59.5 148.5t-147.5 60.5q-86 0 -145.5 -60.5t-59.5 -148.5q0 -84 59.5 -145.5t145.5 -61.5q88 0 147.5 61.5t59.5 145.5z" />
<glyph unicode="&#x593;" d="M657 770q0 -119 -82.5 -202t-203.5 -83q-117 0 -200 84t-83 201q0 119 83 203t200 84q121 0 203.5 -84t82.5 -203zM578 770q0 88 -59.5 148.5t-147.5 60.5q-86 0 -145.5 -60.5t-59.5 -148.5q0 -84 59.5 -145.5t145.5 -61.5q88 0 147.5 61.5t59.5 145.5z" />
<glyph unicode="&#x594;" d="M657 770q0 -119 -82.5 -202t-203.5 -83q-117 0 -200 84t-83 201q0 119 83 203t200 84q121 0 203.5 -84t82.5 -203zM578 770q0 88 -59.5 148.5t-147.5 60.5q-86 0 -145.5 -60.5t-59.5 -148.5q0 -84 59.5 -145.5t145.5 -61.5q88 0 147.5 61.5t59.5 145.5z" />
<glyph unicode="&#x595;" d="M657 770q0 -119 -82.5 -202t-203.5 -83q-117 0 -200 84t-83 201q0 119 83 203t200 84q121 0 203.5 -84t82.5 -203zM578 770q0 88 -59.5 148.5t-147.5 60.5q-86 0 -145.5 -60.5t-59.5 -148.5q0 -84 59.5 -145.5t145.5 -61.5q88 0 147.5 61.5t59.5 145.5z" />
<glyph unicode="&#x596;" d="M657 770q0 -119 -82.5 -202t-203.5 -83q-117 0 -200 84t-83 201q0 119 83 203t200 84q121 0 203.5 -84t82.5 -203zM578 770q0 88 -59.5 148.5t-147.5 60.5q-86 0 -145.5 -60.5t-59.5 -148.5q0 -84 59.5 -145.5t145.5 -61.5q88 0 147.5 61.5t59.5 145.5z" />
<glyph unicode="&#x597;" d="M657 770q0 -119 -82.5 -202t-203.5 -83q-117 0 -200 84t-83 201q0 119 83 203t200 84q121 0 203.5 -84t82.5 -203zM578 770q0 88 -59.5 148.5t-147.5 60.5q-86 0 -145.5 -60.5t-59.5 -148.5q0 -84 59.5 -145.5t145.5 -61.5q88 0 147.5 61.5t59.5 145.5z" />
<glyph unicode="&#x598;" d="M657 770q0 -119 -82.5 -202t-203.5 -83q-117 0 -200 84t-83 201q0 119 83 203t200 84q121 0 203.5 -84t82.5 -203zM578 770q0 88 -59.5 148.5t-147.5 60.5q-86 0 -145.5 -60.5t-59.5 -148.5q0 -84 59.5 -145.5t145.5 -61.5q88 0 147.5 61.5t59.5 145.5z" />
<glyph unicode="&#x599;" d="M657 770q0 -119 -82.5 -202t-203.5 -83q-117 0 -200 84t-83 201q0 119 83 203t200 84q121 0 203.5 -84t82.5 -203zM578 770q0 88 -59.5 148.5t-147.5 60.5q-86 0 -145.5 -60.5t-59.5 -148.5q0 -84 59.5 -145.5t145.5 -61.5q88 0 147.5 61.5t59.5 145.5z" />
<glyph unicode="&#x59a;" d="M657 770q0 -119 -82.5 -202t-203.5 -83q-117 0 -200 84t-83 201q0 119 83 203t200 84q121 0 203.5 -84t82.5 -203zM578 770q0 88 -59.5 148.5t-147.5 60.5q-86 0 -145.5 -60.5t-59.5 -148.5q0 -84 59.5 -145.5t145.5 -61.5q88 0 147.5 61.5t59.5 145.5z" />
<glyph unicode="&#x59b;" d="M657 770q0 -119 -82.5 -202t-203.5 -83q-117 0 -200 84t-83 201q0 119 83 203t200 84q121 0 203.5 -84t82.5 -203zM578 770q0 88 -59.5 148.5t-147.5 60.5q-86 0 -145.5 -60.5t-59.5 -148.5q0 -84 59.5 -145.5t145.5 -61.5q88 0 147.5 61.5t59.5 145.5z" />
<glyph unicode="&#x59c;" d="M657 770q0 -119 -82.5 -202t-203.5 -83q-117 0 -200 84t-83 201q0 119 83 203t200 84q121 0 203.5 -84t82.5 -203zM578 770q0 88 -59.5 148.5t-147.5 60.5q-86 0 -145.5 -60.5t-59.5 -148.5q0 -84 59.5 -145.5t145.5 -61.5q88 0 147.5 61.5t59.5 145.5z" />
<glyph unicode="&#x59d;" d="M657 770q0 -119 -82.5 -202t-203.5 -83q-117 0 -200 84t-83 201q0 119 83 203t200 84q121 0 203.5 -84t82.5 -203zM578 770q0 88 -59.5 148.5t-147.5 60.5q-86 0 -145.5 -60.5t-59.5 -148.5q0 -84 59.5 -145.5t145.5 -61.5q88 0 147.5 61.5t59.5 145.5z" />
<glyph unicode="&#x59e;" d="M657 770q0 -119 -82.5 -202t-203.5 -83q-117 0 -200 84t-83 201q0 119 83 203t200 84q121 0 203.5 -84t82.5 -203zM578 770q0 88 -59.5 148.5t-147.5 60.5q-86 0 -145.5 -60.5t-59.5 -148.5q0 -84 59.5 -145.5t145.5 -61.5q88 0 147.5 61.5t59.5 145.5z" />
<glyph unicode="&#x59f;" d="M657 770q0 -119 -82.5 -202t-203.5 -83q-117 0 -200 84t-83 201q0 119 83 203t200 84q121 0 203.5 -84t82.5 -203zM578 770q0 88 -59.5 148.5t-147.5 60.5q-86 0 -145.5 -60.5t-59.5 -148.5q0 -84 59.5 -145.5t145.5 -61.5q88 0 147.5 61.5t59.5 145.5z" />
<glyph unicode="&#x5a0;" d="M657 770q0 -119 -82.5 -202t-203.5 -83q-117 0 -200 84t-83 201q0 119 83 203t200 84q121 0 203.5 -84t82.5 -203zM578 770q0 88 -59.5 148.5t-147.5 60.5q-86 0 -145.5 -60.5t-59.5 -148.5q0 -84 59.5 -145.5t145.5 -61.5q88 0 147.5 61.5t59.5 145.5z" />
<glyph unicode="&#x5a1;" d="M657 770q0 -119 -82.5 -202t-203.5 -83q-117 0 -200 84t-83 201q0 119 83 203t200 84q121 0 203.5 -84t82.5 -203zM578 770q0 88 -59.5 148.5t-147.5 60.5q-86 0 -145.5 -60.5t-59.5 -148.5q0 -84 59.5 -145.5t145.5 -61.5q88 0 147.5 61.5t59.5 145.5z" />
<glyph unicode="&#x5a3;" d="M657 770q0 -119 -82.5 -202t-203.5 -83q-117 0 -200 84t-83 201q0 119 83 203t200 84q121 0 203.5 -84t82.5 -203zM578 770q0 88 -59.5 148.5t-147.5 60.5q-86 0 -145.5 -60.5t-59.5 -148.5q0 -84 59.5 -145.5t145.5 -61.5q88 0 147.5 61.5t59.5 145.5z" />
<glyph unicode="&#x5a4;" d="M657 770q0 -119 -82.5 -202t-203.5 -83q-117 0 -200 84t-83 201q0 119 83 203t200 84q121 0 203.5 -84t82.5 -203zM578 770q0 88 -59.5 148.5t-147.5 60.5q-86 0 -145.5 -60.5t-59.5 -148.5q0 -84 59.5 -145.5t145.5 -61.5q88 0 147.5 61.5t59.5 145.5z" />
<glyph unicode="&#x5a5;" d="M657 770q0 -119 -82.5 -202t-203.5 -83q-117 0 -200 84t-83 201q0 119 83 203t200 84q121 0 203.5 -84t82.5 -203zM578 770q0 88 -59.5 148.5t-147.5 60.5q-86 0 -145.5 -60.5t-59.5 -148.5q0 -84 59.5 -145.5t145.5 -61.5q88 0 147.5 61.5t59.5 145.5z" />
<glyph unicode="&#x5a6;" d="M657 770q0 -119 -82.5 -202t-203.5 -83q-117 0 -200 84t-83 201q0 119 83 203t200 84q121 0 203.5 -84t82.5 -203zM578 770q0 88 -59.5 148.5t-147.5 60.5q-86 0 -145.5 -60.5t-59.5 -148.5q0 -84 59.5 -145.5t145.5 -61.5q88 0 147.5 61.5t59.5 145.5z" />
<glyph unicode="&#x5a7;" d="M657 770q0 -119 -82.5 -202t-203.5 -83q-117 0 -200 84t-83 201q0 119 83 203t200 84q121 0 203.5 -84t82.5 -203zM578 770q0 88 -59.5 148.5t-147.5 60.5q-86 0 -145.5 -60.5t-59.5 -148.5q0 -84 59.5 -145.5t145.5 -61.5q88 0 147.5 61.5t59.5 145.5z" />
<glyph unicode="&#x5a8;" d="M657 770q0 -119 -82.5 -202t-203.5 -83q-117 0 -200 84t-83 201q0 119 83 203t200 84q121 0 203.5 -84t82.5 -203zM578 770q0 88 -59.5 148.5t-147.5 60.5q-86 0 -145.5 -60.5t-59.5 -148.5q0 -84 59.5 -145.5t145.5 -61.5q88 0 147.5 61.5t59.5 145.5z" />
<glyph unicode="&#x5a9;" d="M657 770q0 -119 -82.5 -202t-203.5 -83q-117 0 -200 84t-83 201q0 119 83 203t200 84q121 0 203.5 -84t82.5 -203zM578 770q0 88 -59.5 148.5t-147.5 60.5q-86 0 -145.5 -60.5t-59.5 -148.5q0 -84 59.5 -145.5t145.5 -61.5q88 0 147.5 61.5t59.5 145.5z" />
<glyph unicode="&#x5aa;" d="M657 770q0 -119 -82.5 -202t-203.5 -83q-117 0 -200 84t-83 201q0 119 83 203t200 84q121 0 203.5 -84t82.5 -203zM578 770q0 88 -59.5 148.5t-147.5 60.5q-86 0 -145.5 -60.5t-59.5 -148.5q0 -84 59.5 -145.5t145.5 -61.5q88 0 147.5 61.5t59.5 145.5z" />
<glyph unicode="&#x5ab;" d="M657 770q0 -119 -82.5 -202t-203.5 -83q-117 0 -200 84t-83 201q0 119 83 203t200 84q121 0 203.5 -84t82.5 -203zM578 770q0 88 -59.5 148.5t-147.5 60.5q-86 0 -145.5 -60.5t-59.5 -148.5q0 -84 59.5 -145.5t145.5 -61.5q88 0 147.5 61.5t59.5 145.5z" />
<glyph unicode="&#x5ac;" d="M657 770q0 -119 -82.5 -202t-203.5 -83q-117 0 -200 84t-83 201q0 119 83 203t200 84q121 0 203.5 -84t82.5 -203zM578 770q0 88 -59.5 148.5t-147.5 60.5q-86 0 -145.5 -60.5t-59.5 -148.5q0 -84 59.5 -145.5t145.5 -61.5q88 0 147.5 61.5t59.5 145.5z" />
<glyph unicode="&#x5ad;" d="M657 770q0 -119 -82.5 -202t-203.5 -83q-117 0 -200 84t-83 201q0 119 83 203t200 84q121 0 203.5 -84t82.5 -203zM578 770q0 88 -59.5 148.5t-147.5 60.5q-86 0 -145.5 -60.5t-59.5 -148.5q0 -84 59.5 -145.5t145.5 -61.5q88 0 147.5 61.5t59.5 145.5z" />
<glyph unicode="&#x5ae;" d="M657 770q0 -119 -82.5 -202t-203.5 -83q-117 0 -200 84t-83 201q0 119 83 203t200 84q121 0 203.5 -84t82.5 -203zM578 770q0 88 -59.5 148.5t-147.5 60.5q-86 0 -145.5 -60.5t-59.5 -148.5q0 -84 59.5 -145.5t145.5 -61.5q88 0 147.5 61.5t59.5 145.5z" />
<glyph unicode="&#x5af;" d="M657 770q0 -119 -82.5 -202t-203.5 -83q-117 0 -200 84t-83 201q0 119 83 203t200 84q121 0 203.5 -84t82.5 -203zM578 770q0 88 -59.5 148.5t-147.5 60.5q-86 0 -145.5 -60.5t-59.5 -148.5q0 -84 59.5 -145.5t145.5 -61.5q88 0 147.5 61.5t59.5 145.5z" />
<glyph unicode="&#x5b0;" horiz-adv-x="2" d="M88 -243q0 -35 -25.5 -60.5t-60.5 -25.5q-36 0 -62 25.5t-26 60.5t27 59.5t61 24.5q37 0 61.5 -24.5t24.5 -59.5zM88 -512q0 -34 -25.5 -60t-60.5 -26q-36 0 -62 26t-26 60q0 35 27 59.5t61 24.5q37 0 61.5 -24.5t24.5 -59.5z" />
<glyph unicode="&#x5b1;" horiz-adv-x="2" d="M-137 -243q0 -35 -25.5 -60.5t-60.5 -25.5q-33 0 -59.5 24.5t-26.5 61.5q0 33 25.5 58.5t60.5 25.5q37 0 61.5 -24.5t24.5 -59.5zM98 -243q0 -35 -25.5 -60.5t-60.5 -25.5q-34 0 -60.5 25.5t-26.5 60.5q0 33 27.5 58.5t59.5 25.5q37 0 61.5 -23.5t24.5 -60.5zM-10 -450 q0 -35 -25.5 -60.5t-60.5 -25.5q-33 0 -59.5 24.5t-26.5 61.5q0 35 25.5 59.5t60.5 24.5t60.5 -24.5t25.5 -59.5zM311 -243q0 -29 -22.5 -49.5t-50.5 -20.5q-70 0 -70 70q0 74 70 74q73 0 73 -74zM311 -458q0 -29 -21.5 -50.5t-51.5 -21.5q-70 0 -70 72q0 30 20.5 50.5 t49.5 20.5q73 0 73 -71z" />
<glyph unicode="&#x5b2;" horiz-adv-x="2" d="M287 -243q0 -29 -22.5 -49.5t-51.5 -20.5q-70 0 -70 70q0 74 70 74q74 0 74 -74zM287 -458q0 -29 -21.5 -50.5t-52.5 -21.5q-70 0 -70 72q0 71 70 71q74 0 74 -71zM-258 -305q-26 0 -26 31v66q0 30 26 30h301q27 0 27 -30v-66q0 -31 -27 -31h-301z" />
<glyph unicode="&#x5b3;" horiz-adv-x="2" d="M287 -243q0 -29 -22.5 -49.5t-51.5 -20.5q-70 0 -70 70q0 74 70 74q33 0 53.5 -20.5t20.5 -53.5zM287 -458q0 -29 -21.5 -50.5t-52.5 -21.5q-70 0 -70 72q0 71 70 71q74 0 74 -71zM-258 -178h301q27 0 27 -30v-66q0 -31 -27 -31h-118q0 -43 20 -88l23 -51q8 -16 8 -35 q0 -33 -24.5 -57.5t-59.5 -24.5t-59.5 24.5t-24.5 57.5q0 19 8 35l23 51q22 49 22 88h-119q-26 0 -26 31v66q0 30 26 30z" />
<glyph unicode="&#x5b4;" horiz-adv-x="2" d="M92 -243q0 -35 -27.5 -62.5t-62.5 -27.5q-36 0 -64 27.5t-28 62.5q0 37 28 62.5t64 25.5q39 0 64.5 -25.5t25.5 -62.5z" />
<glyph unicode="&#x5b5;" horiz-adv-x="2" d="M-45 -243q0 -35 -25.5 -60.5t-60.5 -25.5q-34 0 -60 25.5t-26 60.5t26 59.5t60 24.5q86 0 86 -84zM219 -243q0 -35 -25.5 -60.5t-60.5 -25.5t-60.5 25.5t-25.5 60.5t25.5 59.5t60.5 24.5q37 0 61.5 -24.5t24.5 -59.5z" />
<glyph unicode="&#x5b6;" horiz-adv-x="2" d="M-45 -243q0 -35 -25.5 -60.5t-60.5 -25.5q-34 0 -60 25.5t-26 60.5t26 59.5t60 24.5q86 0 86 -84zM219 -243q0 -35 -25.5 -60.5t-60.5 -25.5t-60.5 25.5t-25.5 60.5t25.5 59.5t60.5 24.5q37 0 61.5 -24.5t24.5 -59.5zM94 -468q0 -35 -25.5 -61t-60.5 -26q-34 0 -59.5 26 t-25.5 61q0 34 25.5 58.5t59.5 24.5q37 0 61.5 -24.5t24.5 -58.5z" />
<glyph unicode="&#x5b7;" horiz-adv-x="2" d="M-190 -305q-27 0 -27 31v66q0 30 27 30h383q26 0 26 -30v-66q0 -31 -26 -31h-383z" />
<glyph unicode="&#x5b8;" horiz-adv-x="2" d="M-190 -178h383q26 0 26 -30v-66q0 -31 -26 -31h-158q0 -47 18 -88l23 -51q8 -16 8 -35q0 -35 -24.5 -58.5t-57.5 -23.5q-34 0 -58.5 24.5t-24.5 57.5q0 19 8 35l22 51q21 45 21 88h-160q-27 0 -27 31v66q0 30 27 30z" />
<glyph unicode="&#x5b9;" horiz-adv-x="2" d="M85 1470q0 -35 -25.5 -60.5t-60.5 -25.5q-34 0 -60 25.5t-26 60.5q0 33 26 58.5t60 25.5q39 0 62.5 -23.5t23.5 -60.5z" />
<glyph unicode="&#x5bb;" horiz-adv-x="2" d="M92 -243q0 -35 -25.5 -60.5t-60.5 -25.5t-60.5 25.5t-25.5 60.5t25.5 59.5t60.5 24.5q86 0 86 -84zM235 -417q0 -35 -25.5 -60.5t-60.5 -25.5q-34 0 -59.5 25.5t-25.5 60.5t25.5 59.5t59.5 24.5q37 0 61.5 -23.5t24.5 -60.5zM376 -589q0 -35 -25.5 -60.5t-60.5 -25.5 q-34 0 -60 25.5t-26 60.5q0 32 26 58t60 26q86 0 86 -84z" />
<glyph unicode="&#x5bc;" horiz-adv-x="2" d="M86 457q0 -35 -25.5 -60.5t-60.5 -25.5q-34 0 -60 25.5t-26 60.5q0 32 27 58t59 26q37 0 61.5 -23.5t24.5 -60.5z" />
<glyph unicode="&#x5bd;" horiz-adv-x="2" d="M67 -587q0 -27 -31 -27h-65q-31 0 -31 27v383q0 26 31 26h65q31 0 31 -26v-383z" />
<glyph unicode="&#x5be;" horiz-adv-x="597" d="M492 1181v-161q0 -24 -13 -24h-387q-12 0 -12 24v161q0 23 12 23h387q13 0 13 -23z" />
<glyph unicode="&#x5bf;" horiz-adv-x="597" d="M492 1181v-161q0 -24 -13 -24h-387q-12 0 -12 24v161q0 23 12 23h387q13 0 13 -23z" />
<glyph unicode="&#x5c0;" horiz-adv-x="567" d="M383 1456v-1707q0 -24 -25 -24h-154q-20 0 -20 24v1705q0 25 25 25h149q25 0 25 -23z" />
<glyph unicode="&#x5c1;" horiz-adv-x="2" d="M1274 1470q0 -35 -25.5 -60.5t-60.5 -25.5q-34 0 -60 25.5t-26 60.5q0 33 26 58.5t60 25.5q39 0 62.5 -23.5t23.5 -60.5z" />
<glyph unicode="&#x5c2;" horiz-adv-x="2" d="M334 1470q0 -35 -25.5 -60.5t-60.5 -25.5q-34 0 -60 25.5t-26 60.5q0 33 26 58.5t60 25.5q39 0 62.5 -23.5t23.5 -60.5z" />
<glyph unicode="&#x5c3;" horiz-adv-x="546" d="M408 150q0 -40 -8 -79t-29 -57q-18 -15 -46.5 -20.5t-62.5 -5.5q-35 0 -63.5 5.5t-46.5 20.5q-21 18 -29 56.5t-8 77.5q0 16 1 33.5t3.5 33.5t6.5 30t11 23q18 23 49.5 32.5t73.5 9.5q38 0 68.5 -7t49.5 -26q9 -9 14.5 -23.5t9 -31.5t5 -35.5t1.5 -36.5zM408 842 q0 -40 -8 -79t-29 -57q-18 -16 -46.5 -21.5t-62.5 -5.5q-35 0 -63.5 5.5t-46.5 21.5q-21 18 -29 56.5t-8 77.5q0 16 1 33.5t3.5 33.5t6.5 30t11 23q18 23 49.5 32.5t73.5 9.5q38 0 68.5 -7t49.5 -26q9 -9 14.5 -23.5t9 -31.5t5 -35.5t1.5 -36.5z" />
<glyph unicode="&#x5c4;" horiz-adv-x="2" d="M85 1470q0 -35 -25.5 -60.5t-60.5 -25.5q-34 0 -60 25.5t-26 60.5q0 33 26 58.5t60 25.5q39 0 62.5 -23.5t23.5 -60.5z" />
<glyph unicode="&#x5d0;" horiz-adv-x="1228" d="M834 500l302 -460q9 -14 7 -27t-19 -13h-290q-17 0 -27.5 8t-20.5 25l-348 570q-23 -19 -31.5 -50t-12.5 -73l-41 -439q-2 -25 -6 -33t-26 -8h-220q-19 0 -23.5 10.5t-2.5 32.5l48 401q4 36 12 73t30 75.5t61.5 77.5t106.5 80l-258 389q-5 8 -15 21.5t-10 23.5 q0 14 11.5 18.5t25.5 4.5h266q15 0 28 -8t27 -29l344 -516q12 10 23.5 30.5t16.5 64.5l47 420q5 38 45 38h202q43 0 37 -53l-38 -319q-8 -62 -23.5 -111t-44 -88.5t-73 -72.5t-110.5 -63z" />
<glyph unicode="&#x5d1;" horiz-adv-x="1061" d="M991 168v-129q0 -39 -45 -39h-840q-39 0 -39 43v123q0 45 50 45h481v577q0 132 -78 195q-63 51 -164 51q-98 0 -194 -45q-36 -17 -48 10l-53 119q-10 24 -6 33q5 8 27 20q47 24 137.5 44t210.5 20q232 0 350 -121q107 -110 107 -295v-608h55q49 0 49 -43z" />
<glyph unicode="&#x5d2;" horiz-adv-x="877" d="M788 84q10 -21 2.5 -35.5t-27.5 -21.5l-156 -51q-17 -6 -29.5 0.5t-23.5 23.5q-8 13 -19 36t-23 53t-23.5 65.5t-20.5 71.5q-23 -37 -60 -79t-76 -77q-23 -20 -48 -38.5t-49.5 -33t-47.5 -24t-41 -12.5q-25 -4 -37 4t-17 27l-39 143q-8 28 0 44t27 23q58 22 113.5 56.5 t100.5 71t77 69t44 50.5l-49 381q-6 47 -23 83t-42.5 59t-59 31.5t-71.5 1.5q-21 -4 -29.5 2t-9.5 17t0 33l15 124q3 21 22 27t44 8q91 9 164.5 -4.5t127.5 -54t88.5 -112.5t48.5 -180l57 -452q16 -124 43.5 -207t46.5 -123z" />
<glyph unicode="&#x5d3;" horiz-adv-x="1125" d="M1020 1164v-129q0 -39 -45 -39h-110v-955q0 -41 -39 -41h-219q-35 0 -35 45v951h-467q-39 0 -39 43v123q0 45 49 45h856q49 0 49 -43z" />
<glyph unicode="&#x5d4;" horiz-adv-x="1165" d="M408 700l-15 -649q-2 -51 -55 -51h-183q-28 0 -39.5 9t-9.5 42l20 649q1 52 53 52h176q53 0 53 -52zM1050 792v-749q0 -43 -41 -43h-198q-49 0 -49 47v723q0 34 -2.5 64.5t-10 57t-22.5 49t-39 39.5q-39 27 -91 38.5t-114 11.5q-57 0 -132.5 -12.5t-150.5 -45.5 q-14 -9 -23 -9q-19 0 -34 33l-47 103q-19 38 23 59q31 16 76 31t99.5 27t116 19.5t125.5 7.5q131 0 232 -25t170 -86q34 -30 56 -66.5t34.5 -79.5t17 -91.5t4.5 -102.5z" />
<glyph unicode="&#x5d5;" horiz-adv-x="541" d="M411 1156v-1105q0 -51 -47 -51h-195q-49 0 -49 51v1105q0 51 53 51h193q45 0 45 -51z" />
<glyph unicode="&#x5d6;" horiz-adv-x="773" d="M653 1179l28 -110q9 -32 -19 -45q-31 -14 -51 -23t-33 -18t-21 -19.5t-15 -26.5q-20 -51 -20 -187v-697q0 -53 -43 -53h-197q-32 0 -39.5 11.5t-7.5 41.5v468q0 93 2.5 158.5t16.5 114.5q17 58 51.5 105.5t79.5 81.5q-14 -2 -27.5 -3t-39.5 -1q-68 0 -128.5 11.5 t-99.5 28.5q-22 10 -29 20q-3 8 4 33l43 142q6 21 41 12q76 -18 137 -30t107 -12q63 0 117 8t102 19q14 4 25 -3.5t16 -26.5z" />
<glyph unicode="&#x5d7;" horiz-adv-x="1217" d="M1095 855l17 -808q2 -47 -41 -47h-203q-15 0 -24.5 1t-14 5t-6.5 13t-2 24l-19 817q-2 91 -56 131.5t-159 40.5q-21 0 -45.5 -1.5t-48 -4.5t-42.5 -7t-28 -8l-35 -966q-2 -45 -47 -45h-204q-29 0 -37 7t-6 38l39 957l-41 74q-16 28 -16 39q0 16 31 29q35 15 87.5 31 t117 29t139.5 21t155 8q133 0 225.5 -23t150.5 -70t84.5 -118t28.5 -167z" />
<glyph unicode="&#x5d8;" horiz-adv-x="1234" d="M1137 726q-3 -79 -11 -156.5t-23 -149t-37.5 -133.5t-52.5 -110q-41 -65 -90 -104.5t-101.5 -61t-106.5 -28.5t-105 -7q-96 0 -178 20.5t-145 75t-103.5 151t-52.5 249.5l-56 685q-2 28 10.5 39t36.5 11h193q52 0 55 -47l54 -726q6 -81 23.5 -131.5t42 -79t54 -39 t60.5 -10.5q22 0 46.5 5t47.5 19t44.5 40t39.5 68q26 62 39.5 155.5t18.5 208.5q4 95 -1.5 160.5t-22 106.5t-44 59t-67.5 18q-17 0 -33.5 -7.5t-39.5 -23.5q-32 -23 -45 12l-51 130q-11 30 14 49q13 9 35.5 19.5t50 18.5t59.5 13.5t65 5.5q98 0 171 -26t120 -85 t68.5 -155.5t17.5 -238.5z" />
<glyph unicode="&#x5d9;" horiz-adv-x="519" d="M399 1166v-539q0 -48 -45 -70l-195 -100q-8 -4 -18 -4q-31 0 -31 34v669q0 15 1.5 25t7 16t16 8t28.5 2h193q43 0 43 -41z" />
<glyph unicode="&#x5da;" horiz-adv-x="1046" d="M931 778v-1152q0 -35 -30 -35h-228q-30 0 -30 35v1162q0 246 -240 246q-119 0 -235 -55q-36 -17 -48 10l-53 119q-10 24 -6 33q2 4 9 8.5t18 11.5q27 16 65.5 29.5t86 23.5t102 15.5t114.5 5.5q475 0 475 -457z" />
<glyph unicode="&#x5db;" horiz-adv-x="1001" d="M921 618q0 -157 -37.5 -279.5t-117.5 -210.5q-72 -78 -164.5 -115t-201.5 -37q-178 0 -288 49q-37 16 -37 38q0 2 0.5 5t1.5 8l33 112q10 37 37 37q9 0 16 -4q94 -39 180 -39q63 0 116.5 22.5t91.5 69.5q46 55 65.5 138.5t19.5 195.5q0 98 -19.5 176.5t-57.5 133.5 q-38 56 -89 81t-115 25q-78 0 -163 -43q-30 -14 -43 -14q-21 0 -33 20l-60 105q-9 16 -5.5 27t20.5 25q20 16 53 32t74 28t89 19.5t99 7.5q253 0 394 -157q141 -158 141 -456z" />
<glyph unicode="&#x5dc;" horiz-adv-x="1081" d="M973 1143l-66 -603q-6 -55 -20 -108.5t-35 -102.5t-48.5 -93t-60.5 -80q-150 -162 -409 -182q-15 -1 -25 -0.5t-16 4t-9.5 10.5t-5.5 20l-20 119q-5 28 0 39q5 9 35 12q289 30 315 295l50 523h-552q-51 0 -51 50v504q0 36 7.5 46t37.5 10h193q43 0 43 -43v-356h584 q61 0 53 -64z" />
<glyph unicode="&#x5dd;" horiz-adv-x="1219" d="M385 211h442l-16 644q-2 91 -49 134t-154 43q-139 0 -199 -21zM1097 875l17 -828q2 -47 -41 -47h-928q-27 0 -35.5 7t-7.5 38l33 961l-38 62q-16 28 -16 39q0 8 8 14.5t23 14.5q34 18 86 35t117.5 31t140.5 22.5t156 8.5q120 0 210 -20t150.5 -63.5t91.5 -111t33 -163.5z " />
<glyph unicode="&#x5de;" horiz-adv-x="1255" d="M1131 827l16 -351q1 -34 3 -73t0.5 -79t-7 -78.5t-18.5 -70.5q-42 -104 -135.5 -153.5t-235.5 -49.5q-67 0 -123.5 11t-88.5 22q-23 8 -26.5 18t2.5 33l33 121q5 17 17.5 26t29.5 1q36 -16 65 -22.5t48 -6.5q45 0 76 15t50 41.5t27 63t6 79.5l-20 445q-2 53 -16 89 t-36.5 57.5t-51.5 30t-62 8.5q-42 -1 -98 -29.5t-114 -78.5l-109 -851q-3 -23 -10.5 -34t-30.5 -11h-221q-20 0 -25 10t0 39l118 777q2 11 3.5 22t1.5 21q0 60 -22.5 103t-76.5 78q-18 12 -27.5 20t-9.5 15q0 11 10 30l51 97q11 20 28 24t46 -4q68 -19 130 -58t99 -89 q50 42 97 69t90.5 43t85 22t81.5 6q74 0 136.5 -21.5t108 -69t73 -123t32.5 -184.5z" />
<glyph unicode="&#x5df;" horiz-adv-x="541" d="M411 1156v-1513q0 -52 -47 -52h-195q-49 0 -49 52v1513q0 51 53 51h193q45 0 45 -51z" />
<glyph unicode="&#x5e0;" horiz-adv-x="755" d="M640 776v-727q0 -49 -39 -49h-502q-39 0 -39 43v123q0 45 39 45h252v572q0 75 -18 121.5t-47.5 71t-65.5 31t-72 1.5q-13 -2 -20.5 1t-11 9t-4.5 14.5t0 19.5l10 123q2 21 13.5 28t34.5 12q52 10 104.5 8.5t101.5 -15t92.5 -40t77.5 -67.5q46 -54 70 -134.5t24 -190.5z " />
<glyph unicode="&#x5e1;" horiz-adv-x="1225" d="M839 680q4 115 -10.5 186t-47 110t-83.5 52.5t-120 13.5q-66 0 -120.5 -8t-80.5 -16l32 -498q7 -105 24 -172.5t44.5 -106.5t64.5 -54t84 -15q21 0 45 8t47 25t43.5 43.5t32.5 64.5q10 32 18 74t13 90t8.5 100t5.5 103zM1134 694q-2 -73 -7.5 -141.5t-17.5 -133.5 t-33 -126t-55 -118q-36 -61 -85.5 -100.5t-102 -63t-104.5 -32.5t-94 -9q-56 0 -110 6t-103 20.5t-90 39t-72 61.5q-58 70 -90 169.5t-42 239.5l-35 495l-39 77q-6 12 -9.5 19.5t-3.5 16.5q0 13 4.5 19t18.5 13q40 20 101 37.5t131 31t143 21t138 7.5q72 0 137.5 -5.5 t122 -18.5t102.5 -35.5t80 -55.5q70 -69 95 -177t20 -257z" />
<glyph unicode="&#x5e2;" horiz-adv-x="1183" d="M1084 1164l-67 -598q-11 -96 -38 -188t-75 -163q-56 -83 -140.5 -133t-196.5 -82l-420 -120q-11 -3 -19 -5.5t-13 -2.5q-22 0 -29 30l-26 105q-6 23 1.5 40.5t31.5 24.5l216 63l-260 1009q-2 6 -3 12t-1 13q0 19 9.5 28.5t34.5 9.5h215q26 0 38.5 -12t17.5 -37l214 -947 q20 8 44 26t44 44q12 17 22 43t17.5 57t13 65.5t8.5 68.5l59 635q2 19 6 31t9 17q9 9 44 9h202q21 0 32 -10.5t9 -32.5z" />
<glyph unicode="&#x5e3;" horiz-adv-x="1161" d="M1046 778v-1152q0 -35 -30 -35h-224q-30 0 -30 35v1162q0 124 -57 186t-181 62q-16 0 -34 -1t-35.5 -3t-33 -4.5t-26.5 -5.5v-248q0 -104 80 -104q12 0 25.5 2.5t27.5 7.5q27 9 35 -27l21 -90q7 -32 -17 -45q-77 -45 -192 -45q-262 0 -262 272v251l-40 73q-14 26 -14 39 q0 12 6.5 19.5t23.5 16.5q30 16 77.5 32.5t106.5 29.5t128 21t142 8q121 0 225 -26.5t171 -88.5q32 -30 52.5 -67.5t32.5 -81t17 -92t5 -101.5z" />
<glyph unicode="&#x5e4;" horiz-adv-x="1194" d="M1099 606q0 -160 -36.5 -277.5t-115.5 -202.5t-186 -121.5t-240 -36.5q-273 0 -399 98q-35 26 -17 61l56 106q12 21 26 21t39 -16q109 -70 256 -70q326 0 326 438q0 224 -68.5 336.5t-216.5 112.5q-13 0 -29 -1.5t-32 -4t-31 -6t-25 -7.5v-254q0 -104 80 -104 q11 0 19 2.5t22 7.5q28 7 35 -26l21 -91q7 -30 -17 -45q-38 -23 -88 -34t-109 -11q-133 0 -192 68t-59 205v245l-37 59q-8 12 -16 27t-8 22q0 12 6.5 19t23.5 17q34 19 86.5 37.5t115.5 32t134.5 22t143.5 8.5q161 0 271 -54.5t174 -164.5q46 -78 66.5 -181.5t20.5 -236.5z " />
<glyph unicode="&#x5e5;" horiz-adv-x="1158" d="M1046 1152l-57 -284q-31 -153 -110 -247.5t-223 -134.5q10 -29 15 -58.5t7 -58.5t2 -56v-49v-619q0 -54 -49 -54h-201q-43 0 -43 45v591q0 45 -2.5 88t-12.5 90.5t-29 102t-52 123.5l-245 509q-6 13 -6 29q0 38 49 38h204q47 0 65 -38l144 -297q27 -57 53.5 -114.5 t46.5 -102.5q20 11 37.5 35.5t28.5 59.5t23 91.5t23 128.5l31 196q4 29 18 37q7 4 41 4h209q43 0 33 -55z" />
<glyph unicode="&#x5e6;" horiz-adv-x="1154" d="M1042 1152l-71 -331q-23 -104 -85.5 -174.5t-164.5 -124.5q13 -17 39.5 -51.5t61 -78.5t73 -92t76.5 -91q14 -15 21 -26.5t7 -35.5v-94q0 -53 -38 -53h-812q-36 0 -36 39v133q0 39 41 39h454q-39 47 -80.5 100.5t-81 107.5t-76 106.5t-65.5 98.5q-34 54 -70.5 116 t-70.5 128t-63.5 133t-49.5 131q-8 27 -8 39q0 36 43 36h214q35 0 42 -7t19 -42q10 -29 27.5 -71t37.5 -87t41.5 -89t39.5 -75q40 -70 66.5 -112t47.5 -71q13 11 24.5 26.5t21.5 39.5t18 57t15 78l45 310q5 32 14 37q9 6 42 6h207q46 0 34 -55z" />
<glyph unicode="&#x5e7;" horiz-adv-x="1200" d="M387 725v-1078q0 -56 -57 -56h-172q-54 0 -54 56v1076q0 57 43 57h181q59 0 59 -55zM1100 821q1 -71 -7 -148.5t-23 -154t-37 -147.5t-50 -129q-65 -132 -153 -189.5t-203 -57.5q-67 0 -109 15q-25 10 -20 49l16 125q5 33 39 23q15 -7 39 -7t45.5 8t40 28.5t35.5 56 t32 90.5q23 85 39 185t16 218q0 135 -78 191q-35 25 -92.5 37t-133.5 12q-93 0 -173.5 -13t-152.5 -38q-14 -5 -22.5 -6.5t-10.5 -1.5q-10 2 -20 26l-46 116q-17 42 17 57q31 13 77.5 26.5t105 23.5t127.5 16.5t147 6.5q266 0 395 -78q81 -49 119.5 -133.5t40.5 -206.5z" />
<glyph unicode="&#x5e8;" horiz-adv-x="1035" d="M920 778v-743q0 -35 -31 -35h-227q-31 0 -31 35v753q0 246 -240 246q-122 0 -243 -57q-36 -17 -48 10l-53 119q-10 24 -6 33q2 4 9 8.5t18 11.5q66 38 159 57t218 19q475 0 475 -457z" />
<glyph unicode="&#x5e9;" horiz-adv-x="1486" d="M1384 1142l-69 -496q-11 -77 -27.5 -151.5t-41 -141t-57 -124t-74.5 -100.5q-36 -38 -77 -67t-89 -48.5t-105 -29.5t-125 -10q-134 0 -232.5 28.5t-169 100t-115 193.5t-70.5 310l-76 550q-4 26 8 38.5t37 12.5h195q43 0 49 -47l61 -520q7 -63 12 -98.5t12 -55.5 q25 14 56.5 45t50.5 79q17 43 25.5 114.5t10.5 153.5l5 274q1 28 13 41.5t41 13.5h171q55 0 52 -55l-10 -247q-5 -124 -25.5 -215.5t-65 -157t-116 -109.5t-178.5 -73q8 -20 16.5 -39.5t19.5 -38t26 -35.5t36 -30q18 -12 40 -18.5t44 -10.5t41 -5t32 -1t37 3.5t51 12.5 t55 25t49 42q25 29 45.5 66t37 84t28.5 106.5t21 133.5l60 517q3 23 15 34t37 11h190q52 0 43 -65z" />
<glyph unicode="&#x5ea;" horiz-adv-x="1320" d="M1199 834l6 -787q0 -47 -39 -47h-201q-49 0 -49 49l-8 790q-2 111 -62 160.5t-183 49.5q-19 0 -52 -3t-65 -8l-21 -698q-3 -97 -22.5 -164t-68.5 -113q-27 -26 -63 -45t-78 -31.5t-88.5 -17.5t-94.5 -3q-22 1 -35.5 8t-15.5 26l-13 104q-3 25 4.5 40.5t30.5 14.5 q45 -2 78.5 13.5t50.5 33.5t24 52.5t9 82.5l22 654l-63 -18q-45 -12 -55 16l-35 103q-4 11 -4.5 19t-0.5 15q0 21 33 33q46 16 109 30.5t134 25.5t145 17.5t142 6.5q128 0 218 -20.5t155 -59.5q80 -49 117.5 -130.5t38.5 -198.5z" />
<glyph unicode="&#x5f0;" horiz-adv-x="700" d="M609 712q0 -111 -76.5 -187t-187.5 -76q-108 0 -185 77t-77 186q0 110 77 187t185 77q111 0 187.5 -77t76.5 -187zM536 712q0 82 -55.5 137t-135.5 55t-135 -55t-55 -137q0 -78 55 -134.5t135 -56.5t135.5 56.5t55.5 134.5z" />
<glyph unicode="&#x5f1;" horiz-adv-x="700" d="M609 712q0 -111 -76.5 -187t-187.5 -76q-108 0 -185 77t-77 186q0 110 77 187t185 77q111 0 187.5 -77t76.5 -187zM536 712q0 82 -55.5 137t-135.5 55t-135 -55t-55 -137q0 -78 55 -134.5t135 -56.5t135.5 56.5t55.5 134.5z" />
<glyph unicode="&#x5f2;" horiz-adv-x="700" d="M609 712q0 -111 -76.5 -187t-187.5 -76q-108 0 -185 77t-77 186q0 110 77 187t185 77q111 0 187.5 -77t76.5 -187zM536 712q0 82 -55.5 137t-135.5 55t-135 -55t-55 -137q0 -78 55 -134.5t135 -56.5t135.5 56.5t55.5 134.5z" />
<glyph unicode="&#x5f3;" horiz-adv-x="418" d="M376 1236l-198 -362q-10 -17 -19 -27.5t-29 -10.5h-86q-14 0 -21 11t0 32l117 376q14 47 44 47h172q23 0 30 -17.5t-10 -48.5z" />
<glyph unicode="&#x5f4;" horiz-adv-x="770" d="M376 1236l-198 -362q-10 -17 -19 -27.5t-29 -10.5h-86q-14 0 -21 11t0 32l117 376q14 47 44 47h172q23 0 30 -17.5t-10 -48.5zM726 1236l-198 -362q-10 -17 -19 -27.5t-29 -10.5h-86q-14 0 -21 11t0 32l117 376q14 47 44 47h172q23 0 30 -17.5t-10 -48.5z" />
<glyph unicode="&#x2000;" horiz-adv-x="803" />
<glyph unicode="&#x2001;" horiz-adv-x="1606" />
<glyph unicode="&#x2002;" horiz-adv-x="803" />
<glyph unicode="&#x2003;" horiz-adv-x="1606" />
<glyph unicode="&#x2004;" horiz-adv-x="535" />
<glyph unicode="&#x2005;" horiz-adv-x="401" />
<glyph unicode="&#x2006;" horiz-adv-x="267" />
<glyph unicode="&#x2007;" horiz-adv-x="267" />
<glyph unicode="&#x2008;" horiz-adv-x="200" />
<glyph unicode="&#x2009;" horiz-adv-x="321" />
<glyph unicode="&#x200a;" horiz-adv-x="89" />
<glyph unicode="&#x200c;" d="M657 770q0 -119 -82.5 -202t-203.5 -83q-117 0 -200 84t-83 201q0 119 83 203t200 84q121 0 203.5 -84t82.5 -203zM578 770q0 88 -59.5 148.5t-147.5 60.5q-86 0 -145.5 -60.5t-59.5 -148.5q0 -84 59.5 -145.5t145.5 -61.5q88 0 147.5 61.5t59.5 145.5z" />
<glyph unicode="&#x200d;" d="M657 770q0 -119 -82.5 -202t-203.5 -83q-117 0 -200 84t-83 201q0 119 83 203t200 84q121 0 203.5 -84t82.5 -203zM578 770q0 88 -59.5 148.5t-147.5 60.5q-86 0 -145.5 -60.5t-59.5 -148.5q0 -84 59.5 -145.5t145.5 -61.5q88 0 147.5 61.5t59.5 145.5z" />
<glyph unicode="&#x200e;" d="M657 770q0 -119 -82.5 -202t-203.5 -83q-117 0 -200 84t-83 201q0 119 83 203t200 84q121 0 203.5 -84t82.5 -203zM578 770q0 88 -59.5 148.5t-147.5 60.5q-86 0 -145.5 -60.5t-59.5 -148.5q0 -84 59.5 -145.5t145.5 -61.5q88 0 147.5 61.5t59.5 145.5z" />
<glyph unicode="&#x200f;" d="M657 770q0 -119 -82.5 -202t-203.5 -83q-117 0 -200 84t-83 201q0 119 83 203t200 84q121 0 203.5 -84t82.5 -203zM578 770q0 88 -59.5 148.5t-147.5 60.5q-86 0 -145.5 -60.5t-59.5 -148.5q0 -84 59.5 -145.5t145.5 -61.5q88 0 147.5 61.5t59.5 145.5z" />
<glyph unicode="&#x2010;" horiz-adv-x="823" d="M720 686v-156q0 -24 -24 -24h-569q-25 0 -25 24v156q0 23 25 23h569q24 0 24 -23z" />
<glyph unicode="&#x2011;" horiz-adv-x="823" d="M720 686v-156q0 -24 -24 -24h-569q-25 0 -25 24v156q0 23 25 23h569q24 0 24 -23z" />
<glyph unicode="&#x2012;" horiz-adv-x="823" d="M720 686v-156q0 -24 -24 -24h-569q-25 0 -25 24v156q0 23 25 23h569q24 0 24 -23z" />
<glyph unicode="&#x2013;" horiz-adv-x="823" d="M720 686v-156q0 -24 -24 -24h-569q-25 0 -25 24v156q0 23 25 23h569q24 0 24 -23z" />
<glyph unicode="&#x2014;" horiz-adv-x="1101" d="M1000 686v-156q0 -24 -24 -24h-849q-25 0 -25 24v156q0 23 25 23h849q24 0 24 -23z" />
<glyph unicode="&#x2018;" horiz-adv-x="418" d="M32 902l198 362q10 17 19 27.5t29 10.5h86q14 0 21 -11t0 -32l-117 -376q-14 -47 -44 -47h-172q-23 0 -30 17.5t10 48.5z" />
<glyph unicode="&#x2019;" horiz-adv-x="418" d="M376 1236l-198 -362q-10 -17 -19 -27.5t-29 -10.5h-86q-14 0 -21 11t0 32l117 376q14 47 44 47h172q23 0 30 -17.5t-10 -48.5z" />
<glyph unicode="&#x201c;" horiz-adv-x="770" d="M382 902l198 362q10 17 19 27.5t29 10.5h86q14 0 21 -11t0 -32l-117 -376q-14 -47 -44 -47h-172q-23 0 -30 17.5t10 48.5zM32 902l198 362q10 17 19 27.5t29 10.5h86q14 0 21 -11t0 -32l-117 -376q-14 -47 -44 -47h-172q-23 0 -30 17.5t10 48.5z" />
<glyph unicode="&#x201d;" horiz-adv-x="770" d="M376 1236l-198 -362q-10 -17 -19 -27.5t-29 -10.5h-86q-14 0 -21 11t0 32l117 376q14 47 44 47h172q23 0 30 -17.5t-10 -48.5zM726 1236l-198 -362q-10 -17 -19 -27.5t-29 -10.5h-86q-14 0 -21 11t0 32l117 376q14 47 44 47h172q23 0 30 -17.5t-10 -48.5z" />
<glyph unicode="&#x2022;" horiz-adv-x="612" d="M524 580q0 -91 -62.5 -153t-150.5 -62q-90 0 -152.5 62t-62.5 153q0 90 61.5 151.5t153.5 61.5q90 0 151.5 -61.5t61.5 -151.5z" />
<glyph unicode="&#x202f;" horiz-adv-x="321" />
<glyph unicode="&#x2039;" horiz-adv-x="681" d="M562 -8h-57l-387 473l387 469h57l-244 -469z" />
<glyph unicode="&#x203a;" horiz-adv-x="681" d="M566 463l-395 -471h-57l243 471l-243 471h57z" />
<glyph unicode="&#x205f;" horiz-adv-x="401" />
<glyph unicode="&#x20aa;" horiz-adv-x="1386" d="M944 801l8 -439q1 -23 -4 -35t-27 -12l-116 -1q-23 0 -31.5 8.5t-9.5 37.5l-8 424q-2 70 -50 105t-133 35q-80 0 -148.5 -5t-109.5 -11l-22 -855q-1 -28 -9.5 -40.5t-34.5 -12.5l-110 1q-25 0 -31.5 14t-5.5 43l28 949q1 19 5 31t29 16q72 11 182.5 23.5t250.5 12.5 q168 0 256 -71.5t91 -217.5zM1309 1041l-22 -739q-5 -159 -104.5 -240t-294.5 -81q-57 0 -110.5 1.5t-99 4t-82.5 6.5t-61 9q-47 11 -59 43q-4 12 -9 74l-35 567q-2 29 4 45t36 17l102 2q28 1 35 -13t9 -43l31 -538q6 -2 25.5 -4t48 -3t64.5 -1.5t76 -0.5h27q105 0 159 49 t56 143l17 703q1 52 54 50l90 -2q44 -1 43 -49z" />
<glyph unicode="&#x22c5;" horiz-adv-x="662" d="M565 627q0 -99 -67.5 -165.5t-161.5 -66.5q-98 0 -166 66.5t-68 165.5q0 98 67 164.5t167 66.5q96 0 162.5 -66.5t66.5 -164.5z" />
<glyph unicode="&#x25a0;" d="M657 770q0 -119 -82.5 -202t-203.5 -83q-117 0 -200 84t-83 201q0 119 83 203t200 84q121 0 203.5 -84t82.5 -203zM578 770q0 88 -59.5 148.5t-147.5 60.5q-86 0 -145.5 -60.5t-59.5 -148.5q0 -84 59.5 -145.5t145.5 -61.5q88 0 147.5 61.5t59.5 145.5z" />
<glyph unicode="&#x25a1;" d="M657 770q0 -119 -82.5 -202t-203.5 -83q-117 0 -200 84t-83 201q0 119 83 203t200 84q121 0 203.5 -84t82.5 -203zM578 770q0 88 -59.5 148.5t-147.5 60.5q-86 0 -145.5 -60.5t-59.5 -148.5q0 -84 59.5 -145.5t145.5 -61.5q88 0 147.5 61.5t59.5 145.5z" />
<glyph unicode="&#x25c6;" d="M657 770q0 -119 -82.5 -202t-203.5 -83q-117 0 -200 84t-83 201q0 119 83 203t200 84q121 0 203.5 -84t82.5 -203zM578 770q0 88 -59.5 148.5t-147.5 60.5q-86 0 -145.5 -60.5t-59.5 -148.5q0 -84 59.5 -145.5t145.5 -61.5q88 0 147.5 61.5t59.5 145.5z" />
<glyph unicode="&#x25c7;" d="M657 770q0 -119 -82.5 -202t-203.5 -83q-117 0 -200 84t-83 201q0 119 83 203t200 84q121 0 203.5 -84t82.5 -203zM578 770q0 88 -59.5 148.5t-147.5 60.5q-86 0 -145.5 -60.5t-59.5 -148.5q0 -84 59.5 -145.5t145.5 -61.5q88 0 147.5 61.5t59.5 145.5z" />
<glyph unicode="&#x25cb;" d="M657 770q0 -119 -82.5 -202t-203.5 -83q-117 0 -200 84t-83 201q0 119 83 203t200 84q121 0 203.5 -84t82.5 -203zM578 770q0 88 -59.5 148.5t-147.5 60.5q-86 0 -145.5 -60.5t-59.5 -148.5q0 -84 59.5 -145.5t145.5 -61.5q88 0 147.5 61.5t59.5 145.5z" />
<glyph unicode="&#x25cc;" d="M657 770q0 -119 -82.5 -202t-203.5 -83q-117 0 -200 84t-83 201q0 119 83 203t200 84q121 0 203.5 -84t82.5 -203zM578 770q0 88 -59.5 148.5t-147.5 60.5q-86 0 -145.5 -60.5t-59.5 -148.5q0 -84 59.5 -145.5t145.5 -61.5q88 0 147.5 61.5t59.5 145.5z" />
<glyph unicode="&#x25fc;" horiz-adv-x="500" d="M0 0v0v0v0v0z" />
<glyph unicode="&#x2605;" d="M657 770q0 -119 -82.5 -202t-203.5 -83q-117 0 -200 84t-83 201q0 119 83 203t200 84q121 0 203.5 -84t82.5 -203zM578 770q0 88 -59.5 148.5t-147.5 60.5q-86 0 -145.5 -60.5t-59.5 -148.5q0 -84 59.5 -145.5t145.5 -61.5q88 0 147.5 61.5t59.5 145.5z" />
<glyph unicode="&#x274f;" d="M657 770q0 -119 -82.5 -202t-203.5 -83q-117 0 -200 84t-83 201q0 119 83 203t200 84q121 0 203.5 -84t82.5 -203zM578 770q0 88 -59.5 148.5t-147.5 60.5q-86 0 -145.5 -60.5t-59.5 -148.5q0 -84 59.5 -145.5t145.5 -61.5q88 0 147.5 61.5t59.5 145.5z" />
<glyph unicode="&#xe802;" horiz-adv-x="1046" d="M931 778v-1152q0 -35 -30 -35h-228q-30 0 -30 35v1162q0 246 -240 246q-119 0 -235 -55q-36 -17 -48 10l-53 119q-10 24 -6 33q2 4 9 8.5t18 11.5q27 16 65.5 29.5t86 23.5t102 15.5t114.5 5.5q475 0 475 -457zM411 415q0 -35 -25.5 -60.5t-60.5 -25.5q-36 0 -62 25.5 t-26 60.5t27 59.5t61 24.5q37 0 61.5 -24.5t24.5 -59.5zM411 146q0 -34 -25.5 -60t-60.5 -26q-36 0 -62 26t-26 60q0 35 27 59.5t61 24.5q37 0 61.5 -24.5t24.5 -59.5z" />
<glyph unicode="&#xe803;" horiz-adv-x="1046" d="M931 778v-1152q0 -35 -30 -35h-228q-30 0 -30 35v1162q0 246 -240 246q-119 0 -235 -55q-36 -17 -48 10l-53 119q-10 24 -6 33q2 4 9 8.5t18 11.5q27 16 65.5 29.5t86 23.5t102 15.5t114.5 5.5q475 0 475 -457zM133 445h383q26 0 26 -30v-66q0 -31 -26 -31h-158 q0 -47 18 -88l23 -51q8 -16 8 -35q0 -35 -24.5 -58.5t-57.5 -23.5q-34 0 -58.5 24.5t-24.5 57.5q0 19 8 35l22 51q21 45 21 88h-160q-27 0 -27 31v66q0 30 27 30z" />
<glyph unicode="&#xe804;" horiz-adv-x="1081" d="M973 1143l-66 -603q-6 -55 -20 -108.5t-35 -102.5t-48.5 -93t-60.5 -80q-150 -162 -409 -182q-15 -1 -25 -0.5t-16 4t-9.5 10.5t-5.5 20l-20 119q-5 28 0 39q5 9 35 12q289 30 315 295l50 523h-552q-51 0 -51 50v504q0 36 7.5 46t37.5 10h193q43 0 43 -43v-356h584 q61 0 53 -64zM-5 1470q0 -35 -25.5 -60.5t-60.5 -25.5q-34 0 -60 25.5t-26 60.5q0 33 26 58.5t60 25.5q39 0 62.5 -23.5t23.5 -60.5z" />
<glyph unicode="&#xe805;" horiz-adv-x="1081" d="M973 1143l-66 -603q-6 -55 -20 -108.5t-35 -102.5t-48.5 -93t-60.5 -80q-150 -162 -409 -182q-15 -1 -25 -0.5t-16 4t-9.5 10.5t-5.5 20l-20 119q-5 28 0 39q5 9 35 12q289 30 315 295l50 523h-552q-51 0 -51 50v504q0 36 7.5 46t37.5 10h193q43 0 43 -43v-356h584 q61 0 53 -64zM380 617q0 -35 -25.5 -60.5t-60.5 -25.5t-60.5 25.5t-25.5 60.5q0 33 27 58.5t59 25.5q37 0 61.5 -23.5t24.5 -60.5zM-5 1470q0 -35 -25.5 -60.5t-60.5 -25.5q-34 0 -60 25.5t-26 60.5q0 33 26 58.5t60 25.5q39 0 62.5 -23.5t23.5 -60.5z" />
<glyph unicode="&#xfb1d;" horiz-adv-x="700" d="M609 712q0 -111 -76.5 -187t-187.5 -76q-108 0 -185 77t-77 186q0 110 77 187t185 77q111 0 187.5 -77t76.5 -187zM536 712q0 82 -55.5 137t-135.5 55t-135 -55t-55 -137q0 -78 55 -134.5t135 -56.5t135.5 56.5t55.5 134.5z" />
<glyph unicode="&#xfb1e;" horiz-adv-x="700" d="M609 712q0 -111 -76.5 -187t-187.5 -76q-108 0 -185 77t-77 186q0 110 77 187t185 77q111 0 187.5 -77t76.5 -187zM536 712q0 82 -55.5 137t-135.5 55t-135 -55t-55 -137q0 -78 55 -134.5t135 -56.5t135.5 56.5t55.5 134.5z" />
<glyph unicode="&#xfb1f;" horiz-adv-x="700" d="M609 712q0 -111 -76.5 -187t-187.5 -76q-108 0 -185 77t-77 186q0 110 77 187t185 77q111 0 187.5 -77t76.5 -187zM536 712q0 82 -55.5 137t-135.5 55t-135 -55t-55 -137q0 -78 55 -134.5t135 -56.5t135.5 56.5t55.5 134.5z" />
<glyph unicode="&#xfb20;" horiz-adv-x="700" d="M609 712q0 -111 -76.5 -187t-187.5 -76q-108 0 -185 77t-77 186q0 110 77 187t185 77q111 0 187.5 -77t76.5 -187zM536 712q0 82 -55.5 137t-135.5 55t-135 -55t-55 -137q0 -78 55 -134.5t135 -56.5t135.5 56.5t55.5 134.5z" />
<glyph unicode="&#xfb21;" horiz-adv-x="700" d="M609 712q0 -111 -76.5 -187t-187.5 -76q-108 0 -185 77t-77 186q0 110 77 187t185 77q111 0 187.5 -77t76.5 -187zM536 712q0 82 -55.5 137t-135.5 55t-135 -55t-55 -137q0 -78 55 -134.5t135 -56.5t135.5 56.5t55.5 134.5z" />
<glyph unicode="&#xfb22;" horiz-adv-x="700" d="M609 712q0 -111 -76.5 -187t-187.5 -76q-108 0 -185 77t-77 186q0 110 77 187t185 77q111 0 187.5 -77t76.5 -187zM536 712q0 82 -55.5 137t-135.5 55t-135 -55t-55 -137q0 -78 55 -134.5t135 -56.5t135.5 56.5t55.5 134.5z" />
<glyph unicode="&#xfb23;" horiz-adv-x="700" d="M609 712q0 -111 -76.5 -187t-187.5 -76q-108 0 -185 77t-77 186q0 110 77 187t185 77q111 0 187.5 -77t76.5 -187zM536 712q0 82 -55.5 137t-135.5 55t-135 -55t-55 -137q0 -78 55 -134.5t135 -56.5t135.5 56.5t55.5 134.5z" />
<glyph unicode="&#xfb24;" horiz-adv-x="700" d="M609 712q0 -111 -76.5 -187t-187.5 -76q-108 0 -185 77t-77 186q0 110 77 187t185 77q111 0 187.5 -77t76.5 -187zM536 712q0 82 -55.5 137t-135.5 55t-135 -55t-55 -137q0 -78 55 -134.5t135 -56.5t135.5 56.5t55.5 134.5z" />
<glyph unicode="&#xfb25;" horiz-adv-x="700" d="M609 712q0 -111 -76.5 -187t-187.5 -76q-108 0 -185 77t-77 186q0 110 77 187t185 77q111 0 187.5 -77t76.5 -187zM536 712q0 82 -55.5 137t-135.5 55t-135 -55t-55 -137q0 -78 55 -134.5t135 -56.5t135.5 56.5t55.5 134.5z" />
<glyph unicode="&#xfb26;" horiz-adv-x="700" d="M609 712q0 -111 -76.5 -187t-187.5 -76q-108 0 -185 77t-77 186q0 110 77 187t185 77q111 0 187.5 -77t76.5 -187zM536 712q0 82 -55.5 137t-135.5 55t-135 -55t-55 -137q0 -78 55 -134.5t135 -56.5t135.5 56.5t55.5 134.5z" />
<glyph unicode="&#xfb27;" horiz-adv-x="700" d="M609 712q0 -111 -76.5 -187t-187.5 -76q-108 0 -185 77t-77 186q0 110 77 187t185 77q111 0 187.5 -77t76.5 -187zM536 712q0 82 -55.5 137t-135.5 55t-135 -55t-55 -137q0 -78 55 -134.5t135 -56.5t135.5 56.5t55.5 134.5z" />
<glyph unicode="&#xfb28;" horiz-adv-x="700" d="M609 712q0 -111 -76.5 -187t-187.5 -76q-108 0 -185 77t-77 186q0 110 77 187t185 77q111 0 187.5 -77t76.5 -187zM536 712q0 82 -55.5 137t-135.5 55t-135 -55t-55 -137q0 -78 55 -134.5t135 -56.5t135.5 56.5t55.5 134.5z" />
<glyph unicode="&#xfb29;" horiz-adv-x="823" d="M781 686v-156q0 -24 -24 -24h-692q-25 0 -25 24v156q0 23 25 23h239v247q0 25 27 25h164q24 0 24 -25v-247h238q24 0 24 -23z" />
<glyph unicode="&#xfb2a;" horiz-adv-x="1486" d="M1384 1142l-69 -496q-11 -77 -27.5 -151.5t-41 -141t-57 -124t-74.5 -100.5q-36 -38 -77 -67t-89 -48.5t-105 -29.5t-125 -10q-134 0 -232.5 28.5t-169 100t-115 193.5t-70.5 310l-76 550q-4 26 8 38.5t37 12.5h195q43 0 49 -47l61 -520q7 -63 12 -98.5t12 -55.5 q25 14 56.5 45t50.5 79q17 43 25.5 114.5t10.5 153.5l5 274q1 28 13 41.5t41 13.5h171q55 0 52 -55l-10 -247q-5 -124 -25.5 -215.5t-65 -157t-116 -109.5t-178.5 -73q8 -20 16.5 -39.5t19.5 -38t26 -35.5t36 -30q18 -12 40 -18.5t44 -10.5t41 -5t32 -1t37 3.5t51 12.5 t55 25t49 42q25 29 45.5 66t37 84t28.5 106.5t21 133.5l60 517q3 23 15 34t37 11h190q52 0 43 -65zM1274 1470q0 -35 -25.5 -60.5t-60.5 -25.5q-34 0 -60 25.5t-26 60.5q0 33 26 58.5t60 25.5q39 0 62.5 -23.5t23.5 -60.5z" />
<glyph unicode="&#xfb2b;" horiz-adv-x="1486" d="M1384 1142l-69 -496q-11 -77 -27.5 -151.5t-41 -141t-57 -124t-74.5 -100.5q-36 -38 -77 -67t-89 -48.5t-105 -29.5t-125 -10q-134 0 -232.5 28.5t-169 100t-115 193.5t-70.5 310l-76 550q-4 26 8 38.5t37 12.5h195q43 0 49 -47l61 -520q7 -63 12 -98.5t12 -55.5 q25 14 56.5 45t50.5 79q17 43 25.5 114.5t10.5 153.5l5 274q1 28 13 41.5t41 13.5h171q55 0 52 -55l-10 -247q-5 -124 -25.5 -215.5t-65 -157t-116 -109.5t-178.5 -73q8 -20 16.5 -39.5t19.5 -38t26 -35.5t36 -30q18 -12 40 -18.5t44 -10.5t41 -5t32 -1t37 3.5t51 12.5 t55 25t49 42q25 29 45.5 66t37 84t28.5 106.5t21 133.5l60 517q3 23 15 34t37 11h190q52 0 43 -65zM334 1470q0 -35 -25.5 -60.5t-60.5 -25.5q-34 0 -60 25.5t-26 60.5q0 33 26 58.5t60 25.5q39 0 62.5 -23.5t23.5 -60.5z" />
<glyph unicode="&#xfb2c;" horiz-adv-x="1486" d="M1384 1142l-69 -496q-11 -77 -27.5 -151.5t-41 -141t-57 -124t-74.5 -100.5q-36 -38 -77 -67t-89 -48.5t-105 -29.5t-125 -10q-134 0 -232.5 28.5t-169 100t-115 193.5t-70.5 310l-76 550q-4 26 8 38.5t37 12.5h195q43 0 49 -47l61 -520q7 -63 12 -98.5t12 -55.5 q25 14 56.5 45t50.5 79q17 43 25.5 114.5t10.5 153.5l5 274q1 28 13 41.5t41 13.5h171q55 0 52 -55l-10 -247q-5 -124 -25.5 -215.5t-65 -157t-116 -109.5t-178.5 -73q8 -20 16.5 -39.5t19.5 -38t26 -35.5t36 -30q18 -12 40 -18.5t44 -10.5t41 -5t32 -1t37 3.5t51 12.5 t55 25t49 42q25 29 45.5 66t37 84t28.5 106.5t21 133.5l60 517q3 23 15 34t37 11h190q52 0 43 -65zM1000 637q0 -35 -25.5 -60.5t-60.5 -25.5t-60.5 25.5t-25.5 60.5q0 33 27 58.5t59 25.5q37 0 61.5 -23.5t24.5 -60.5zM1274 1470q0 -35 -25.5 -60.5t-60.5 -25.5 q-34 0 -60 25.5t-26 60.5q0 33 26 58.5t60 25.5q39 0 62.5 -23.5t23.5 -60.5z" />
<glyph unicode="&#xfb2d;" horiz-adv-x="1486" d="M1384 1142l-69 -496q-11 -77 -27.5 -151.5t-41 -141t-57 -124t-74.5 -100.5q-36 -38 -77 -67t-89 -48.5t-105 -29.5t-125 -10q-134 0 -232.5 28.5t-169 100t-115 193.5t-70.5 310l-76 550q-4 26 8 38.5t37 12.5h195q43 0 49 -47l61 -520q7 -63 12 -98.5t12 -55.5 q25 14 56.5 45t50.5 79q17 43 25.5 114.5t10.5 153.5l5 274q1 28 13 41.5t41 13.5h171q55 0 52 -55l-10 -247q-5 -124 -25.5 -215.5t-65 -157t-116 -109.5t-178.5 -73q8 -20 16.5 -39.5t19.5 -38t26 -35.5t36 -30q18 -12 40 -18.5t44 -10.5t41 -5t32 -1t37 3.5t51 12.5 t55 25t49 42q25 29 45.5 66t37 84t28.5 106.5t21 133.5l60 517q3 23 15 34t37 11h190q52 0 43 -65zM1000 637q0 -35 -25.5 -60.5t-60.5 -25.5t-60.5 25.5t-25.5 60.5q0 33 27 58.5t59 25.5q37 0 61.5 -23.5t24.5 -60.5zM334 1470q0 -35 -25.5 -60.5t-60.5 -25.5 q-34 0 -60 25.5t-26 60.5q0 33 26 58.5t60 25.5q39 0 62.5 -23.5t23.5 -60.5z" />
<glyph unicode="&#xfb31;" horiz-adv-x="1061" d="M991 168v-129q0 -39 -45 -39h-840q-39 0 -39 43v123q0 45 50 45h481v577q0 132 -78 195q-63 51 -164 51q-98 0 -194 -45q-36 -17 -48 10l-53 119q-10 24 -6 33q5 8 27 20q47 24 137.5 44t210.5 20q232 0 350 -121q107 -110 107 -295v-608h55q49 0 49 -43zM380 617 q0 -35 -25.5 -60.5t-60.5 -25.5t-60.5 25.5t-25.5 60.5q0 33 27 58.5t59 25.5q37 0 61.5 -23.5t24.5 -60.5z" />
<glyph unicode="&#xfb32;" horiz-adv-x="877" d="M788 84q10 -21 2.5 -35.5t-27.5 -21.5l-156 -51q-17 -6 -29.5 0.5t-23.5 23.5q-8 13 -19 36t-23 53t-23.5 65.5t-20.5 71.5q-23 -37 -60 -79t-76 -77q-23 -20 -48 -38.5t-49.5 -33t-47.5 -24t-41 -12.5q-25 -4 -37 4t-17 27l-39 143q-8 28 0 44t27 23q58 22 113.5 56.5 t100.5 71t77 69t44 50.5l-49 381q-6 47 -23 83t-42.5 59t-59 31.5t-71.5 1.5q-21 -4 -29.5 2t-9.5 17t0 33l15 124q3 21 22 27t44 8q91 9 164.5 -4.5t127.5 -54t88.5 -112.5t48.5 -180l57 -452q16 -124 43.5 -207t46.5 -123zM290 617q0 -35 -25.5 -60.5t-60.5 -25.5 t-60.5 25.5t-25.5 60.5q0 33 27 58.5t59 25.5q37 0 61.5 -23.5t24.5 -60.5z" />
<glyph unicode="&#xfb33;" horiz-adv-x="1125" d="M1020 1164v-129q0 -39 -45 -39h-110v-955q0 -41 -39 -41h-219q-35 0 -35 45v951h-467q-39 0 -39 43v123q0 45 49 45h856q49 0 49 -43zM380 617q0 -35 -25.5 -60.5t-60.5 -25.5t-60.5 25.5t-25.5 60.5q0 33 27 58.5t59 25.5q37 0 61.5 -23.5t24.5 -60.5z" />
<glyph unicode="&#xfb34;" horiz-adv-x="1165" d="M408 700l-15 -649q-2 -51 -55 -51h-183q-28 0 -39.5 9t-9.5 42l20 649q1 52 53 52h176q53 0 53 -52zM1050 792v-749q0 -43 -41 -43h-198q-49 0 -49 47v723q0 34 -2.5 64.5t-10 57t-22.5 49t-39 39.5q-39 27 -91 38.5t-114 11.5q-57 0 -132.5 -12.5t-150.5 -45.5 q-14 -9 -23 -9q-19 0 -34 33l-47 103q-19 38 23 59q31 16 76 31t99.5 27t116 19.5t125.5 7.5q131 0 232 -25t170 -86q34 -30 56 -66.5t34.5 -79.5t17 -91.5t4.5 -102.5zM660 617q0 -35 -25.5 -60.5t-60.5 -25.5t-60.5 25.5t-25.5 60.5q0 33 27 58.5t59 25.5q37 0 61.5 -23.5 t24.5 -60.5z" />
<glyph unicode="&#xfb35;" horiz-adv-x="541" d="M411 1156v-1105q0 -51 -47 -51h-195q-49 0 -49 51v1105q0 51 53 51h193q45 0 45 -51zM80 617q0 -35 -25.5 -60.5t-60.5 -25.5t-60.5 25.5t-25.5 60.5q0 33 27 58.5t59 25.5q37 0 61.5 -23.5t24.5 -60.5z" />
<glyph unicode="&#xfb36;" horiz-adv-x="773" d="M653 1179l28 -110q9 -32 -19 -45q-31 -14 -51 -23t-33 -18t-21 -19.5t-15 -26.5q-20 -51 -20 -187v-697q0 -53 -43 -53h-197q-32 0 -39.5 11.5t-7.5 41.5v468q0 93 2.5 158.5t16.5 114.5q17 58 51.5 105.5t79.5 81.5q-14 -2 -27.5 -3t-39.5 -1q-68 0 -128.5 11.5 t-99.5 28.5q-22 10 -29 20q-3 8 4 33l43 142q6 21 41 12q76 -18 137 -30t107 -12q63 0 117 8t102 19q14 4 25 -3.5t16 -26.5zM180 617q0 -35 -25.5 -60.5t-60.5 -25.5t-60.5 25.5t-25.5 60.5q0 33 27 58.5t59 25.5q37 0 61.5 -23.5t24.5 -60.5z" />
<glyph unicode="&#xfb38;" horiz-adv-x="1234" d="M1137 726q-3 -79 -11 -156.5t-23 -149t-37.5 -133.5t-52.5 -110q-41 -65 -90 -104.5t-101.5 -61t-106.5 -28.5t-105 -7q-96 0 -178 20.5t-145 75t-103.5 151t-52.5 249.5l-56 685q-2 28 10.5 39t36.5 11h193q52 0 55 -47l54 -726q6 -81 23.5 -131.5t42 -79t54 -39 t60.5 -10.5q22 0 46.5 5t47.5 19t44.5 40t39.5 68q26 62 39.5 155.5t18.5 208.5q4 95 -1.5 160.5t-22 106.5t-44 59t-67.5 18q-17 0 -33.5 -7.5t-39.5 -23.5q-32 -23 -45 12l-51 130q-11 30 14 49q13 9 35.5 19.5t50 18.5t59.5 13.5t65 5.5q98 0 171 -26t120 -85 t68.5 -155.5t17.5 -238.5zM700 617q0 -35 -25.5 -60.5t-60.5 -25.5t-60.5 25.5t-25.5 60.5q0 33 27 58.5t59 25.5q37 0 61.5 -23.5t24.5 -60.5z" />
<glyph unicode="&#xfb39;" horiz-adv-x="519" d="M399 1166v-539q0 -48 -45 -70l-195 -100q-8 -4 -18 -4q-31 0 -31 34v669q0 15 1.5 25t7 16t16 8t28.5 2h193q43 0 43 -41zM70 857q0 -35 -25.5 -60.5t-60.5 -25.5t-60.5 25.5t-25.5 60.5q0 33 27 58.5t59 25.5q37 0 61.5 -23.5t24.5 -60.5z" />
<glyph unicode="&#xfb3a;" horiz-adv-x="1046" d="M931 778v-1152q0 -35 -30 -35h-228q-30 0 -30 35v1162q0 246 -240 246q-119 0 -235 -55q-36 -17 -48 10l-53 119q-10 24 -6 33q2 4 9 8.5t18 11.5q27 16 65.5 29.5t86 23.5t102 15.5t114.5 5.5q475 0 475 -457zM420 567q0 -35 -25.5 -60.5t-60.5 -25.5t-60.5 25.5 t-25.5 60.5q0 33 27 58.5t59 25.5q37 0 61.5 -23.5t24.5 -60.5z" />
<glyph unicode="&#xfb3b;" horiz-adv-x="1001" d="M921 618q0 -157 -37.5 -279.5t-117.5 -210.5q-72 -78 -164.5 -115t-201.5 -37q-178 0 -288 49q-37 16 -37 38q0 2 0.5 5t1.5 8l33 112q10 37 37 37q9 0 16 -4q94 -39 180 -39q63 0 116.5 22.5t91.5 69.5q46 55 65.5 138.5t19.5 195.5q0 98 -19.5 176.5t-57.5 133.5 q-38 56 -89 81t-115 25q-78 0 -163 -43q-30 -14 -43 -14q-21 0 -33 20l-60 105q-9 16 -5.5 27t20.5 25q20 16 53 32t74 28t89 19.5t99 7.5q253 0 394 -157q141 -158 141 -456zM380 617q0 -35 -25.5 -60.5t-60.5 -25.5t-60.5 25.5t-25.5 60.5q0 33 27 58.5t59 25.5 q37 0 61.5 -23.5t24.5 -60.5z" />
<glyph unicode="&#xfb3c;" horiz-adv-x="1081" d="M973 1143l-66 -603q-6 -55 -20 -108.5t-35 -102.5t-48.5 -93t-60.5 -80q-150 -162 -409 -182q-15 -1 -25 -0.5t-16 4t-9.5 10.5t-5.5 20l-20 119q-5 28 0 39q5 9 35 12q289 30 315 295l50 523h-552q-51 0 -51 50v504q0 36 7.5 46t37.5 10h193q43 0 43 -43v-356h584 q61 0 53 -64zM380 617q0 -35 -25.5 -60.5t-60.5 -25.5t-60.5 25.5t-25.5 60.5q0 33 27 58.5t59 25.5q37 0 61.5 -23.5t24.5 -60.5z" />
<glyph unicode="&#xfb3e;" horiz-adv-x="1255" d="M1131 827l16 -351q1 -34 3 -73t0.5 -79t-7 -78.5t-18.5 -70.5q-42 -104 -135.5 -153.5t-235.5 -49.5q-67 0 -123.5 11t-88.5 22q-23 8 -26.5 18t2.5 33l33 121q5 17 17.5 26t29.5 1q36 -16 65 -22.5t48 -6.5q45 0 76 15t50 41.5t27 63t6 79.5l-20 445q-2 53 -16 89 t-36.5 57.5t-51.5 30t-62 8.5q-42 -1 -98 -29.5t-114 -78.5l-109 -851q-3 -23 -10.5 -34t-30.5 -11h-221q-20 0 -25 10t0 39l118 777q2 11 3.5 22t1.5 21q0 60 -22.5 103t-76.5 78q-18 12 -27.5 20t-9.5 15q0 11 10 30l51 97q11 20 28 24t46 -4q68 -19 130 -58t99 -89 q50 42 97 69t90.5 43t85 22t81.5 6q74 0 136.5 -21.5t108 -69t73 -123t32.5 -184.5zM730 597q0 -35 -25.5 -60.5t-60.5 -25.5t-60.5 25.5t-25.5 60.5q0 33 27 58.5t59 25.5q37 0 61.5 -23.5t24.5 -60.5z" />
<glyph unicode="&#xfb40;" horiz-adv-x="755" d="M640 776v-727q0 -49 -39 -49h-502q-39 0 -39 43v123q0 45 39 45h252v572q0 75 -18 121.5t-47.5 71t-65.5 31t-72 1.5q-13 -2 -20.5 1t-11 9t-4.5 14.5t0 19.5l10 123q2 21 13.5 28t34.5 12q52 10 104.5 8.5t101.5 -15t92.5 -40t77.5 -67.5q46 -54 70 -134.5t24 -190.5z M260 617q0 -35 -25.5 -60.5t-60.5 -25.5t-60.5 25.5t-25.5 60.5q0 33 27 58.5t59 25.5q37 0 61.5 -23.5t24.5 -60.5z" />
<glyph unicode="&#xfb41;" horiz-adv-x="1225" d="M839 680q4 115 -10.5 186t-47 110t-83.5 52.5t-120 13.5q-66 0 -120.5 -8t-80.5 -16l32 -498q7 -105 24 -172.5t44.5 -106.5t64.5 -54t84 -15q21 0 45 8t47 25t43.5 43.5t32.5 64.5q10 32 18 74t13 90t8.5 100t5.5 103zM1134 694q-2 -73 -7.5 -141.5t-17.5 -133.5 t-33 -126t-55 -118q-36 -61 -85.5 -100.5t-102 -63t-104.5 -32.5t-94 -9q-56 0 -110 6t-103 20.5t-90 39t-72 61.5q-58 70 -90 169.5t-42 239.5l-35 495l-39 77q-6 12 -9.5 19.5t-3.5 16.5q0 13 4.5 19t18.5 13q40 20 101 37.5t131 31t143 21t138 7.5q72 0 137.5 -5.5 t122 -18.5t102.5 -35.5t80 -55.5q70 -69 95 -177t20 -257zM700 637q0 -35 -25.5 -60.5t-60.5 -25.5t-60.5 25.5t-25.5 60.5q0 33 27 58.5t59 25.5q37 0 61.5 -23.5t24.5 -60.5z" />
<glyph unicode="&#xfb43;" horiz-adv-x="1161" d="M1046 778v-1152q0 -35 -30 -35h-224q-30 0 -30 35v1162q0 124 -57 186t-181 62q-16 0 -34 -1t-35.5 -3t-33 -4.5t-26.5 -5.5v-248q0 -104 80 -104q12 0 25.5 2.5t27.5 7.5q27 9 35 -27l21 -90q7 -32 -17 -45q-77 -45 -192 -45q-262 0 -262 272v251l-40 73q-14 26 -14 39 q0 12 6.5 19.5t23.5 16.5q30 16 77.5 32.5t106.5 29.5t128 21t142 8q121 0 225 -26.5t171 -88.5q32 -30 52.5 -67.5t32.5 -81t17 -92t5 -101.5zM650 837q0 -35 -25.5 -60.5t-60.5 -25.5t-60.5 25.5t-25.5 60.5q0 33 27 58.5t59 25.5q37 0 61.5 -23.5t24.5 -60.5z" />
<glyph unicode="&#xfb44;" horiz-adv-x="1194" d="M1099 606q0 -160 -36.5 -277.5t-115.5 -202.5t-186 -121.5t-240 -36.5q-273 0 -399 98q-35 26 -17 61l56 106q12 21 26 21t39 -16q109 -70 256 -70q326 0 326 438q0 224 -68.5 336.5t-216.5 112.5q-13 0 -29 -1.5t-32 -4t-31 -6t-25 -7.5v-254q0 -104 80 -104 q11 0 19 2.5t22 7.5q28 7 35 -26l21 -91q7 -30 -17 -45q-38 -23 -88 -34t-109 -11q-133 0 -192 68t-59 205v245l-37 59q-8 12 -16 27t-8 22q0 12 6.5 19t23.5 17q34 19 86.5 37.5t115.5 32t134.5 22t143.5 8.5q161 0 271 -54.5t174 -164.5q46 -78 66.5 -181.5t20.5 -236.5z M650 837q0 -35 -25.5 -60.5t-60.5 -25.5t-60.5 25.5t-25.5 60.5q0 33 27 58.5t59 25.5q37 0 61.5 -23.5t24.5 -60.5z" />
<glyph unicode="&#xfb46;" horiz-adv-x="1154" d="M1042 1152l-71 -331q-23 -104 -85.5 -174.5t-164.5 -124.5q13 -17 39.5 -51.5t61 -78.5t73 -92t76.5 -91q14 -15 21 -26.5t7 -35.5v-94q0 -53 -38 -53h-812q-36 0 -36 39v133q0 39 41 39h454q-39 47 -80.5 100.5t-81 107.5t-76 106.5t-65.5 98.5q-34 54 -70.5 116 t-70.5 128t-63.5 133t-49.5 131q-8 27 -8 39q0 36 43 36h214q35 0 42 -7t19 -42q10 -29 27.5 -71t37.5 -87t41.5 -89t39.5 -75q40 -70 66.5 -112t47.5 -71q13 11 24.5 26.5t21.5 39.5t18 57t15 78l45 310q5 32 14 37q9 6 42 6h207q46 0 34 -55zM260 557q0 -35 -25.5 -60.5 t-60.5 -25.5t-60.5 25.5t-25.5 60.5q0 33 27 58.5t59 25.5q37 0 61.5 -23.5t24.5 -60.5z" />
<glyph unicode="&#xfb47;" horiz-adv-x="1200" d="M387 725v-1078q0 -56 -57 -56h-172q-54 0 -54 56v1076q0 57 43 57h181q59 0 59 -55zM1100 821q1 -71 -7 -148.5t-23 -154t-37 -147.5t-50 -129q-65 -132 -153 -189.5t-203 -57.5q-67 0 -109 15q-25 10 -20 49l16 125q5 33 39 23q15 -7 39 -7t45.5 8t40 28.5t35.5 56 t32 90.5q23 85 39 185t16 218q0 135 -78 191q-35 25 -92.5 37t-133.5 12q-93 0 -173.5 -13t-152.5 -38q-14 -5 -22.5 -6.5t-10.5 -1.5q-10 2 -20 26l-46 116q-17 42 17 57q31 13 77.5 26.5t105 23.5t127.5 16.5t147 6.5q266 0 395 -78q81 -49 119.5 -133.5t40.5 -206.5z M660 657q0 -35 -25.5 -60.5t-60.5 -25.5t-60.5 25.5t-25.5 60.5q0 33 27 58.5t59 25.5q37 0 61.5 -23.5t24.5 -60.5z" />
<glyph unicode="&#xfb48;" horiz-adv-x="1035" d="M920 778v-743q0 -35 -31 -35h-227q-31 0 -31 35v753q0 246 -240 246q-122 0 -243 -57q-36 -17 -48 10l-53 119q-10 24 -6 33q2 4 9 8.5t18 11.5q66 38 159 57t218 19q475 0 475 -457zM420 557q0 -35 -25.5 -60.5t-60.5 -25.5t-60.5 25.5t-25.5 60.5q0 33 27 58.5t59 25.5 q37 0 61.5 -23.5t24.5 -60.5z" />
<glyph unicode="&#xfb49;" horiz-adv-x="1486" d="M1384 1142l-69 -496q-11 -77 -27.5 -151.5t-41 -141t-57 -124t-74.5 -100.5q-36 -38 -77 -67t-89 -48.5t-105 -29.5t-125 -10q-134 0 -232.5 28.5t-169 100t-115 193.5t-70.5 310l-76 550q-4 26 8 38.5t37 12.5h195q43 0 49 -47l61 -520q7 -63 12 -98.5t12 -55.5 q25 14 56.5 45t50.5 79q17 43 25.5 114.5t10.5 153.5l5 274q1 28 13 41.5t41 13.5h171q55 0 52 -55l-10 -247q-5 -124 -25.5 -215.5t-65 -157t-116 -109.5t-178.5 -73q8 -20 16.5 -39.5t19.5 -38t26 -35.5t36 -30q18 -12 40 -18.5t44 -10.5t41 -5t32 -1t37 3.5t51 12.5 t55 25t49 42q25 29 45.5 66t37 84t28.5 106.5t21 133.5l60 517q3 23 15 34t37 11h190q52 0 43 -65zM1000 637q0 -35 -25.5 -60.5t-60.5 -25.5t-60.5 25.5t-25.5 60.5q0 33 27 58.5t59 25.5q37 0 61.5 -23.5t24.5 -60.5z" />
<glyph unicode="&#xfb4a;" horiz-adv-x="1320" d="M1199 834l6 -787q0 -47 -39 -47h-201q-49 0 -49 49l-8 790q-2 111 -62 160.5t-183 49.5q-19 0 -52 -3t-65 -8l-21 -698q-3 -97 -22.5 -164t-68.5 -113q-27 -26 -63 -45t-78 -31.5t-88.5 -17.5t-94.5 -3q-22 1 -35.5 8t-15.5 26l-13 104q-3 25 4.5 40.5t30.5 14.5 q45 -2 78.5 13.5t50.5 33.5t24 52.5t9 82.5l22 654l-63 -18q-45 -12 -55 16l-35 103q-4 11 -4.5 19t-0.5 15q0 21 33 33q46 16 109 30.5t134 25.5t145 17.5t142 6.5q128 0 218 -20.5t155 -59.5q80 -49 117.5 -130.5t38.5 -198.5zM799 616q0 -35 -25.5 -60.5t-60.5 -25.5 t-60.5 25.5t-25.5 60.5q0 33 27 58.5t59 25.5q37 0 61.5 -23.5t24.5 -60.5z" />
<glyph unicode="&#xfb4b;" horiz-adv-x="541" d="M411 1156v-1105q0 -51 -47 -51h-195q-49 0 -49 51v1105q0 51 53 51h193q45 0 45 -51zM345 1470q0 -35 -25.5 -60.5t-60.5 -25.5q-34 0 -60 25.5t-26 60.5q0 33 26 58.5t60 25.5q39 0 62.5 -23.5t23.5 -60.5z" />
<glyph horiz-adv-x="0" />
<glyph horiz-adv-x="700" d="M609 712q0 -111 -76.5 -187t-187.5 -76q-108 0 -185 77t-77 186q0 110 77 187t185 77q111 0 187.5 -77t76.5 -187zM536 712q0 82 -55.5 137t-135.5 55t-135 -55t-55 -137q0 -78 55 -134.5t135 -56.5t135.5 56.5t55.5 134.5z" />
<glyph horiz-adv-x="700" d="M609 712q0 -111 -76.5 -187t-187.5 -76q-108 0 -185 77t-77 186q0 110 77 187t185 77q111 0 187.5 -77t76.5 -187zM536 712q0 82 -55.5 137t-135.5 55t-135 -55t-55 -137q0 -78 55 -134.5t135 -56.5t135.5 56.5t55.5 134.5z" />
<glyph horiz-adv-x="700" d="M609 712q0 -111 -76.5 -187t-187.5 -76q-108 0 -185 77t-77 186q0 110 77 187t185 77q111 0 187.5 -77t76.5 -187zM536 712q0 82 -55.5 137t-135.5 55t-135 -55t-55 -137q0 -78 55 -134.5t135 -56.5t135.5 56.5t55.5 134.5z" />
<glyph horiz-adv-x="700" d="M609 712q0 -111 -76.5 -187t-187.5 -76q-108 0 -185 77t-77 186q0 110 77 187t185 77q111 0 187.5 -77t76.5 -187zM536 712q0 82 -55.5 137t-135.5 55t-135 -55t-55 -137q0 -78 55 -134.5t135 -56.5t135.5 56.5t55.5 134.5z" />
<glyph d="M657 770q0 -119 -82.5 -202t-203.5 -83q-117 0 -200 84t-83 201q0 119 83 203t200 84q121 0 203.5 -84t82.5 -203zM578 770q0 88 -59.5 148.5t-147.5 60.5q-86 0 -145.5 -60.5t-59.5 -148.5q0 -84 59.5 -145.5t145.5 -61.5q88 0 147.5 61.5t59.5 145.5z" />
<glyph d="M657 770q0 -119 -82.5 -202t-203.5 -83q-117 0 -200 84t-83 201q0 119 83 203t200 84q121 0 203.5 -84t82.5 -203zM578 770q0 88 -59.5 148.5t-147.5 60.5q-86 0 -145.5 -60.5t-59.5 -148.5q0 -84 59.5 -145.5t145.5 -61.5q88 0 147.5 61.5t59.5 145.5z" />
<glyph d="M657 770q0 -119 -82.5 -202t-203.5 -83q-117 0 -200 84t-83 201q0 119 83 203t200 84q121 0 203.5 -84t82.5 -203zM578 770q0 88 -59.5 148.5t-147.5 60.5q-86 0 -145.5 -60.5t-59.5 -148.5q0 -84 59.5 -145.5t145.5 -61.5q88 0 147.5 61.5t59.5 145.5z" />
<glyph horiz-adv-x="0" d="M934 -299q0 -39 -26.5 -66.5t-67.5 -27.5q-39 0 -65.5 27.5t-26.5 66.5t26.5 64.5t65.5 25.5t66.5 -25.5t27.5 -64.5zM934 -600q0 -41 -26.5 -67.5t-67.5 -26.5q-39 0 -65.5 26.5t-26.5 67.5q0 37 27.5 64.5t64.5 27.5q41 0 67.5 -26.5t26.5 -65.5zM639 -672h-94v445h94 v-445zM418 -346h-170l-6 -100q0 -23 29.5 -67t29.5 -65q0 -40 -26.5 -67t-65.5 -27t-65.5 28t-26.5 66q0 25 30.5 67t30.5 67l-8 98h-170v119h418v-119z" />
<glyph d="M657 770q0 -119 -82.5 -202t-203.5 -83q-117 0 -200 84t-83 201q0 119 83 203t200 84q121 0 203.5 -84t82.5 -203zM578 770q0 88 -59.5 148.5t-147.5 60.5q-86 0 -145.5 -60.5t-59.5 -148.5q0 -84 59.5 -145.5t145.5 -61.5q88 0 147.5 61.5t59.5 145.5z" />
<glyph d="M657 770q0 -119 -82.5 -202t-203.5 -83q-117 0 -200 84t-83 201q0 119 83 203t200 84q121 0 203.5 -84t82.5 -203zM578 770q0 88 -59.5 148.5t-147.5 60.5q-86 0 -145.5 -60.5t-59.5 -148.5q0 -84 59.5 -145.5t145.5 -61.5q88 0 147.5 61.5t59.5 145.5z" />
<glyph d="M657 770q0 -119 -82.5 -202t-203.5 -83q-117 0 -200 84t-83 201q0 119 83 203t200 84q121 0 203.5 -84t82.5 -203zM578 770q0 88 -59.5 148.5t-147.5 60.5q-86 0 -145.5 -60.5t-59.5 -148.5q0 -84 59.5 -145.5t145.5 -61.5q88 0 147.5 61.5t59.5 145.5z" />
<glyph d="M657 770q0 -119 -82.5 -202t-203.5 -83q-117 0 -200 84t-83 201q0 119 83 203t200 84q121 0 203.5 -84t82.5 -203zM578 770q0 88 -59.5 148.5t-147.5 60.5q-86 0 -145.5 -60.5t-59.5 -148.5q0 -84 59.5 -145.5t145.5 -61.5q88 0 147.5 61.5t59.5 145.5z" />
</font>
</defs>
</svg>
