<?xml version="1.0" standalone="no"?>
<!DOCTYPE svg PUBLIC "-//W3C//DTD SVG 1.1//EN" "http://www.w3.org/Graphics/SVG/1.1/DTD/svg11.dtd" >
<svg xmlns="http://www.w3.org/2000/svg" xmlns:xlink="http://www.w3.org/1999/xlink" version="1.1">
<metadata></metadata>
<defs>
<font id="fbextazaregular" horiz-adv-x="756" >
<font-face units-per-em="2048" ascent="1638" descent="-410" />
<missing-glyph horiz-adv-x="512" />
<glyph unicode="&#xd;" horiz-adv-x="512" />
<glyph unicode=" "  horiz-adv-x="512" />
<glyph unicode="&#x09;" horiz-adv-x="512" />
<glyph unicode="&#xa0;" horiz-adv-x="512" />
<glyph unicode="!" horiz-adv-x="532" d="M359 1219v-330l-48 -469q-3 -33 -35 -33h-20q-32 0 -35 33l-48 469v320q0 25 6 33.5t29 8.5h119q17 0 24.5 -10.5t7.5 -21.5zM382 95q0 -23 -6 -50.5t-23 -44.5t-39.5 -23t-47.5 -6q-23 0 -46 6t-40 23t-23 44.5t-6 52.5q0 23 6 50.5t23 44.5t40 23t46 6t45.5 -6 t40.5 -23q17 -17 23.5 -44.5t6.5 -52.5z" />
<glyph unicode="&#x22;" horiz-adv-x="658" d="M366 1280q0 -4 -2 -10.5t-8 -16.5l-203 -326q-5 -10 -11.5 -18t-20.5 -8h-70q-20 0 -22 10t6 28l144 339q12 28 36 28h118q17 0 25 -9t8 -17zM669 1280q0 -4 -2 -10.5t-8 -16.5l-203 -326q-6 -10 -12 -18t-20 -8h-70q-20 0 -22 10t6 28l144 339q12 28 36 28h118 q17 0 25 -9t8 -17z" />
<glyph unicode="#" horiz-adv-x="1179" d="M640 317l91 541h-234l-92 -541h235zM868 965h217l-19 -107h-219l-88 -541h223l-12 -100h-223l-39 -217h-117l39 217h-242l-38 -217h-117l39 217h-203l12 100h209l90 541h-209l17 107h215l45 237h117l-45 -237h231l41 237h115z" />
<glyph unicode="$" horiz-adv-x="948" d="M698 297q0 174 -193 252v-430q86 0 138 49q55 51 55 129zM413 719v366q-79 0 -127 -57q-20 -23 -30.5 -51.5t-10.5 -61.5q0 -111 168 -196zM845 305q0 -135 -98 -222q-96 -86 -242 -86v-113q0 -29 -18 -29h-53q-21 0 -21 27v115q-117 0 -278 64q-25 10 -25 29q0 9 4 16 l21 54q6 16 24 16q8 0 27 -8q104 -49 227 -49v461q-311 131 -311 331q0 132 87 212q85 79 224 79l-2 88q0 29 29 29h43q22 0 22 -29v-86q48 0 107 -14.5t131 -46.5q29 -12 29 -29q0 -8 -8 -24l-23 -46q-11 -20 -23 -20q-8 0 -22 8q-116 51 -191 51v-395q340 -141 340 -383z " />
<glyph unicode="%" horiz-adv-x="1363" d="M487 915q0 220 -131 220q-139 0 -139 -220q0 -219 139 -219q131 0 131 219zM1139 293q0 219 -131 219q-140 0 -140 -219t140 -219q131 0 131 219zM622 915q0 -159 -79 -241q-71 -72 -187 -72q-114 0 -184 72q-82 82 -82 241q0 314 266 314t266 -314zM1145 1180 q0 -7 -8 -21l-775 -1130q-20 -29 -45 -29h-67q-35 0 -35 18q0 9 8 23l774 1130q21 31 43 31h72q33 0 33 -22zM1274 293q0 -159 -80 -242q-70 -70 -186 -70q-115 0 -185 70q-82 82 -82 242q0 313 267 313q266 0 266 -313z" />
<glyph unicode="&#x26;" horiz-adv-x="1521" d="M1419 158q-20 -84 -107.5 -148.5t-174.5 -64.5q-136 0 -312 172q-182 -172 -405 -172q-141 0 -227 75q-91 79 -91 218q0 150 119 269q75 75 248 173q-68 139 -68 256q0 130 76 216q79 91 207 91q110 0 179 -57q75 -62 75 -170q0 -195 -287 -324q121 -223 244 -385 q172 213 172 338q0 80 -121 88v39h400v-39q-63 -8 -91 -22q-50 -24 -84 -88q-125 -231 -233 -369q149 -174 285 -174q57 0 97 28q27 18 73 72zM840 1022q0 69 -40 114.5t-108 45.5q-143 0 -143 -164q0 -107 74 -266q217 126 217 270zM776 168q-127 166 -280 446 q-220 -131 -220 -311q0 -107 66 -181q68 -77 174 -77q133 0 260 123z" />
<glyph unicode="'" horiz-adv-x="356" d="M366 1280q0 -4 -2 -10.5t-8 -16.5l-203 -326q-5 -10 -11.5 -18t-20.5 -8h-70q-20 0 -22 10t6 28l144 339q12 28 36 28h118q17 0 25 -9t8 -17z" />
<glyph unicode="(" horiz-adv-x="598" d="M452 -87q0 -16 -14.5 -26.5t-42.5 -28.5q-14 -9 -23 -9q-15 0 -31 25q-231 351 -231 722q0 394 223 707q21 28 41 28q11 0 19 -4l45 -37q12 -11 12 -26q0 -8 -3.5 -16.5t-8.5 -16.5q-88 -137 -130 -296t-42 -345q0 -348 178 -650q8 -14 8 -27z" />
<glyph unicode=")" horiz-adv-x="598" d="M485 590q0 -373 -227 -716q-16 -25 -33 -25q-10 0 -23 9q-4 1 -43 30q-14 9 -14 27q0 9 8 27q176 307 176 648q0 373 -172 641q-12 18 -12 35q0 16 12 24l47 35q10 6 19 6q18 0 39 -28q223 -316 223 -713z" />
<glyph unicode="*" horiz-adv-x="830" d="M440 620h-23q-29 0 -42 9q-20 13 -19 42l19 210l-157 -132q-15 -13 -24.5 -16t-21.5 0q-16 4 -34 28q-8 10 -13 19q-6 10 -6 21q0 25 35 45l192 108l-210 111q-17 8 -20 16.5t-2 20.5q0 8 5 21q2 5 5.5 9.5t7.5 10.5q15 24 28 28q11 5 19 5t22 -11l174 -131l-19 203 q-1 27 18 40q14 9 42 10q29 1 43 -8q23 -13 20 -43l-17 -202l155 123q25 21 49 13q9 -3 16 -12.5t18 -22.5q18 -22 17 -39q-1 -11 -7.5 -19t-25.5 -18l-196 -106l205 -114q28 -15 28 -40q0 -20 -18 -41q-16 -21 -31 -25q-25 -8 -51 13l-159 129l17 -204q2 -17 -3.5 -28.5 t-15.5 -16.5q-4 -2 -9 -3.5t-11 -2.5z" />
<glyph unicode="+" horiz-adv-x="823" d="M761 643v-92q0 -25 -24 -25h-254v-254q0 -24 -25 -24h-92q-24 0 -24 24v254h-256q-25 0 -25 25v92q0 25 25 25h256v256q0 24 24 24h92q25 0 25 -24v-256h254q24 0 24 -25z" />
<glyph unicode="," horiz-adv-x="401" d="M319 210q0 -8 -10 -27l-183 -350q-5 -10 -11.5 -18t-20.5 -8h-65q-20 0 -21 9.5t5 28.5l109 358q9 28 36 28h128q17 0 25 -6.5t8 -14.5z" />
<glyph unicode="-" horiz-adv-x="823" d="M700 643v-92q0 -25 -25 -25h-528q-25 0 -25 25v92q0 25 25 25h528q25 0 25 -25z" />
<glyph unicode="." horiz-adv-x="374" d="M282 105q0 -12 -1.5 -26.5t-4.5 -29.5t-8.5 -28t-14.5 -21q-17 -17 -39.5 -23t-47.5 -6q-23 0 -46 6t-40 23q-9 8 -14.5 21t-8.5 28t-4.5 30.5t-1.5 27.5t1.5 26.5t4.5 29.5t8.5 28t14.5 21q17 17 40 23t46 6t46 -6t40 -23q9 -8 14.5 -21t9 -28t5 -30.5t1.5 -27.5z" />
<glyph unicode="/" horiz-adv-x="829" d="M790 1180q0 -9 -6 -21l-581 -1130q-15 -29 -45 -29h-76q-35 0 -35 18q0 11 6 23l582 1130q16 31 43 31h80q32 0 32 -22z" />
<glyph unicode="0" horiz-adv-x="991" d="M786 141q-108 -167 -291 -167q-172 0 -282 167q-58 88 -87.5 204t-29.5 265q0 144 25.5 257.5t79.5 197.5q105 166 294 166q199 0 299 -164q101 -164 101 -457q0 -302 -109 -469zM495 1106q-105 0 -167 -114q-35 -63 -51.5 -158.5t-16.5 -223.5q0 -258 59.5 -385.5 t175.5 -127.5t175 127.5t59 385.5q0 496 -234 496z" />
<glyph unicode="1" horiz-adv-x="991" d="M870 0h-637q-26 0 -26 27v71q0 27 26 27h267v894q-33 -41 -92 -83t-137 -80q-25 -13 -35 2l-42 75q-16 29 12 41q46 19 91.5 46t87.5 57.5t78 62.5t64 62h99q27 0 27 -26v-1051h217q27 0 27 -27v-71q0 -27 -27 -27z" />
<glyph unicode="2" horiz-adv-x="991" d="M858 0h-748q-14 0 -14 22v21q0 130 113 267q42 51 108 111t159 132q103 81 153.5 161.5t50.5 161.5q0 51 -11.5 92t-36.5 71q-55 67 -157 67q-217 0 -217 -192q0 -27 -35 -27h-84q-23 0 -23 30q0 146 109 234q101 80 250 80q170 0 268 -92q98 -93 98 -261 q0 -222 -314 -453q-53 -39 -97 -79t-81 -82q-79 -88 -85 -139h594q24 0 24 -27v-76q0 -22 -24 -22z" />
<glyph unicode="3" horiz-adv-x="991" d="M770 69q-63 -50 -140.5 -70.5t-168.5 -20.5q-119 0 -192 21q-32 8 -74 26t-89 45q-21 12 -3 39l37 58q8 13 19 12t25 -11q49 -34 116.5 -55t140.5 -21q60 0 109 11t90 40q48 33 68.5 81t20.5 111q0 136 -100 206q-42 29 -96 39t-111 10h-127h-10.5t-10.5 3q-10 4 -10 26 v66q0 11 9 18.5t21 7.5h165q45 0 88.5 13.5t77.5 40.5q33 28 45 61.5t12 81.5q0 97 -64.5 152t-185.5 55q-33 0 -67 -6.5t-64.5 -16.5t-56.5 -23t-43 -26q-18 -13 -27 -13q-11 0 -18 11l-37 54q-8 11 -9.5 20t12.5 20q28 21 67 38.5t83.5 30t92 20t92.5 7.5q181 1 286 -84 q50 -41 74.5 -98.5t24.5 -123.5q0 -47 -15 -86.5t-47 -77.5q-16 -20 -37 -36t-44 -29t-47.5 -22t-46.5 -14q65 -15 118 -41t91 -69q40 -45 57.5 -97t17.5 -118q0 -41 -9 -80t-24.5 -73.5t-37.5 -63t-48 -49.5z" />
<glyph unicode="4" horiz-adv-x="991" d="M895 284h-114v-257q0 -27 -28 -27h-97q-22 0 -22 27v257h-522q-39 0 -39 36v89l524 761q11 15 21 23.5t27 8.5h101q15 0 25 -15q3 -10 -0.5 -18t-8.5 -14l-515 -744h387v253q0 13 9 22t22 9h80q20 0 28 -9t8 -27v-252h114q26 0 26 -30v-67q0 -26 -26 -26z" />
<glyph unicode="5" horiz-adv-x="991" d="M765 77q-63 -58 -138 -78.5t-164 -20.5q-106 0 -189.5 26.5t-157.5 88.5q-18 15 -3 40l37 57q16 24 45 1q60 -52 124 -75t132 -23q130 0 206 76q38 39 55 88.5t17 110.5q0 58 -17.5 110.5t-56.5 94.5q-39 43 -88.5 61t-109.5 18q-19 0 -40.5 -3.5t-43 -10t-40 -16 t-31.5 -20.5l-46 -41l-70 11q-27 3 -24 33l50 571q3 26 29 26h531q25 0 25 -26v-72q0 -27 -25 -27h-423l-32 -359q15 9 35.5 17t44.5 14t49 9.5t48 3.5q87 0 157 -23.5t126 -76.5q59 -56 85.5 -131.5t26.5 -167.5q0 -88 -32 -159t-92 -127z" />
<glyph unicode="6" horiz-adv-x="991" d="M778 90q-57 -57 -126.5 -81t-150.5 -24t-152 28.5t-122 88.5q-63 72 -89 175.5t-26 240.5q0 347 143 535q126 166 331 166q97 0 180 -48q20 -8 13 -25l-29 -68q-17 -39 -51 -15q-41 31 -118 31q-60 0 -111 -23t-90 -70q-51 -60 -79 -155.5t-39 -220.5q24 37 59 67t70 48 q32 17 64.5 24.5t64.5 7.5q85 0 153 -24t119 -78q102 -105 102 -285q0 -45 -9 -88t-25 -81t-37 -70t-45 -56zM665 591q-32 38 -77 54t-89 16q-89 0 -156 -67q-39 -38 -54 -88t-15 -117q0 -137 72 -216q32 -35 72.5 -52.5t85.5 -17.5q114 0 173 80q30 41 43 89.5t13 110.5 q0 63 -16 115t-52 93z" />
<glyph unicode="7" horiz-adv-x="991" d="M644 620q-69 -154 -123 -302.5t-96 -297.5q-9 -20 -23 -20h-125q-24 0 -16 34q29 121 81 260t127 301q67 146 131 265.5t129 216.5h-602q-27 0 -27 27v72q0 26 27 26h753q35 0 35 -37v-52q-138 -201 -271 -493z" />
<glyph unicode="8" horiz-adv-x="991" d="M500 -36q-86 0 -160 22.5t-129.5 67.5t-87 112.5t-31.5 157.5q0 60 20.5 110t55.5 90t82.5 68.5t101.5 45.5q-45 20 -82 48t-64 62.5t-41.5 76.5t-14.5 91q0 73 27.5 131t74.5 98.5t109.5 62t133.5 21.5q65 0 129 -18.5t114.5 -56t81.5 -93.5t31 -130q0 -48 -16.5 -90.5 t-45 -78t-66 -61.5t-80.5 -40q68 -28 117 -67t80.5 -84t46 -93t14.5 -95q0 -87 -33.5 -154t-89 -112t-128 -68.5t-150.5 -23.5zM490 1113q-35 0 -70 -14t-63 -38.5t-45.5 -58.5t-17.5 -74q0 -38 16 -68t47 -55.5t77 -48.5t105 -45q34 10 64.5 30t53.5 47.5t37 61t14 71.5 q0 44 -16 79.5t-44.5 60.5t-68.5 38.5t-89 13.5zM444 586q-48 -13 -88 -36t-68 -56t-43.5 -75.5t-15.5 -94.5q0 -56 22.5 -99.5t60 -73.5t87 -46t103.5 -16q44 0 87 16t77.5 44.5t55.5 69t21 89.5q0 90 -76.5 161.5t-222.5 116.5z" />
<glyph unicode="9" horiz-adv-x="991" d="M739 154q-63 -82 -148.5 -122.5t-188.5 -40.5q-49 0 -98.5 11.5t-91.5 34.5q-17 9 -11 25l28 68q17 39 52 15q23 -15 57 -23t70 -8q60 0 115 24t97 74q26 31 43 69.5t28 85t18 100.5t13 116q-23 -38 -53 -70t-74 -55q-37 -19 -70.5 -25.5t-64.5 -6.5q-69 0 -140 26.5 t-123 79.5t-79.5 124t-27.5 162t29.5 168t89.5 135q53 51 119.5 77.5t134.5 26.5q81 0 154.5 -29.5t124.5 -89.5q31 -36 53.5 -83t37.5 -102.5t22 -119t7 -131.5q0 -75 -5.5 -147.5t-20 -139t-38 -124.5t-59.5 -105zM622 1037q-33 37 -71.5 52.5t-83.5 15.5q-55 1 -101 -23 t-71 -61q-27 -40 -38.5 -89t-9.5 -111q2 -66 18.5 -118t53.5 -93q66 -72 153 -72q92 0 156 64q38 38 54 91.5t14 120.5q-2 69 -19 125.5t-55 97.5z" />
<glyph unicode=":" horiz-adv-x="497" d="M367 105q0 -12 -1.5 -26.5t-4.5 -29.5t-8.5 -28t-14.5 -21q-17 -17 -39.5 -23t-47.5 -6q-23 0 -46 6t-40 23q-9 8 -14.5 21t-8.5 28t-4.5 30.5t-1.5 27.5t1.5 26.5t4.5 29.5t8.5 28t14.5 21q17 17 40 23t46 6t46 -6t40 -23q9 -8 14.5 -21t9 -28t5 -30.5t1.5 -27.5z M361 847q0 -12 -1.5 -26.5t-4.5 -29.5t-8.5 -28t-14.5 -22q-17 -17 -39.5 -23t-47.5 -6q-23 0 -46 6t-40 23q-9 9 -14.5 22t-8.5 28t-4.5 30.5t-1.5 27.5t1.5 26.5t4.5 29.5t8.5 28t14.5 21q17 17 40 23t46 6t46 -6t40 -23q9 -8 14.5 -21t9 -28t5 -30.5t1.5 -27.5z" />
<glyph unicode=";" horiz-adv-x="469" d="M339 847q0 -12 -1.5 -26.5t-4.5 -29.5t-8.5 -28t-14.5 -22q-17 -17 -39.5 -23t-47.5 -6q-23 0 -46 6t-40 23q-9 9 -14.5 22t-8.5 28t-4.5 30.5t-1.5 27.5t1.5 26.5t5 29.5t9 28t13.5 21q18 17 40.5 23t45.5 6t46 -6t40 -23q9 -8 14.5 -21t9 -28t5 -30.5t1.5 -27.5z M331 210q0 -8 -10 -27l-183 -350q-5 -10 -11.5 -18t-20.5 -8h-65q-20 0 -20.5 9.5t4.5 28.5l109 358q9 28 36 28h128q17 0 25 -6.5t8 -14.5z" />
<glyph unicode="&#x3c;" horiz-adv-x="823" d="M751 334l-2 -10l-37 -64q-8 -14 -16 -14t-15 4l-575 305q-33 18 -33 45q0 29 33 47l573 305q4 4 12 4q15 0 23 -14l33 -63q2 -8 2 -11q0 -16 -12 -22l-459 -244l459 -246q14 -8 14 -22z" />
<glyph unicode="=" horiz-adv-x="823" d="M761 461v-92q0 -25 -24 -25h-651q-25 0 -25 25v92q0 24 25 24h651q24 0 24 -24zM761 834v-93q0 -24 -24 -24h-651q-25 0 -25 24v93q0 24 25 24h651q24 0 24 -24z" />
<glyph unicode="&#x3e;" horiz-adv-x="823" d="M749 600q0 -29 -33 -45l-577 -305q-7 -4 -15 -4t-16 14l-37 64l-2 10q0 14 14 22l461 246l-459 244q-12 6 -12 22q0 3 2 11l33 63q8 14 22 14q9 0 13 -4l573 -305q33 -18 33 -47z" />
<glyph unicode="?" horiz-adv-x="935" d="M803 965q0 -45 -11.5 -85t-38 -79.5t-69 -80t-105.5 -85.5q-56 -41 -81 -79t-32 -80l-10 -63q-3 -19 -11 -25.5t-24 -6.5h-24q-32 0 -35 37l-5 81q-2 36 2 68t18 62.5t39.5 60.5t66.5 62q37 29 66 54.5t48.5 51t29.5 52.5t10 59q0 40 -15 73.5t-42 57t-65 36.5t-85 13 q-76 0 -131.5 -35t-83.5 -88q-8 -14 -14 -18q-12 -8 -33 2l-32 14q-14 5 -19.5 17t-1.5 25q14 50 48.5 87.5t79.5 63t96.5 38.5t100.5 13q166 0 264 -81q99 -81 99 -222zM537 95q0 -23 -6 -50.5t-23 -44.5t-39.5 -23t-47.5 -6q-23 0 -46 6t-40 23t-23 44.5t-6 52.5 q0 23 6 50.5t23 44.5t40 23t46 6t46 -6t40 -23t23.5 -44.5t6.5 -52.5z" />
<glyph unicode="@" horiz-adv-x="1697" d="M1517 741q0 -166 -103 -315q-112 -168 -272 -168q-70 0 -121 39t-53 109q-23 -62 -84.5 -105t-124.5 -43q-109 0 -175.5 72.5t-66.5 181.5q0 150 116 279t261 129q135 0 168 -113q53 90 139 94q29 2 29 -24q0 -7 -2 -15l-39 -119q-90 -282 -90 -340q0 -30 23.5 -53.5 t54.5 -23.5q118 0 202 153q70 131 70 260q0 203 -160 324q-145 113 -356 113q-254 0 -447 -175q-196 -180 -196 -432q0 -245 176 -393q164 -137 414 -137q86 0 188 24q133 33 266 121q15 11 27 11q27 0 27 -27q0 -21 -19 -35q-115 -80 -256 -123q-119 -37 -260 -37 q-270 0 -471 160q-217 170 -217 434q0 295 235 494q222 184 525 184q237 0 407 -129q185 -141 185 -375zM1023 752q0 100 -100 100q-101 0 -181 -156q-67 -133 -67 -245q0 -127 110 -127q99 0 175 170q63 143 63 258z" />
<glyph unicode="[" horiz-adv-x="567" d="M506 -110v-61q0 -25 -25 -25h-277q-20 0 -20 25v1545q0 25 25 25h272q25 0 25 -23v-59q0 -25 -25 -25h-147v-1377h147q25 0 25 -25z" />
<glyph unicode="\" horiz-adv-x="800" d="M161 1081l576 -1217q6 -14 2 -21q-6 -8 -16 -4l-99 45q-21 10 -30 29l-574 1226q-4 7 -4 14q0 24 31 8l82 -45q22 -13 32 -35z" />
<glyph unicode="]" horiz-adv-x="567" d="M383 1374v-1545q0 -25 -21 -25h-276q-25 0 -25 25v61q0 25 25 25h147v1377h-147q-25 0 -25 25v59q0 23 25 23h272q25 0 25 -25z" />
<glyph unicode="^" horiz-adv-x="960" d="M892 467h-137l-275 582l-278 -582h-137l366 758q17 35 47 35q31 0 47 -35z" />
<glyph unicode="_" horiz-adv-x="1024" d="M1024 -229h-1024v90h1024v-90z" />
<glyph unicode="{" horiz-adv-x="532" d="M471 -114v-55q0 -23 -31 -27q-133 0 -223 66q-101 72 -101 200q0 17 2 34.5t6 36.5l54 269q6 28 6 53q0 81 -92 125q-31 15 -31 37t31 32q92 32 92 115q0 11 -1 21t-3 18l-56 254q-10 44 -10 90q0 139 109 209q88 55 221 55q27 0 27 -24v-54q0 -24 -27 -28 q-164 0 -164 -164q0 -19 1.5 -40t6.5 -44l43 -238q6 -30 6 -59q0 -84 -96 -156q14 -14 29 -27.5t29 -27.5q36 -45 36 -104q0 -30 -6 -64l-39 -248q-2 -12 -3 -24t-1 -23q0 -79 43 -131q43 -54 113 -54q29 0 29 -23z" />
<glyph unicode="|" horiz-adv-x="481" d="M297 1399v-1595h-113v1595h113z" />
<glyph unicode="}" horiz-adv-x="532" d="M471 625q0 -22 -31 -37q-92 -42 -92 -125q0 -25 6 -53l53 -269q8 -43 8 -69q0 -129 -100 -202q-90 -66 -221 -66q-33 0 -33 27v55q0 23 29 23q69 0 113 54q44 56 44 131q0 11 -1 23t-3 24l-41 248q-6 34 -6 66q0 58 35 102q16 14 30.5 27.5t28.5 27.5q-94 70 -94 156 q0 14 2 29l4 30l41 238q4 23 6.5 44t2.5 40q0 164 -154 164h-8q-31 0 -31 26v56q0 24 29 24q67 0 121.5 -13t99.5 -42q108 -69 108 -207q0 -23 -2.5 -46t-7.5 -46l-57 -254q-2 -11 -3 -21.5t-1 -19.5q0 -88 92 -115q33 -11 33 -30z" />
<glyph unicode="~" horiz-adv-x="1107" d="M1076 641q-41 -172 -119 -246q-69 -65 -161 -65q-88 0 -278.5 75.5t-250.5 75.5q-127 0 -192 -186q-13 -37 -33 -37t-14 37q14 100 73 190q74 113 197 113q82 0 272.5 -72.5t259.5 -72.5q74 0 125 61q39 45 70 127q16 41 37 41q16 0 16 -27q0 -6 -2 -14z" />
<glyph unicode="&#xa2;" horiz-adv-x="874" d="M769 299q-80 -319 -330 -319q-67 0 -137 30l-121 -334h-61l133 365q-143 135 -143 346q0 215 133 334q104 88 233 88q19 0 53 -2l119 328h62l-123 -344q157 -72 157 -175q0 -71 -79 -71q-48 0 -74 33q-12 16 -21 59q-10 55 -16 65l-195 -538q78 -53 140 -53q110 0 174 73 q24 31 69 125zM507 739q-25 11 -51 11q-109 0 -164 -97q-45 -80 -45 -196q0 -117 67 -244z" />
<glyph unicode="&#xa3;" horiz-adv-x="874" d="M836 258q-15 -113 -72 -188q-68 -90 -174 -90q-72 0 -150 45q-30 18 -129 92q-67 -137 -159 -137q-46 0 -73.5 31.5t-27.5 78.5q0 60 40 96.5t102 36.5q28 0 71 -6q2 12 4 37v29q0 75 -18 280h-166v82h166q-12 127 -12 170q0 225 159 324q72 45 158 45q82 0 145 -45 q72 -49 72 -129q0 -27 -20.5 -49.5t-46.5 -22.5q-33 0 -54 33q-10 14 -14 69q-4 50 -28.5 73.5t-73.5 23.5q-156 0 -156 -240q0 -57 10 -160q2 -16 8 -92h221v-82h-221q2 -39 2 -57q0 -150 -53 -307q164 -54 191 -60q45 -10 88 -10q141 0 180 137zM254 147q-37 23 -72 23 q-82 0 -82 -74q0 -67 56 -67q69 0 98 118z" />
<glyph unicode="&#xa7;" horiz-adv-x="874" d="M741 412q0 -179 -188 -293q104 -115 104 -217q0 -103 -68.5 -173.5t-172.5 -70.5q-84 0 -149.5 55.5t-65.5 136.5q0 29 19.5 52.5t47.5 23.5q64 0 64 -76q0 -16 -7.5 -46.5t-7.5 -45.5q0 -32 37 -51q31 -16 66 -16q57 0 104 43t47 98q0 109 -176 240q-121 92 -174 153 q-88 101 -88 205q0 176 189 291q-105 117 -105 221q0 102 69.5 172t172.5 70q86 0 151.5 -53.5t65.5 -135.5q0 -77 -68 -77q-67 0 -67 67q0 12 6 40t6 42q0 80 -94 80q-62 0 -105 -43t-43 -107q0 -55 23 -90q39 -61 129 -125q125 -92 184 -157q94 -105 94 -213zM655 332 q0 119 -192 268q-74 57 -113 94q-129 -78 -129 -190q0 -80 66 -158q41 -45 133 -115q61 -47 104 -86q131 78 131 187z" />
<glyph unicode="&#xa9;" horiz-adv-x="1335" d="M1274 580q0 -162 -82 -305.5t-225.5 -222.5t-298.5 -79q-162 0 -305.5 82t-222.5 224.5t-79 300.5q0 163 84 307.5t226.5 221.5t296.5 77q161 0 304.5 -81t221.5 -220q80 -146 80 -305zM1223 580q0 149 -76 280t-208 203t-271 72q-148 0 -278 -75t-202 -202 q-73 -133 -73 -278q0 -148 74.5 -279t204.5 -202.5t274 -71.5q149 0 279 74.5t203 204.5t73 274zM999 369q-118 -174 -327 -174q-166 0 -281 107.5t-115 272.5q0 175 127 287q121 109 299 109q60 0 158 -33q21 -6 31 -6q27 0 43 37h35l16 -238h-33q-61 201 -260 201 q-139 0 -215 -107q-59 -84 -59 -225q0 -354 282 -354q168 0 269 139z" />
<glyph unicode="&#xab;" horiz-adv-x="1024" d="M961 -8h-60l-393 473l393 469h60l-244 -469zM508 -8h-57l-388 473l388 469h57l-244 -469z" />
<glyph unicode="&#xad;" horiz-adv-x="823" d="M700 643v-92q0 -25 -25 -25h-528q-25 0 -25 25v92q0 25 25 25h528q25 0 25 -25z" />
<glyph unicode="&#xb6;" horiz-adv-x="792" d="M797 1112h-115v-1491h-61v1491h-160v-1491h-62v893q-135 6 -209 31q-108 35 -159 125q-43 75 -43 170q0 190 170 278q82 41 215 41h424v-47z" />
<glyph unicode="&#xb7;" horiz-adv-x="512" d="M367 678q0 -47 -32 -79t-79 -32q-45 0 -78 33t-33 78q0 47 32 78.5t79 31.5t79 -31.5t32 -78.5z" />
<glyph unicode="&#xbb;" horiz-adv-x="1024" d="M961 463l-388 -471h-57l244 471l-244 471h57zM516 463l-393 -471h-60l244 471l-244 471h60z" />
<glyph unicode="&#xbc;" horiz-adv-x="1312" d="M1283 123h-92v-158h-100v158h-293v61l319 398h74v-389h92v-70zM1103 1184l-799 -1231h-76l799 1231h76zM405 567h-277v29q74 0 82 18q4 11 4 64v319q0 88 -12 101q-6 4 -17 4q-18 0 -57 -17l-14 23l176 76h28v-506q0 -51 7 -64q10 -18 80 -18v-29zM1091 193v268 l-224 -268h224z" />
<glyph unicode="&#xbd;" horiz-adv-x="1312" d="M1277 96l-53 -131h-422v27q323 250 323 389q0 55 -35.5 89t-89.5 34q-104 0 -141 -101h-39q27 179 207 179q78 0 137 -41q68 -45 68 -119q0 -135 -293 -373h160q110 0 139 47h39zM1082 1184l-798 -1231h-76l799 1231h75zM405 567h-277v29q74 0 82 18q4 11 4 64v319 q0 88 -12 101q-6 4 -17 4q-18 0 -57 -17l-14 23l176 76h28v-506q0 -51 7 -64q10 -18 80 -18v-29z" />
<glyph unicode="&#xbe;" horiz-adv-x="1312" d="M1283 123h-92v-158h-100v158h-293v61l319 398h74v-389h92v-70zM1091 1184l-797 -1231h-76l799 1231h74zM445 770q0 -108 -92 -166q-80 -49 -192 -49q-125 0 -125 53q0 39 49 39q23 0 71 -20.5t76 -20.5q48 0 82.5 33t34.5 80q0 145 -198 141v25q59 0 107 36.5t48 96.5 q0 94 -104 94q-72 0 -125 -76l-33 15q66 133 197 133q63 0 112 -31q58 -37 58 -96q0 -58 -90 -131q124 -45 124 -156zM1091 193v268l-222 -268h222z" />
<glyph unicode="&#xd7;" horiz-adv-x="987" d="M844 281l-49 -50l-303 304l-302 -304l-49 50l301 301l-301 301l52 49l299 -299l301 299l49 -47l-301 -301z" />
<glyph unicode="&#xf7;" horiz-adv-x="1124" d="M648 987q0 -35 -25.5 -60.5t-62.5 -25.5q-35 0 -61.5 25.5t-26.5 60.5q0 37 25.5 62.5t62.5 25.5q39 0 63.5 -24.5t24.5 -63.5zM1101 641h-1079v82h1079v-82zM648 367q0 -37 -25.5 -62.5t-62.5 -25.5q-35 0 -61.5 25.5t-26.5 62.5q0 36 26.5 62t61.5 26q39 0 63.5 -26 t24.5 -62z" />
<glyph unicode="&#x591;" d="M657 770q0 -119 -82.5 -202t-203.5 -83q-117 0 -200 84t-83 201q0 119 83 203t200 84q121 0 203.5 -84t82.5 -203zM578 770q0 88 -59.5 148.5t-147.5 60.5q-86 0 -145.5 -60.5t-59.5 -148.5q0 -84 59.5 -145.5t145.5 -61.5q88 0 147.5 61.5t59.5 145.5z" />
<glyph unicode="&#x592;" d="M657 770q0 -119 -82.5 -202t-203.5 -83q-117 0 -200 84t-83 201q0 119 83 203t200 84q121 0 203.5 -84t82.5 -203zM578 770q0 88 -59.5 148.5t-147.5 60.5q-86 0 -145.5 -60.5t-59.5 -148.5q0 -84 59.5 -145.5t145.5 -61.5q88 0 147.5 61.5t59.5 145.5z" />
<glyph unicode="&#x593;" d="M657 770q0 -119 -82.5 -202t-203.5 -83q-117 0 -200 84t-83 201q0 119 83 203t200 84q121 0 203.5 -84t82.5 -203zM578 770q0 88 -59.5 148.5t-147.5 60.5q-86 0 -145.5 -60.5t-59.5 -148.5q0 -84 59.5 -145.5t145.5 -61.5q88 0 147.5 61.5t59.5 145.5z" />
<glyph unicode="&#x594;" d="M657 770q0 -119 -82.5 -202t-203.5 -83q-117 0 -200 84t-83 201q0 119 83 203t200 84q121 0 203.5 -84t82.5 -203zM578 770q0 88 -59.5 148.5t-147.5 60.5q-86 0 -145.5 -60.5t-59.5 -148.5q0 -84 59.5 -145.5t145.5 -61.5q88 0 147.5 61.5t59.5 145.5z" />
<glyph unicode="&#x595;" d="M657 770q0 -119 -82.5 -202t-203.5 -83q-117 0 -200 84t-83 201q0 119 83 203t200 84q121 0 203.5 -84t82.5 -203zM578 770q0 88 -59.5 148.5t-147.5 60.5q-86 0 -145.5 -60.5t-59.5 -148.5q0 -84 59.5 -145.5t145.5 -61.5q88 0 147.5 61.5t59.5 145.5z" />
<glyph unicode="&#x596;" d="M657 770q0 -119 -82.5 -202t-203.5 -83q-117 0 -200 84t-83 201q0 119 83 203t200 84q121 0 203.5 -84t82.5 -203zM578 770q0 88 -59.5 148.5t-147.5 60.5q-86 0 -145.5 -60.5t-59.5 -148.5q0 -84 59.5 -145.5t145.5 -61.5q88 0 147.5 61.5t59.5 145.5z" />
<glyph unicode="&#x597;" d="M657 770q0 -119 -82.5 -202t-203.5 -83q-117 0 -200 84t-83 201q0 119 83 203t200 84q121 0 203.5 -84t82.5 -203zM578 770q0 88 -59.5 148.5t-147.5 60.5q-86 0 -145.5 -60.5t-59.5 -148.5q0 -84 59.5 -145.5t145.5 -61.5q88 0 147.5 61.5t59.5 145.5z" />
<glyph unicode="&#x598;" d="M657 770q0 -119 -82.5 -202t-203.5 -83q-117 0 -200 84t-83 201q0 119 83 203t200 84q121 0 203.5 -84t82.5 -203zM578 770q0 88 -59.5 148.5t-147.5 60.5q-86 0 -145.5 -60.5t-59.5 -148.5q0 -84 59.5 -145.5t145.5 -61.5q88 0 147.5 61.5t59.5 145.5z" />
<glyph unicode="&#x599;" d="M657 770q0 -119 -82.5 -202t-203.5 -83q-117 0 -200 84t-83 201q0 119 83 203t200 84q121 0 203.5 -84t82.5 -203zM578 770q0 88 -59.5 148.5t-147.5 60.5q-86 0 -145.5 -60.5t-59.5 -148.5q0 -84 59.5 -145.5t145.5 -61.5q88 0 147.5 61.5t59.5 145.5z" />
<glyph unicode="&#x59a;" d="M657 770q0 -119 -82.5 -202t-203.5 -83q-117 0 -200 84t-83 201q0 119 83 203t200 84q121 0 203.5 -84t82.5 -203zM578 770q0 88 -59.5 148.5t-147.5 60.5q-86 0 -145.5 -60.5t-59.5 -148.5q0 -84 59.5 -145.5t145.5 -61.5q88 0 147.5 61.5t59.5 145.5z" />
<glyph unicode="&#x59b;" d="M657 770q0 -119 -82.5 -202t-203.5 -83q-117 0 -200 84t-83 201q0 119 83 203t200 84q121 0 203.5 -84t82.5 -203zM578 770q0 88 -59.5 148.5t-147.5 60.5q-86 0 -145.5 -60.5t-59.5 -148.5q0 -84 59.5 -145.5t145.5 -61.5q88 0 147.5 61.5t59.5 145.5z" />
<glyph unicode="&#x59c;" d="M657 770q0 -119 -82.5 -202t-203.5 -83q-117 0 -200 84t-83 201q0 119 83 203t200 84q121 0 203.5 -84t82.5 -203zM578 770q0 88 -59.5 148.5t-147.5 60.5q-86 0 -145.5 -60.5t-59.5 -148.5q0 -84 59.5 -145.5t145.5 -61.5q88 0 147.5 61.5t59.5 145.5z" />
<glyph unicode="&#x59d;" d="M657 770q0 -119 -82.5 -202t-203.5 -83q-117 0 -200 84t-83 201q0 119 83 203t200 84q121 0 203.5 -84t82.5 -203zM578 770q0 88 -59.5 148.5t-147.5 60.5q-86 0 -145.5 -60.5t-59.5 -148.5q0 -84 59.5 -145.5t145.5 -61.5q88 0 147.5 61.5t59.5 145.5z" />
<glyph unicode="&#x59e;" d="M657 770q0 -119 -82.5 -202t-203.5 -83q-117 0 -200 84t-83 201q0 119 83 203t200 84q121 0 203.5 -84t82.5 -203zM578 770q0 88 -59.5 148.5t-147.5 60.5q-86 0 -145.5 -60.5t-59.5 -148.5q0 -84 59.5 -145.5t145.5 -61.5q88 0 147.5 61.5t59.5 145.5z" />
<glyph unicode="&#x59f;" d="M657 770q0 -119 -82.5 -202t-203.5 -83q-117 0 -200 84t-83 201q0 119 83 203t200 84q121 0 203.5 -84t82.5 -203zM578 770q0 88 -59.5 148.5t-147.5 60.5q-86 0 -145.5 -60.5t-59.5 -148.5q0 -84 59.5 -145.5t145.5 -61.5q88 0 147.5 61.5t59.5 145.5z" />
<glyph unicode="&#x5a0;" d="M657 770q0 -119 -82.5 -202t-203.5 -83q-117 0 -200 84t-83 201q0 119 83 203t200 84q121 0 203.5 -84t82.5 -203zM578 770q0 88 -59.5 148.5t-147.5 60.5q-86 0 -145.5 -60.5t-59.5 -148.5q0 -84 59.5 -145.5t145.5 -61.5q88 0 147.5 61.5t59.5 145.5z" />
<glyph unicode="&#x5a1;" d="M657 770q0 -119 -82.5 -202t-203.5 -83q-117 0 -200 84t-83 201q0 119 83 203t200 84q121 0 203.5 -84t82.5 -203zM578 770q0 88 -59.5 148.5t-147.5 60.5q-86 0 -145.5 -60.5t-59.5 -148.5q0 -84 59.5 -145.5t145.5 -61.5q88 0 147.5 61.5t59.5 145.5z" />
<glyph unicode="&#x5a3;" d="M657 770q0 -119 -82.5 -202t-203.5 -83q-117 0 -200 84t-83 201q0 119 83 203t200 84q121 0 203.5 -84t82.5 -203zM578 770q0 88 -59.5 148.5t-147.5 60.5q-86 0 -145.5 -60.5t-59.5 -148.5q0 -84 59.5 -145.5t145.5 -61.5q88 0 147.5 61.5t59.5 145.5z" />
<glyph unicode="&#x5a4;" d="M657 770q0 -119 -82.5 -202t-203.5 -83q-117 0 -200 84t-83 201q0 119 83 203t200 84q121 0 203.5 -84t82.5 -203zM578 770q0 88 -59.5 148.5t-147.5 60.5q-86 0 -145.5 -60.5t-59.5 -148.5q0 -84 59.5 -145.5t145.5 -61.5q88 0 147.5 61.5t59.5 145.5z" />
<glyph unicode="&#x5a5;" d="M657 770q0 -119 -82.5 -202t-203.5 -83q-117 0 -200 84t-83 201q0 119 83 203t200 84q121 0 203.5 -84t82.5 -203zM578 770q0 88 -59.5 148.5t-147.5 60.5q-86 0 -145.5 -60.5t-59.5 -148.5q0 -84 59.5 -145.5t145.5 -61.5q88 0 147.5 61.5t59.5 145.5z" />
<glyph unicode="&#x5a6;" d="M657 770q0 -119 -82.5 -202t-203.5 -83q-117 0 -200 84t-83 201q0 119 83 203t200 84q121 0 203.5 -84t82.5 -203zM578 770q0 88 -59.5 148.5t-147.5 60.5q-86 0 -145.5 -60.5t-59.5 -148.5q0 -84 59.5 -145.5t145.5 -61.5q88 0 147.5 61.5t59.5 145.5z" />
<glyph unicode="&#x5a7;" d="M657 770q0 -119 -82.5 -202t-203.5 -83q-117 0 -200 84t-83 201q0 119 83 203t200 84q121 0 203.5 -84t82.5 -203zM578 770q0 88 -59.5 148.5t-147.5 60.5q-86 0 -145.5 -60.5t-59.5 -148.5q0 -84 59.5 -145.5t145.5 -61.5q88 0 147.5 61.5t59.5 145.5z" />
<glyph unicode="&#x5a8;" d="M657 770q0 -119 -82.5 -202t-203.5 -83q-117 0 -200 84t-83 201q0 119 83 203t200 84q121 0 203.5 -84t82.5 -203zM578 770q0 88 -59.5 148.5t-147.5 60.5q-86 0 -145.5 -60.5t-59.5 -148.5q0 -84 59.5 -145.5t145.5 -61.5q88 0 147.5 61.5t59.5 145.5z" />
<glyph unicode="&#x5a9;" d="M657 770q0 -119 -82.5 -202t-203.5 -83q-117 0 -200 84t-83 201q0 119 83 203t200 84q121 0 203.5 -84t82.5 -203zM578 770q0 88 -59.5 148.5t-147.5 60.5q-86 0 -145.5 -60.5t-59.5 -148.5q0 -84 59.5 -145.5t145.5 -61.5q88 0 147.5 61.5t59.5 145.5z" />
<glyph unicode="&#x5aa;" d="M657 770q0 -119 -82.5 -202t-203.5 -83q-117 0 -200 84t-83 201q0 119 83 203t200 84q121 0 203.5 -84t82.5 -203zM578 770q0 88 -59.5 148.5t-147.5 60.5q-86 0 -145.5 -60.5t-59.5 -148.5q0 -84 59.5 -145.5t145.5 -61.5q88 0 147.5 61.5t59.5 145.5z" />
<glyph unicode="&#x5ab;" d="M657 770q0 -119 -82.5 -202t-203.5 -83q-117 0 -200 84t-83 201q0 119 83 203t200 84q121 0 203.5 -84t82.5 -203zM578 770q0 88 -59.5 148.5t-147.5 60.5q-86 0 -145.5 -60.5t-59.5 -148.5q0 -84 59.5 -145.5t145.5 -61.5q88 0 147.5 61.5t59.5 145.5z" />
<glyph unicode="&#x5ac;" d="M657 770q0 -119 -82.5 -202t-203.5 -83q-117 0 -200 84t-83 201q0 119 83 203t200 84q121 0 203.5 -84t82.5 -203zM578 770q0 88 -59.5 148.5t-147.5 60.5q-86 0 -145.5 -60.5t-59.5 -148.5q0 -84 59.5 -145.5t145.5 -61.5q88 0 147.5 61.5t59.5 145.5z" />
<glyph unicode="&#x5ad;" d="M657 770q0 -119 -82.5 -202t-203.5 -83q-117 0 -200 84t-83 201q0 119 83 203t200 84q121 0 203.5 -84t82.5 -203zM578 770q0 88 -59.5 148.5t-147.5 60.5q-86 0 -145.5 -60.5t-59.5 -148.5q0 -84 59.5 -145.5t145.5 -61.5q88 0 147.5 61.5t59.5 145.5z" />
<glyph unicode="&#x5ae;" d="M657 770q0 -119 -82.5 -202t-203.5 -83q-117 0 -200 84t-83 201q0 119 83 203t200 84q121 0 203.5 -84t82.5 -203zM578 770q0 88 -59.5 148.5t-147.5 60.5q-86 0 -145.5 -60.5t-59.5 -148.5q0 -84 59.5 -145.5t145.5 -61.5q88 0 147.5 61.5t59.5 145.5z" />
<glyph unicode="&#x5af;" d="M657 770q0 -119 -82.5 -202t-203.5 -83q-117 0 -200 84t-83 201q0 119 83 203t200 84q121 0 203.5 -84t82.5 -203zM578 770q0 88 -59.5 148.5t-147.5 60.5q-86 0 -145.5 -60.5t-59.5 -148.5q0 -84 59.5 -145.5t145.5 -61.5q88 0 147.5 61.5t59.5 145.5z" />
<glyph unicode="&#x5b0;" horiz-adv-x="2" d="M88 -243q0 -35 -25.5 -60.5t-60.5 -25.5q-36 0 -62 25.5t-26 60.5t27 59.5t61 24.5q37 0 61.5 -24.5t24.5 -59.5zM88 -512q0 -34 -25.5 -60t-60.5 -26q-36 0 -62 26t-26 60q0 35 27 59.5t61 24.5q37 0 61.5 -24.5t24.5 -59.5z" />
<glyph unicode="&#x5b1;" horiz-adv-x="2" d="M-137 -243q0 -35 -25.5 -60.5t-60.5 -25.5q-33 0 -59.5 24.5t-26.5 61.5q0 33 25.5 58.5t60.5 25.5q37 0 61.5 -24.5t24.5 -59.5zM98 -243q0 -35 -25.5 -60.5t-60.5 -25.5q-34 0 -60.5 25.5t-26.5 60.5q0 33 27.5 58.5t59.5 25.5q37 0 61.5 -23.5t24.5 -60.5zM-10 -450 q0 -35 -25.5 -60.5t-60.5 -25.5q-33 0 -59.5 24.5t-26.5 61.5q0 35 25.5 59.5t60.5 24.5t60.5 -24.5t25.5 -59.5zM311 -243q0 -29 -22.5 -49.5t-50.5 -20.5q-70 0 -70 70q0 74 70 74q73 0 73 -74zM311 -458q0 -29 -21.5 -50.5t-51.5 -21.5q-70 0 -70 72q0 30 20.5 50.5 t49.5 20.5q73 0 73 -71z" />
<glyph unicode="&#x5b2;" horiz-adv-x="2" d="M287 -243q0 -29 -22.5 -49.5t-51.5 -20.5q-70 0 -70 70q0 74 70 74q74 0 74 -74zM287 -458q0 -29 -21.5 -50.5t-52.5 -21.5q-70 0 -70 72q0 71 70 71q74 0 74 -71zM-258 -305q-26 0 -26 31v66q0 30 26 30h301q27 0 27 -30v-66q0 -31 -27 -31h-301z" />
<glyph unicode="&#x5b3;" horiz-adv-x="2" d="M287 -243q0 -29 -22.5 -49.5t-51.5 -20.5q-70 0 -70 70q0 74 70 74q33 0 53.5 -20.5t20.5 -53.5zM287 -458q0 -29 -21.5 -50.5t-52.5 -21.5q-70 0 -70 72q0 71 70 71q74 0 74 -71zM-258 -178h301q27 0 27 -30v-66q0 -31 -27 -31h-118q0 -43 20 -88l23 -51q8 -16 8 -35 q0 -33 -24.5 -57.5t-59.5 -24.5t-59.5 24.5t-24.5 57.5q0 19 8 35l23 51q22 49 22 88h-119q-26 0 -26 31v66q0 30 26 30z" />
<glyph unicode="&#x5b4;" horiz-adv-x="2" d="M92 -243q0 -35 -27.5 -62.5t-62.5 -27.5q-36 0 -64 27.5t-28 62.5q0 37 28 62.5t64 25.5q39 0 64.5 -25.5t25.5 -62.5z" />
<glyph unicode="&#x5b5;" horiz-adv-x="2" d="M-45 -243q0 -35 -25.5 -60.5t-60.5 -25.5q-34 0 -60 25.5t-26 60.5t26 59.5t60 24.5q86 0 86 -84zM219 -243q0 -35 -25.5 -60.5t-60.5 -25.5t-60.5 25.5t-25.5 60.5t25.5 59.5t60.5 24.5q37 0 61.5 -24.5t24.5 -59.5z" />
<glyph unicode="&#x5b6;" horiz-adv-x="2" d="M-45 -243q0 -35 -25.5 -60.5t-60.5 -25.5q-34 0 -60 25.5t-26 60.5t26 59.5t60 24.5q86 0 86 -84zM219 -243q0 -35 -25.5 -60.5t-60.5 -25.5t-60.5 25.5t-25.5 60.5t25.5 59.5t60.5 24.5q37 0 61.5 -24.5t24.5 -59.5zM94 -468q0 -35 -25.5 -61t-60.5 -26q-34 0 -59.5 26 t-25.5 61q0 34 25.5 58.5t59.5 24.5q37 0 61.5 -24.5t24.5 -58.5z" />
<glyph unicode="&#x5b7;" horiz-adv-x="2" d="M-190 -305q-27 0 -27 31v66q0 30 27 30h383q26 0 26 -30v-66q0 -31 -26 -31h-383z" />
<glyph unicode="&#x5b8;" horiz-adv-x="2" d="M-190 -178h383q26 0 26 -30v-66q0 -31 -26 -31h-158q0 -47 18 -88l23 -51q8 -16 8 -35q0 -35 -24.5 -58.5t-57.5 -23.5q-34 0 -58.5 24.5t-24.5 57.5q0 19 8 35l22 51q21 45 21 88h-160q-27 0 -27 31v66q0 30 27 30z" />
<glyph unicode="&#x5b9;" horiz-adv-x="2" d="M86 1470q0 -35 -25.5 -60.5t-60.5 -25.5q-34 0 -60 25.5t-26 60.5q0 33 26 58.5t60 25.5q39 0 62.5 -23.5t23.5 -60.5z" />
<glyph unicode="&#x5bb;" horiz-adv-x="2" d="M92 -243q0 -35 -25.5 -60.5t-60.5 -25.5t-60.5 25.5t-25.5 60.5t25.5 59.5t60.5 24.5q86 0 86 -84zM235 -417q0 -35 -25.5 -60.5t-60.5 -25.5q-34 0 -59.5 25.5t-25.5 60.5t25.5 59.5t59.5 24.5q37 0 61.5 -23.5t24.5 -60.5zM376 -589q0 -35 -25.5 -60.5t-60.5 -25.5 q-34 0 -60 25.5t-26 60.5q0 32 26 58t60 26q86 0 86 -84z" />
<glyph unicode="&#x5bc;" horiz-adv-x="2" d="M86 457q0 -35 -25.5 -60.5t-60.5 -25.5q-34 0 -60 25.5t-26 60.5q0 32 27 58t59 26q37 0 61.5 -23.5t24.5 -60.5z" />
<glyph unicode="&#x5bd;" horiz-adv-x="2" d="M67 -587q0 -27 -31 -27h-65q-31 0 -31 27v383q0 26 31 26h65q31 0 31 -26v-383z" />
<glyph unicode="&#x5be;" horiz-adv-x="631" d="M491 1168v-102q0 -13 -8 -19t-15 -6h-365q-7 0 -15 6t-8 19v102q0 13 8 19t15 6h365q7 0 15 -6t8 -19z" />
<glyph unicode="&#x5bf;" horiz-adv-x="631" d="M491 1168v-102q0 -13 -8 -19t-15 -6h-365q-7 0 -15 6t-8 19v102q0 13 8 19t15 6h365q7 0 15 -6t8 -19z" />
<glyph unicode="&#x5c0;" horiz-adv-x="481" d="M297 1399v-1595h-113v1595h113z" />
<glyph unicode="&#x5c1;" horiz-adv-x="2" d="M1275 1440q0 -35 -25.5 -60.5t-60.5 -25.5q-34 0 -60 25.5t-26 60.5q0 33 26 58.5t60 25.5q39 0 62.5 -23.5t23.5 -60.5z" />
<glyph unicode="&#x5c2;" horiz-adv-x="2" d="M275 1470q0 -35 -25.5 -60.5t-60.5 -25.5q-34 0 -60 25.5t-26 60.5q0 33 26 58.5t60 25.5q39 0 62.5 -23.5t23.5 -60.5z" />
<glyph unicode="&#x5c3;" horiz-adv-x="497" d="M367 105q0 -12 -1.5 -26.5t-4.5 -29.5t-8.5 -28t-14.5 -21q-17 -17 -39.5 -23t-47.5 -6q-23 0 -46 6t-40 23q-9 8 -14.5 21t-8.5 28t-4.5 30.5t-1.5 27.5t1.5 26.5t4.5 29.5t8.5 28t14.5 21q17 17 40 23t46 6t46 -6t40 -23q9 -8 14.5 -21t9 -28t5 -30.5t1.5 -27.5z M361 847q0 -12 -1.5 -26.5t-4.5 -29.5t-8.5 -28t-14.5 -22q-17 -17 -39.5 -23t-47.5 -6q-23 0 -46 6t-40 23q-9 9 -14.5 22t-8.5 28t-4.5 30.5t-1.5 27.5t1.5 26.5t4.5 29.5t8.5 28t14.5 21q17 17 40 23t46 6t46 -6t40 -23q9 -8 14.5 -21t9 -28t5 -30.5t1.5 -27.5z" />
<glyph unicode="&#x5c4;" horiz-adv-x="2" d="M86 1470q0 -35 -25.5 -60.5t-60.5 -25.5q-34 0 -60 25.5t-26 60.5q0 33 26 58.5t60 25.5q39 0 62.5 -23.5t23.5 -60.5z" />
<glyph unicode="&#x5d0;" horiz-adv-x="1177" d="M733 512l314 -473q17 -26 -9 -39h-145q-16 0 -26.5 3t-18.5 16l-410 643q-23 -15 -39 -40.5t-27.5 -58.5t-19.5 -73t-15 -83l-66 -387q-5 -20 -28 -20h-117q-27 0 -19 35l69 365q14 74 31.5 129.5t42 96.5t57 70.5t75.5 52.5l-283 404q-12 17 -10.5 30.5t22.5 13.5h148 q13 0 20.5 -5t16.5 -18l390 -572q15 9 30 25t29 42t27 64t24 93l69 349q4 22 41 22h111q34 0 25 -39l-76 -313q-16 -66 -35.5 -117t-46.5 -91t-63.5 -70.5t-87.5 -54.5z" />
<glyph unicode="&#x5d1;" horiz-adv-x="1064" d="M981 94v-71q0 -23 -21 -23h-850q-27 0 -27 25v69q0 27 27 27h582v698q0 143 -80 217q-35 33 -83.5 49.5t-107.5 16.5q-39 0 -76 -6.5t-69 -16.5t-58 -22.5t-42 -23.5q-24 -18 -41 8l-33 49q-17 25 2 41q22 18 57.5 34t80 28.5t95.5 20t105 7.5q201 0 312.5 -100.5 t111.5 -299.5v-700h94q21 0 21 -27z" />
<glyph unicode="&#x5d2;" horiz-adv-x="811" d="M734 63q12 -31 -12 -40l-89 -34q-17 -7 -25 -2.5t-15 17.5q-8 15 -20 45t-25.5 67.5t-27 80t-22.5 81.5q-30 -46 -72.5 -92.5t-91.5 -87t-101 -71.5t-101 -46q-13 -4 -19 2t-8 17l-26 112q-6 28 17 37q45 18 95 47t99.5 65.5t94.5 79t80 86.5l-57 459q-8 62 -22 102 t-35 62.5t-48 31t-60 8.5q-15 0 -30.5 -4t-29.5 -9q-12 -4 -18.5 3t-8.5 19l-8 73q-2 11 3 16.5t16 8.5q20 6 46.5 11t47.5 5q73 1 128.5 -15.5t94.5 -54t63 -97.5t35 -145l59 -460q14 -105 39 -202t54 -176z" />
<glyph unicode="&#x5d3;" horiz-adv-x="1030" d="M940 1171v-72q0 -23 -20 -23h-129v-1037q0 -39 -35 -39h-105q-32 0 -32 39v1037h-512q-27 0 -27 25v70q0 26 27 26h813q20 0 20 -26z" />
<glyph unicode="&#x5d4;" horiz-adv-x="1147" d="M325 710l-22 -671q-2 -39 -35 -39h-105q-37 0 -36 37l24 666q1 36 38 37l103 5q35 2 33 -35zM997 805l1 -766q0 -39 -35 -39h-102q-37 0 -37 37l-1 770q0 151 -78.5 221t-241.5 70q-50 0 -98 -8.5t-88.5 -20.5t-71.5 -26t-49 -24q-24 -14 -35 5l-41 68q-13 21 6 33 q25 16 63.5 33.5t88 32.5t109 24.5t126.5 9.5q51 0 102 -5t97 -16t86.5 -28.5t70.5 -43.5q65 -55 96.5 -139t31.5 -188z" />
<glyph unicode="&#x5d5;" horiz-adv-x="482" d="M327 1158v-1121q0 -37 -35 -37h-102q-35 0 -35 35v1121q0 41 37 41h102q33 0 33 -39z" />
<glyph unicode="&#x5d6;" horiz-adv-x="691" d="M590 1187l18 -59q7 -23 -8 -29q-113 -36 -151 -123q-31 -71 -31 -270v-669q0 -37 -27 -37h-120q-27 0 -27 37v525q0 97 4 167.5t14 115.5q30 144 123 219q-17 -2 -33 -3t-30 -1q-175 0 -234 35q-12 8 -6 28l23 76q6 19 34 10q94 -28 199 -28q57 0 112.5 5.5t110.5 16.5 q23 5 29 -16z" />
<glyph unicode="&#x5d7;" horiz-adv-x="1189" d="M1036 827l25 -788q1 -39 -22 -39h-109q-34 0 -36 35l-26 779q-5 150 -82 222t-233 72q-24 0 -50.5 -2t-52 -6.5t-48 -11t-40.5 -14.5l-54 -1043q-1 -31 -28 -31h-115q-26 0 -24 33l53 1001l-42 46q-14 15 -14 25.5t14 19.5q26 17 71 34.5t103 31.5t125 23t138 9 q103 0 189.5 -26t147.5 -80q61 -53 84 -125.5t26 -164.5z" />
<glyph unicode="&#x5d8;" horiz-adv-x="1207" d="M1084 675q0 -59 -6.5 -121t-20.5 -123.5t-36 -119.5t-52 -108q-35 -57 -77 -98.5t-87.5 -68t-93 -39t-93.5 -12.5q-97 0 -182.5 35t-142.5 110q-54 72 -83.5 178t-40.5 243l-46 597q-3 49 25 49h104q41 0 43 -35l40 -605q8 -107 23.5 -186t44.5 -134q21 -39 46 -66 t52 -43t55 -23t57 -7t61 11t63 34t58.5 58.5t48.5 84.5q36 85 50 177t14 192q0 51 -2.5 104t-9.5 101.5t-18 89t-28 65.5q-26 40 -63 57.5t-79 17.5q-37 0 -73.5 -17.5t-61.5 -52.5q-18 -27 -45 -6l-46 36q-20 16 -6 37q18 26 44 49t58.5 40.5t71 28t80.5 10.5q86 0 156 -33 t118 -105q23 -34 38.5 -79t24.5 -97.5t13 -110t4 -115.5z" />
<glyph unicode="&#x5d9;" horiz-adv-x="460" d="M317 1158v-502q0 -17 -4.5 -31t-20.5 -25l-111 -73q-16 -11 -27 -5t-11 24v610q0 41 37 41h104q33 0 33 -39z" />
<glyph unicode="&#x5da;" horiz-adv-x="997" d="M852 815v-1185q0 -39 -35 -39h-102q-37 0 -37 37v1179q0 289 -283 289q-69 0 -133.5 -17t-126.5 -49q-23 -12 -31 6l-39 70q-12 19 6 33q142 82 365 82q189 0 299 -103q117 -109 117 -303z" />
<glyph unicode="&#x5db;" horiz-adv-x="990" d="M890 606q0 -134 -29 -246t-91 -199q-66 -91 -157 -136t-204 -45q-100 0 -177.5 16t-135.5 52q-14 8 -14.5 19.5t7.5 25.5l26 52q12 24 41 6q16 -11 39.5 -20t50.5 -16.5t56.5 -11.5t59.5 -4q85 0 152 35t113 105q42 66 61.5 159t19.5 210t-22.5 208.5t-66.5 154.5 t-109 96t-150 33q-31 0 -61.5 -5t-57.5 -13.5t-48.5 -18.5t-33.5 -20q-22 -18 -37 4l-37 54q-7 10 -4 20.5t17 20.5q57 40 129 60.5t177 20.5q112 0 204.5 -41t157.5 -124t94.5 -195.5t29.5 -256.5z" />
<glyph unicode="&#x5dc;" horiz-adv-x="1031" d="M909 1089l-106 -626q-18 -107 -51 -190.5t-86 -140.5q-60 -64 -148.5 -98.5t-209.5 -42.5q-24 -1 -29 21l-10 58q-4 25 16 26q181 16 264 123q30 38 48.5 92.5t29.5 124.5l99 620q3 20 -16 20h-601q-19 0 -20 25l-34 459q-2 29 39 28l106 -2q25 0 27 -32l21 -357h570 q15 0 31.5 -3.5t30 -12t22.5 -23.5t9 -38v-15t-2 -16z" />
<glyph unicode="&#x5dd;" horiz-adv-x="1186" d="M309 121h580l-19 673q-2 87 -21.5 147t-57 97t-94 53.5t-132.5 16.5q-121 0 -217 -27zM1042 798l14 -759q1 -39 -22 -39h-873q-26 0 -24 33l43 1001l-38 52q-12 17 -12 24.5t12 15.5q72 42 191.5 69.5t267.5 27.5q212 0 324.5 -105t116.5 -320z" />
<glyph unicode="&#x5de;" horiz-adv-x="1247" d="M1080 882l34 -443q2 -15 2 -30v-31q0 -93 -21 -161t-71 -122q-53 -59 -129 -86.5t-176 -27.5q-61 0 -110.5 9.5t-84.5 23.5q-20 9 -13 33l21 70q7 22 37 10q33 -12 67.5 -20t66.5 -8q65 0 112.5 22t76.5 59q32 40 43 91.5t6 118.5l-35 483q-4 55 -20 96.5t-41.5 69 t-58.5 41.5t-72 14q-27 0 -58 -8.5t-67 -28.5t-78.5 -52.5t-93.5 -81.5l-126 -892q-4 -31 -36 -31h-113q-27 0 -21 37l119 816q2 11 2 20.5v18.5q0 66 -34.5 123.5t-97.5 104.5q-34 25 -19 43l41 49q18 21 31 17q69 -26 127 -78t96 -118q63 57 116 93t97.5 56.5t81 27.5 t66.5 7q70 0 128.5 -21.5t102 -63.5t70 -105t32.5 -145z" />
<glyph unicode="&#x5df;" horiz-adv-x="482" d="M327 1158v-1530q0 -37 -35 -37h-102q-35 0 -35 35v1530q0 41 37 41h102q33 0 33 -39z" />
<glyph unicode="&#x5e0;" horiz-adv-x="728" d="M573 853v-826q0 -27 -29 -27h-442q-27 0 -27 25v75q0 21 27 21h297v733q0 61 -12 112t-51 87q-14 13 -34 20t-41 9t-40.5 0.5t-32.5 -5.5q-17 -5 -21.5 3t-6.5 22l-3 68q-1 12 5 18.5t17 10.5q26 10 63 13.5t76.5 -2t79 -20.5t71.5 -43q58 -51 81 -128.5t23 -165.5z" />
<glyph unicode="&#x5e1;" horiz-adv-x="1214" d="M921 664q0 117 -19 201.5t-59.5 139.5t-103 81t-149.5 26q-34 0 -71.5 -3.5t-74 -10t-69.5 -15.5t-58 -20l30 -479q8 -121 26.5 -213t44.5 -145q31 -62 81.5 -95t117.5 -33q17 0 42 4.5t52.5 16.5t54.5 32.5t49 52.5q45 68 75.5 184.5t30.5 275.5zM1101 681 q0 -79 -12 -158t-33 -150.5t-51 -133t-66 -106.5q-33 -41 -71.5 -69.5t-79.5 -46.5t-84.5 -26t-86.5 -8q-110 0 -193 41.5t-140 128.5q-49 75 -74 186.5t-35 255.5l-29 435q-11 10 -19.5 16t-22.5 17q-16 11 -16 29t20 28q36 18 91.5 37t123 34.5t143 25.5t152.5 10 q124 0 215.5 -31t150.5 -97t88 -169.5t29 -248.5z" />
<glyph unicode="&#x5e2;" horiz-adv-x="1132" d="M1002 1160l-77 -592q-12 -94 -33.5 -174.5t-61.5 -146.5t-103.5 -117t-159.5 -86l-425 -154q-26 -9 -34 17l-21 68q-8 25 21 36l275 98l-295 1045q-12 43 33 43h103q20 0 30.5 -5.5t15.5 -25.5l264 -1008q37 17 77.5 43t65.5 62q16 24 29 50t23 59.5t18 78.5t15 108 l65 610q3 28 39 28h107q15 0 23 -9t6 -28z" />
<glyph unicode="&#x5e3;" horiz-adv-x="1160" d="M1017 776v-1144q0 -41 -37 -41h-102q-37 0 -37 39v1130q0 176 -81.5 263t-251.5 87q-26 0 -52.5 -2t-50 -5.5t-42.5 -7.5t-30 -7v-349q0 -118 98 -118q33 0 82 16q25 7 33 -12l18 -47q9 -23 -10 -33q-78 -41 -164 -41q-57 0 -100 18t-72.5 51.5t-44 80.5t-14.5 104v299 l-40 37q-14 14 -14 22q0 14 20 25q37 19 84.5 35t101 28t109 18.5t108.5 6.5q242 0 365.5 -116t123.5 -337z" />
<glyph unicode="&#x5e4;" horiz-adv-x="1151" d="M1038 612q0 -144 -34.5 -261.5t-113.5 -205.5q-73 -82 -163 -120t-199 -38q-107 0 -205 19.5t-173 64.5q-26 15 -14 41l25 57q15 35 43 16q61 -42 134 -60.5t145 -18.5q173 0 276 121q55 66 78 161t23 224q0 249 -89 373.5t-271 124.5q-52 0 -99 -9.5t-76 -17.5v-352 q0 -119 99 -119q16 0 33.5 4.5t37.5 12.5q22 9 33 -13l18 -49q7 -18 -10 -32q-62 -41 -153 -41q-57 0 -100.5 18t-73 51.5t-44 80.5t-14.5 104v299l-38 48q-13 17 -13 26.5t19 20.5q23 13 62.5 28.5t91.5 28.5t112.5 21.5t125.5 8.5q245 0 382 -146q75 -79 110 -196t35 -275 z" />
<glyph unicode="&#x5e5;" horiz-adv-x="1075" d="M959 1162l-46 -197q-20 -85 -45 -152.5t-63 -122.5t-93 -99t-134 -82q13 -30 26.5 -75t25 -106.5t19 -140t7.5 -174.5v-383q0 -39 -34 -39h-101q-37 0 -37 37v387q0 131 -21.5 260.5t-82.5 257.5l-296 623q-8 15 0 29q6 12 23 12h129q14 0 22.5 -6t15.5 -20l274 -574 q35 27 63.5 56.5t51.5 71t41.5 99.5t34.5 141l37 197q6 35 41 35h121q13 0 19 -9t2 -26z" />
<glyph unicode="&#x5e6;" horiz-adv-x="1077" d="M956 1158l-44 -238q-15 -80 -38 -143t-56 -115.5t-77.5 -97t-102.5 -87.5l258 -323q17 -22 27 -40.5t10 -41.5v-37q0 -35 -39 -35h-743q-33 0 -33 35v53q0 33 33 33h561l-264 335q-51 64 -96 131t-81 127q-56 94 -104.5 202.5t-85.5 239.5q-12 41 23 41h112q32 0 43 -26 q28 -92 65 -178t79 -163.5t87.5 -146t91.5 -126.5q64 53 99 143t57 225l38 237q6 35 41 35h106q40 0 33 -39z" />
<glyph unicode="&#x5e7;" horiz-adv-x="1185" d="M330 757v-1127q0 -39 -33 -39h-101q-38 0 -38 39v1125q0 34 36 34h101q35 0 35 -32zM1065 841q0 -77 -11 -154.5t-30 -152.5t-44.5 -146t-54.5 -136q-33 -72 -75.5 -121t-90 -79t-97 -42.5t-95.5 -12.5q-70 0 -86 13q-10 7 -4 35l12 64q2 21 27 18q23 -2 34 -4t9 -2 q28 0 57.5 12t58.5 40t57.5 74t54.5 114q42 111 67.5 228t25.5 234q0 136 -65.5 202t-211.5 66q-67 0 -132.5 -4.5t-122.5 -12t-102 -16t-71 -16.5q-20 -6 -32.5 -3t-16.5 20l-14 63q-4 17 0 29t15 15q34 10 87 20t119 18t141 13.5t153 5.5q226 0 332 -93t106 -289z" />
<glyph unicode="&#x5e8;" horiz-adv-x="989" d="M856 815v-776q0 -39 -35 -39h-103q-37 0 -37 37v770q0 289 -282 289q-37 0 -73.5 -5t-70 -13t-62 -18.5t-48.5 -21.5q-22 -12 -31 6l-39 70q-12 19 6 33q64 35 159.5 54.5t204.5 19.5q94 0 170 -26t132 -79q109 -104 109 -301z" />
<glyph unicode="&#x5e9;" horiz-adv-x="1413" d="M1290 1158l-90 -580q-22 -139 -66 -257.5t-122 -202.5q-41 -44 -87.5 -71t-91 -41.5t-84.5 -19.5t-68 -5q-103 0 -181.5 28t-137 92t-98 168.5t-63.5 258.5l-100 630q-6 39 27 39h110q20 0 29.5 -7.5t11.5 -23.5l79 -578q3 -24 7 -50.5t8.5 -52t9 -48t9.5 -39.5 q55 21 92.5 55.5t60.5 85t33 118.5t12 157l5 344q0 39 37 39h104q20 0 27.5 -10.5t6.5 -30.5l-10 -295q-4 -107 -20.5 -195t-55.5 -157t-104.5 -119t-167.5 -81q18 -58 43 -99t58.5 -66.5t76 -37t96.5 -11.5q11 0 34.5 4t52.5 14.5t59.5 27.5t55.5 44t46 60t39 79t33 106.5 t26 142.5l81 591q2 17 11.5 25t29.5 8h109q33 0 27 -39z" />
<glyph unicode="&#x5ea;" horiz-adv-x="1252" d="M1106 811l16 -772q1 -39 -35 -39h-103q-33 0 -34 37l-18 786q-3 146 -74.5 214.5t-229.5 68.5q-18 0 -42.5 -1.5t-49 -4t-47 -6t-36.5 -7.5l-22 -779q-5 -182 -92.5 -263.5t-253.5 -78.5q-22 0 -26 17l-12 54q-9 43 23 43q94 -2 138.5 48.5t49.5 167.5l29 759l-94 -27 q-11 -3 -20 -1t-13 13l-19 55q-5 14 -2 24.5t17 16.5q41 16 98 31.5t122.5 28t135.5 20t137 7.5q230 0 341 -102t116 -310z" />
<glyph unicode="&#x5f0;" horiz-adv-x="700" d="M609 712q0 -111 -76.5 -187t-187.5 -76q-108 0 -185 77t-77 186q0 110 77 187t185 77q111 0 187.5 -77t76.5 -187zM536 712q0 82 -55.5 137t-135.5 55t-135 -55t-55 -137q0 -78 55 -134.5t135 -56.5t135.5 56.5t55.5 134.5z" />
<glyph unicode="&#x5f1;" horiz-adv-x="700" d="M609 712q0 -111 -76.5 -187t-187.5 -76q-108 0 -185 77t-77 186q0 110 77 187t185 77q111 0 187.5 -77t76.5 -187zM536 712q0 82 -55.5 137t-135.5 55t-135 -55t-55 -137q0 -78 55 -134.5t135 -56.5t135.5 56.5t55.5 134.5z" />
<glyph unicode="&#x5f2;" horiz-adv-x="700" d="M609 712q0 -111 -76.5 -187t-187.5 -76q-108 0 -185 77t-77 186q0 110 77 187t185 77q111 0 187.5 -77t76.5 -187zM536 712q0 82 -55.5 137t-135.5 55t-135 -55t-55 -137q0 -78 55 -134.5t135 -56.5t135.5 56.5t55.5 134.5z" />
<glyph unicode="&#x5f3;" horiz-adv-x="356" d="M366 1280q0 -4 -2 -10.5t-8 -16.5l-203 -326q-5 -10 -11.5 -18t-20.5 -8h-70q-20 0 -22 10t6 28l144 339q12 28 36 28h118q17 0 25 -9t8 -17z" />
<glyph unicode="&#x5f4;" horiz-adv-x="658" d="M366 1280q0 -4 -2 -10.5t-8 -16.5l-203 -326q-5 -10 -11.5 -18t-20.5 -8h-70q-20 0 -22 10t6 28l144 339q12 28 36 28h118q17 0 25 -9t8 -17zM669 1280q0 -4 -2 -10.5t-8 -16.5l-203 -326q-6 -10 -12 -18t-20 -8h-70q-20 0 -22 10t6 28l144 339q12 28 36 28h118 q17 0 25 -9t8 -17z" />
<glyph unicode="&#x2000;" horiz-adv-x="794" />
<glyph unicode="&#x2001;" horiz-adv-x="1588" />
<glyph unicode="&#x2002;" horiz-adv-x="794" />
<glyph unicode="&#x2003;" horiz-adv-x="1588" />
<glyph unicode="&#x2004;" horiz-adv-x="529" />
<glyph unicode="&#x2005;" horiz-adv-x="397" />
<glyph unicode="&#x2006;" horiz-adv-x="264" />
<glyph unicode="&#x2007;" horiz-adv-x="264" />
<glyph unicode="&#x2008;" horiz-adv-x="198" />
<glyph unicode="&#x2009;" horiz-adv-x="317" />
<glyph unicode="&#x200a;" horiz-adv-x="88" />
<glyph unicode="&#x200c;" d="M657 770q0 -119 -82.5 -202t-203.5 -83q-117 0 -200 84t-83 201q0 119 83 203t200 84q121 0 203.5 -84t82.5 -203zM578 770q0 88 -59.5 148.5t-147.5 60.5q-86 0 -145.5 -60.5t-59.5 -148.5q0 -84 59.5 -145.5t145.5 -61.5q88 0 147.5 61.5t59.5 145.5z" />
<glyph unicode="&#x200d;" d="M657 770q0 -119 -82.5 -202t-203.5 -83q-117 0 -200 84t-83 201q0 119 83 203t200 84q121 0 203.5 -84t82.5 -203zM578 770q0 88 -59.5 148.5t-147.5 60.5q-86 0 -145.5 -60.5t-59.5 -148.5q0 -84 59.5 -145.5t145.5 -61.5q88 0 147.5 61.5t59.5 145.5z" />
<glyph unicode="&#x200e;" d="M657 770q0 -119 -82.5 -202t-203.5 -83q-117 0 -200 84t-83 201q0 119 83 203t200 84q121 0 203.5 -84t82.5 -203zM578 770q0 88 -59.5 148.5t-147.5 60.5q-86 0 -145.5 -60.5t-59.5 -148.5q0 -84 59.5 -145.5t145.5 -61.5q88 0 147.5 61.5t59.5 145.5z" />
<glyph unicode="&#x200f;" d="M657 770q0 -119 -82.5 -202t-203.5 -83q-117 0 -200 84t-83 201q0 119 83 203t200 84q121 0 203.5 -84t82.5 -203zM578 770q0 88 -59.5 148.5t-147.5 60.5q-86 0 -145.5 -60.5t-59.5 -148.5q0 -84 59.5 -145.5t145.5 -61.5q88 0 147.5 61.5t59.5 145.5z" />
<glyph unicode="&#x2010;" horiz-adv-x="823" d="M700 643v-92q0 -25 -25 -25h-528q-25 0 -25 25v92q0 25 25 25h528q25 0 25 -25z" />
<glyph unicode="&#x2011;" horiz-adv-x="823" d="M700 643v-92q0 -25 -25 -25h-528q-25 0 -25 25v92q0 25 25 25h528q25 0 25 -25z" />
<glyph unicode="&#x2012;" horiz-adv-x="823" d="M700 643v-92q0 -25 -25 -25h-528q-25 0 -25 25v92q0 25 25 25h528q25 0 25 -25z" />
<glyph unicode="&#x2013;" horiz-adv-x="823" d="M700 643v-92q0 -25 -25 -25h-528q-25 0 -25 25v92q0 25 25 25h528q25 0 25 -25z" />
<glyph unicode="&#x2014;" horiz-adv-x="1118" d="M1000 643v-92q0 -25 -25 -25h-828q-25 0 -25 25v92q0 25 25 25h828q25 0 25 -25z" />
<glyph unicode="&#x2018;" horiz-adv-x="356" d="M29 927q0 4 2 10.5t8 16.5l203 326q5 10 11.5 18t20.5 8h70q20 0 22 -10t-6 -28l-144 -339q-12 -28 -36 -28h-118q-17 0 -25 9t-8 17z" />
<glyph unicode="&#x2019;" horiz-adv-x="356" d="M366 1280q0 -4 -2 -10.5t-8 -16.5l-203 -326q-5 -10 -11.5 -18t-20.5 -8h-70q-20 0 -22 10t6 28l144 339q12 28 36 28h118q17 0 25 -9t8 -17z" />
<glyph unicode="&#x201c;" horiz-adv-x="658" d="M332 927q0 4 2 10.5t8 16.5l203 326q5 10 11.5 18t20.5 8h70q20 0 22 -10t-6 -28l-144 -339q-12 -28 -36 -28h-118q-17 0 -25 9t-8 17zM29 927q0 4 2 10.5t8 16.5l203 326q6 10 12 18t20 8h70q20 0 22 -10t-6 -28l-144 -339q-12 -28 -36 -28h-118q-17 0 -25 9t-8 17z" />
<glyph unicode="&#x201d;" horiz-adv-x="658" d="M366 1280q0 -4 -2 -10.5t-8 -16.5l-203 -326q-5 -10 -11.5 -18t-20.5 -8h-70q-20 0 -22 10t6 28l144 339q12 28 36 28h118q17 0 25 -9t8 -17zM669 1280q0 -4 -2 -10.5t-8 -16.5l-203 -326q-6 -10 -12 -18t-20 -8h-70q-20 0 -22 10t6 28l144 339q12 28 36 28h118 q17 0 25 -9t8 -17z" />
<glyph unicode="&#x2022;" horiz-adv-x="612" d="M524 580q0 -91 -62.5 -153t-150.5 -62q-90 0 -152.5 62t-62.5 153q0 90 61.5 151.5t153.5 61.5q90 0 151.5 -61.5t61.5 -151.5z" />
<glyph unicode="&#x202f;" horiz-adv-x="317" />
<glyph unicode="&#x2039;" horiz-adv-x="681" d="M562 -8h-57l-387 473l387 469h57l-244 -469z" />
<glyph unicode="&#x203a;" horiz-adv-x="681" d="M566 463l-395 -471h-57l243 471l-243 471h57z" />
<glyph unicode="&#x205f;" horiz-adv-x="397" />
<glyph unicode="&#x20aa;" horiz-adv-x="1319" d="M857 343q0 -13 -7 -19t-16 -6h-82q-13 0 -17.5 5t-4.5 19l-9 411q-1 45 -13 85.5t-44 72.5q-15 15 -36 25t-45 16.5t-48.5 9.5t-45.5 3q-68 0 -114 -7t-86 -20l-19 -911q0 -27 -23 -27h-85q-14 0 -18 8t-4 21v2l22 940q0 11 4.5 21t18.5 15q21 8 53.5 17t72 17t86 13 t96.5 5q78 0 143 -15.5t112 -50.5t73 -91.5t28 -138.5zM1174 1014q0 13 -7 19t-16 6h-82q-13 0 -17.5 -5t-4.5 -19l-17 -722q-1 -45 -15 -83t-46 -70q-18 -18 -43.5 -30.5t-53 -20t-55 -10.5t-48.5 -3q-52 0 -102 9t-88 28l-14 565q0 28 -23 28h-85q-14 0 -18 -8.5t-4 -21.5 v-2l17 -599q0 -11 7.5 -21t20.5 -15q55 -23 131.5 -39.5t176.5 -16.5q83 0 150 20t114 59.5t73.5 97.5t28.5 133z" />
<glyph unicode="&#x22c5;" horiz-adv-x="662" d="M565 627q0 -99 -67.5 -165.5t-161.5 -66.5q-98 0 -166 66.5t-68 165.5q0 98 67 164.5t167 66.5q96 0 162.5 -66.5t66.5 -164.5z" />
<glyph unicode="&#x25a0;" d="M657 770q0 -119 -82.5 -202t-203.5 -83q-117 0 -200 84t-83 201q0 119 83 203t200 84q121 0 203.5 -84t82.5 -203zM578 770q0 88 -59.5 148.5t-147.5 60.5q-86 0 -145.5 -60.5t-59.5 -148.5q0 -84 59.5 -145.5t145.5 -61.5q88 0 147.5 61.5t59.5 145.5z" />
<glyph unicode="&#x25a1;" d="M657 770q0 -119 -82.5 -202t-203.5 -83q-117 0 -200 84t-83 201q0 119 83 203t200 84q121 0 203.5 -84t82.5 -203zM578 770q0 88 -59.5 148.5t-147.5 60.5q-86 0 -145.5 -60.5t-59.5 -148.5q0 -84 59.5 -145.5t145.5 -61.5q88 0 147.5 61.5t59.5 145.5z" />
<glyph unicode="&#x25c6;" d="M657 770q0 -119 -82.5 -202t-203.5 -83q-117 0 -200 84t-83 201q0 119 83 203t200 84q121 0 203.5 -84t82.5 -203zM578 770q0 88 -59.5 148.5t-147.5 60.5q-86 0 -145.5 -60.5t-59.5 -148.5q0 -84 59.5 -145.5t145.5 -61.5q88 0 147.5 61.5t59.5 145.5z" />
<glyph unicode="&#x25c7;" d="M657 770q0 -119 -82.5 -202t-203.5 -83q-117 0 -200 84t-83 201q0 119 83 203t200 84q121 0 203.5 -84t82.5 -203zM578 770q0 88 -59.5 148.5t-147.5 60.5q-86 0 -145.5 -60.5t-59.5 -148.5q0 -84 59.5 -145.5t145.5 -61.5q88 0 147.5 61.5t59.5 145.5z" />
<glyph unicode="&#x25cb;" d="M657 770q0 -119 -82.5 -202t-203.5 -83q-117 0 -200 84t-83 201q0 119 83 203t200 84q121 0 203.5 -84t82.5 -203zM578 770q0 88 -59.5 148.5t-147.5 60.5q-86 0 -145.5 -60.5t-59.5 -148.5q0 -84 59.5 -145.5t145.5 -61.5q88 0 147.5 61.5t59.5 145.5z" />
<glyph unicode="&#x25cc;" d="M657 770q0 -119 -82.5 -202t-203.5 -83q-117 0 -200 84t-83 201q0 119 83 203t200 84q121 0 203.5 -84t82.5 -203zM578 770q0 88 -59.5 148.5t-147.5 60.5q-86 0 -145.5 -60.5t-59.5 -148.5q0 -84 59.5 -145.5t145.5 -61.5q88 0 147.5 61.5t59.5 145.5z" />
<glyph unicode="&#x25fc;" horiz-adv-x="500" d="M0 0v0v0v0v0z" />
<glyph unicode="&#x2605;" d="M657 770q0 -119 -82.5 -202t-203.5 -83q-117 0 -200 84t-83 201q0 119 83 203t200 84q121 0 203.5 -84t82.5 -203zM578 770q0 88 -59.5 148.5t-147.5 60.5q-86 0 -145.5 -60.5t-59.5 -148.5q0 -84 59.5 -145.5t145.5 -61.5q88 0 147.5 61.5t59.5 145.5z" />
<glyph unicode="&#x274f;" d="M657 770q0 -119 -82.5 -202t-203.5 -83q-117 0 -200 84t-83 201q0 119 83 203t200 84q121 0 203.5 -84t82.5 -203zM578 770q0 88 -59.5 148.5t-147.5 60.5q-86 0 -145.5 -60.5t-59.5 -148.5q0 -84 59.5 -145.5t145.5 -61.5q88 0 147.5 61.5t59.5 145.5z" />
<glyph unicode="&#xe802;" horiz-adv-x="997" d="M852 815v-1185q0 -39 -35 -39h-102q-37 0 -37 37v1179q0 289 -283 289q-69 0 -133.5 -17t-126.5 -49q-23 -12 -31 6l-39 70q-12 19 6 33q142 82 365 82q189 0 299 -103q117 -109 117 -303zM434 449q0 -35 -25.5 -60.5t-60.5 -25.5q-36 0 -62 25.5t-26 60.5t27 59.5 t61 24.5q37 0 61.5 -24.5t24.5 -59.5zM434 180q0 -34 -25.5 -60t-60.5 -26q-36 0 -62 26t-26 60q0 35 27 59.5t61 24.5q37 0 61.5 -24.5t24.5 -59.5z" />
<glyph unicode="&#xe803;" horiz-adv-x="997" d="M852 815v-1185q0 -39 -35 -39h-102q-37 0 -37 37v1179q0 289 -283 289q-69 0 -133.5 -17t-126.5 -49q-23 -12 -31 6l-39 70q-12 19 6 33q142 82 365 82q189 0 299 -103q117 -109 117 -303zM157 479h383q26 0 26 -30v-66q0 -31 -26 -31h-158q0 -47 18 -88l23 -51 q8 -16 8 -35q0 -35 -24.5 -58.5t-57.5 -23.5q-34 0 -58.5 24.5t-24.5 57.5q0 19 8 35l22 51q21 45 21 88h-160q-27 0 -27 31v66q0 30 27 30z" />
<glyph unicode="&#xe804;" horiz-adv-x="1031" d="M909 1089l-106 -626q-18 -107 -51 -190.5t-86 -140.5q-60 -64 -148.5 -98.5t-209.5 -42.5q-24 -1 -29 21l-10 58q-4 25 16 26q181 16 264 123q30 38 48.5 92.5t29.5 124.5l99 620q3 20 -16 20h-601q-19 0 -20 25l-34 459q-2 29 39 28l106 -2q25 0 27 -32l21 -357h570 q15 0 31.5 -3.5t30 -12t22.5 -23.5t9 -38v-15t-2 -16zM5 1470q0 -35 -25.5 -60.5t-60.5 -25.5q-34 0 -60 25.5t-26 60.5q0 33 26 58.5t60 25.5q39 0 62.5 -23.5t23.5 -60.5z" />
<glyph unicode="&#xe805;" horiz-adv-x="1031" d="M909 1089l-106 -626q-18 -107 -51 -190.5t-86 -140.5q-60 -64 -148.5 -98.5t-209.5 -42.5q-24 -1 -29 21l-10 58q-4 25 16 26q181 16 264 123q30 38 48.5 92.5t29.5 124.5l99 620q3 20 -16 20h-601q-19 0 -20 25l-34 459q-2 29 39 28l106 -2q25 0 27 -32l21 -357h570 q15 0 31.5 -3.5t30 -12t22.5 -23.5t9 -38v-15t-2 -16zM5 1470q0 -35 -25.5 -60.5t-60.5 -25.5q-34 0 -60 25.5t-26 60.5q0 33 26 58.5t60 25.5q39 0 62.5 -23.5t23.5 -60.5zM411 639q0 -35 -25.5 -60.5t-60.5 -25.5t-60.5 25.5t-25.5 60.5q0 33 27 58.5t59 25.5 q37 0 61.5 -23.5t24.5 -60.5z" />
<glyph unicode="&#xfb1d;" horiz-adv-x="700" d="M609 712q0 -111 -76.5 -187t-187.5 -76q-108 0 -185 77t-77 186q0 110 77 187t185 77q111 0 187.5 -77t76.5 -187zM536 712q0 82 -55.5 137t-135.5 55t-135 -55t-55 -137q0 -78 55 -134.5t135 -56.5t135.5 56.5t55.5 134.5z" />
<glyph unicode="&#xfb1e;" horiz-adv-x="700" d="M609 712q0 -111 -76.5 -187t-187.5 -76q-108 0 -185 77t-77 186q0 110 77 187t185 77q111 0 187.5 -77t76.5 -187zM536 712q0 82 -55.5 137t-135.5 55t-135 -55t-55 -137q0 -78 55 -134.5t135 -56.5t135.5 56.5t55.5 134.5z" />
<glyph unicode="&#xfb1f;" horiz-adv-x="700" d="M609 712q0 -111 -76.5 -187t-187.5 -76q-108 0 -185 77t-77 186q0 110 77 187t185 77q111 0 187.5 -77t76.5 -187zM536 712q0 82 -55.5 137t-135.5 55t-135 -55t-55 -137q0 -78 55 -134.5t135 -56.5t135.5 56.5t55.5 134.5z" />
<glyph unicode="&#xfb20;" horiz-adv-x="700" d="M609 712q0 -111 -76.5 -187t-187.5 -76q-108 0 -185 77t-77 186q0 110 77 187t185 77q111 0 187.5 -77t76.5 -187zM536 712q0 82 -55.5 137t-135.5 55t-135 -55t-55 -137q0 -78 55 -134.5t135 -56.5t135.5 56.5t55.5 134.5z" />
<glyph unicode="&#xfb21;" horiz-adv-x="700" d="M609 712q0 -111 -76.5 -187t-187.5 -76q-108 0 -185 77t-77 186q0 110 77 187t185 77q111 0 187.5 -77t76.5 -187zM536 712q0 82 -55.5 137t-135.5 55t-135 -55t-55 -137q0 -78 55 -134.5t135 -56.5t135.5 56.5t55.5 134.5z" />
<glyph unicode="&#xfb22;" horiz-adv-x="700" d="M609 712q0 -111 -76.5 -187t-187.5 -76q-108 0 -185 77t-77 186q0 110 77 187t185 77q111 0 187.5 -77t76.5 -187zM536 712q0 82 -55.5 137t-135.5 55t-135 -55t-55 -137q0 -78 55 -134.5t135 -56.5t135.5 56.5t55.5 134.5z" />
<glyph unicode="&#xfb23;" horiz-adv-x="700" d="M609 712q0 -111 -76.5 -187t-187.5 -76q-108 0 -185 77t-77 186q0 110 77 187t185 77q111 0 187.5 -77t76.5 -187zM536 712q0 82 -55.5 137t-135.5 55t-135 -55t-55 -137q0 -78 55 -134.5t135 -56.5t135.5 56.5t55.5 134.5z" />
<glyph unicode="&#xfb24;" horiz-adv-x="700" d="M609 712q0 -111 -76.5 -187t-187.5 -76q-108 0 -185 77t-77 186q0 110 77 187t185 77q111 0 187.5 -77t76.5 -187zM536 712q0 82 -55.5 137t-135.5 55t-135 -55t-55 -137q0 -78 55 -134.5t135 -56.5t135.5 56.5t55.5 134.5z" />
<glyph unicode="&#xfb25;" horiz-adv-x="700" d="M609 712q0 -111 -76.5 -187t-187.5 -76q-108 0 -185 77t-77 186q0 110 77 187t185 77q111 0 187.5 -77t76.5 -187zM536 712q0 82 -55.5 137t-135.5 55t-135 -55t-55 -137q0 -78 55 -134.5t135 -56.5t135.5 56.5t55.5 134.5z" />
<glyph unicode="&#xfb26;" horiz-adv-x="700" d="M609 712q0 -111 -76.5 -187t-187.5 -76q-108 0 -185 77t-77 186q0 110 77 187t185 77q111 0 187.5 -77t76.5 -187zM536 712q0 82 -55.5 137t-135.5 55t-135 -55t-55 -137q0 -78 55 -134.5t135 -56.5t135.5 56.5t55.5 134.5z" />
<glyph unicode="&#xfb27;" horiz-adv-x="700" d="M609 712q0 -111 -76.5 -187t-187.5 -76q-108 0 -185 77t-77 186q0 110 77 187t185 77q111 0 187.5 -77t76.5 -187zM536 712q0 82 -55.5 137t-135.5 55t-135 -55t-55 -137q0 -78 55 -134.5t135 -56.5t135.5 56.5t55.5 134.5z" />
<glyph unicode="&#xfb28;" horiz-adv-x="700" d="M609 712q0 -111 -76.5 -187t-187.5 -76q-108 0 -185 77t-77 186q0 110 77 187t185 77q111 0 187.5 -77t76.5 -187zM536 712q0 82 -55.5 137t-135.5 55t-135 -55t-55 -137q0 -78 55 -134.5t135 -56.5t135.5 56.5t55.5 134.5z" />
<glyph unicode="&#xfb29;" horiz-adv-x="823" d="M761 643v-92q0 -25 -24 -25h-651q-25 0 -25 25v92q0 25 25 25h256v256q0 24 24 24h92q25 0 25 -24v-256h254q24 0 24 -25z" />
<glyph unicode="&#xfb2a;" horiz-adv-x="1413" d="M1290 1158l-90 -580q-22 -139 -66 -257.5t-122 -202.5q-41 -44 -87.5 -71t-91 -41.5t-84.5 -19.5t-68 -5q-103 0 -181.5 28t-137 92t-98 168.5t-63.5 258.5l-100 630q-6 39 27 39h110q20 0 29.5 -7.5t11.5 -23.5l79 -578q3 -24 7 -50.5t8.5 -52t9 -48t9.5 -39.5 q55 21 92.5 55.5t60.5 85t33 118.5t12 157l5 344q0 39 37 39h104q20 0 27.5 -10.5t6.5 -30.5l-10 -295q-4 -107 -20.5 -195t-55.5 -157t-104.5 -119t-167.5 -81q18 -58 43 -99t58.5 -66.5t76 -37t96.5 -11.5q11 0 34.5 4t52.5 14.5t59.5 27.5t55.5 44t46 60t39 79t33 106.5 t26 142.5l81 591q2 17 11.5 25t29.5 8h109q33 0 27 -39zM1275 1440q0 -35 -25.5 -60.5t-60.5 -25.5q-34 0 -60 25.5t-26 60.5q0 33 26 58.5t60 25.5q39 0 62.5 -23.5t23.5 -60.5z" />
<glyph unicode="&#xfb2b;" horiz-adv-x="1413" d="M1290 1158l-90 -580q-22 -139 -66 -257.5t-122 -202.5q-41 -44 -87.5 -71t-91 -41.5t-84.5 -19.5t-68 -5q-103 0 -181.5 28t-137 92t-98 168.5t-63.5 258.5l-100 630q-6 39 27 39h110q20 0 29.5 -7.5t11.5 -23.5l79 -578q3 -24 7 -50.5t8.5 -52t9 -48t9.5 -39.5 q55 21 92.5 55.5t60.5 85t33 118.5t12 157l5 344q0 39 37 39h104q20 0 27.5 -10.5t6.5 -30.5l-10 -295q-4 -107 -20.5 -195t-55.5 -157t-104.5 -119t-167.5 -81q18 -58 43 -99t58.5 -66.5t76 -37t96.5 -11.5q11 0 34.5 4t52.5 14.5t59.5 27.5t55.5 44t46 60t39 79t33 106.5 t26 142.5l81 591q2 17 11.5 25t29.5 8h109q33 0 27 -39zM275 1470q0 -35 -25.5 -60.5t-60.5 -25.5q-34 0 -60 25.5t-26 60.5q0 33 26 58.5t60 25.5q39 0 62.5 -23.5t23.5 -60.5z" />
<glyph unicode="&#xfb2c;" horiz-adv-x="1413" d="M1290 1158l-90 -580q-22 -139 -66 -257.5t-122 -202.5q-41 -44 -87.5 -71t-91 -41.5t-84.5 -19.5t-68 -5q-103 0 -181.5 28t-137 92t-98 168.5t-63.5 258.5l-100 630q-6 39 27 39h110q20 0 29.5 -7.5t11.5 -23.5l79 -578q3 -24 7 -50.5t8.5 -52t9 -48t9.5 -39.5 q55 21 92.5 55.5t60.5 85t33 118.5t12 157l5 344q0 39 37 39h104q20 0 27.5 -10.5t6.5 -30.5l-10 -295q-4 -107 -20.5 -195t-55.5 -157t-104.5 -119t-167.5 -81q18 -58 43 -99t58.5 -66.5t76 -37t96.5 -11.5q11 0 34.5 4t52.5 14.5t59.5 27.5t55.5 44t46 60t39 79t33 106.5 t26 142.5l81 591q2 17 11.5 25t29.5 8h109q33 0 27 -39zM952 608q0 -35 -25.5 -60.5t-60.5 -25.5t-60.5 25.5t-25.5 60.5q0 33 27 58.5t59 25.5q37 0 61.5 -23.5t24.5 -60.5zM1275 1440q0 -35 -25.5 -60.5t-60.5 -25.5q-34 0 -60 25.5t-26 60.5q0 33 26 58.5t60 25.5 q39 0 62.5 -23.5t23.5 -60.5z" />
<glyph unicode="&#xfb2d;" horiz-adv-x="1413" d="M1290 1158l-90 -580q-22 -139 -66 -257.5t-122 -202.5q-41 -44 -87.5 -71t-91 -41.5t-84.5 -19.5t-68 -5q-103 0 -181.5 28t-137 92t-98 168.5t-63.5 258.5l-100 630q-6 39 27 39h110q20 0 29.5 -7.5t11.5 -23.5l79 -578q3 -24 7 -50.5t8.5 -52t9 -48t9.5 -39.5 q55 21 92.5 55.5t60.5 85t33 118.5t12 157l5 344q0 39 37 39h104q20 0 27.5 -10.5t6.5 -30.5l-10 -295q-4 -107 -20.5 -195t-55.5 -157t-104.5 -119t-167.5 -81q18 -58 43 -99t58.5 -66.5t76 -37t96.5 -11.5q11 0 34.5 4t52.5 14.5t59.5 27.5t55.5 44t46 60t39 79t33 106.5 t26 142.5l81 591q2 17 11.5 25t29.5 8h109q33 0 27 -39zM952 608q0 -35 -25.5 -60.5t-60.5 -25.5t-60.5 25.5t-25.5 60.5q0 33 27 58.5t59 25.5q37 0 61.5 -23.5t24.5 -60.5zM275 1470q0 -35 -25.5 -60.5t-60.5 -25.5q-34 0 -60 25.5t-26 60.5q0 33 26 58.5t60 25.5 q39 0 62.5 -23.5t23.5 -60.5z" />
<glyph unicode="&#xfb31;" horiz-adv-x="1064" d="M981 94v-71q0 -23 -21 -23h-850q-27 0 -27 25v69q0 27 27 27h582v698q0 143 -80 217q-35 33 -83.5 49.5t-107.5 16.5q-39 0 -76 -6.5t-69 -16.5t-58 -22.5t-42 -23.5q-24 -18 -41 8l-33 49q-17 25 2 41q22 18 57.5 34t80 28.5t95.5 20t105 7.5q201 0 312.5 -100.5 t111.5 -299.5v-700h94q21 0 21 -27zM435 572q0 -35 -25.5 -60.5t-60.5 -25.5t-60.5 25.5t-25.5 60.5q0 33 27 58.5t59 25.5q37 0 61.5 -23.5t24.5 -60.5z" />
<glyph unicode="&#xfb32;" horiz-adv-x="811" d="M734 63q12 -31 -12 -40l-89 -34q-17 -7 -25 -2.5t-15 17.5q-8 15 -20 45t-25.5 67.5t-27 80t-22.5 81.5q-30 -46 -72.5 -92.5t-91.5 -87t-101 -71.5t-101 -46q-13 -4 -19 2t-8 17l-26 112q-6 28 17 37q45 18 95 47t99.5 65.5t94.5 79t80 86.5l-57 459q-8 62 -22 102 t-35 62.5t-48 31t-60 8.5q-15 0 -30.5 -4t-29.5 -9q-12 -4 -18.5 3t-8.5 19l-8 73q-2 11 3 16.5t16 8.5q20 6 46.5 11t47.5 5q73 1 128.5 -15.5t94.5 -54t63 -97.5t35 -145l59 -460q14 -105 39 -202t54 -176zM325 572q0 -35 -25.5 -60.5t-60.5 -25.5t-60.5 25.5t-25.5 60.5 q0 33 27 58.5t59 25.5q37 0 61.5 -23.5t24.5 -60.5z" />
<glyph unicode="&#xfb33;" horiz-adv-x="1030" d="M940 1171v-72q0 -23 -20 -23h-129v-1037q0 -39 -35 -39h-105q-32 0 -32 39v1037h-512q-27 0 -27 25v70q0 26 27 26h813q20 0 20 -26zM425 572q0 -35 -25.5 -60.5t-60.5 -25.5t-60.5 25.5t-25.5 60.5q0 33 27 58.5t59 25.5q37 0 61.5 -23.5t24.5 -60.5z" />
<glyph unicode="&#xfb34;" horiz-adv-x="1147" d="M325 710l-22 -671q-2 -39 -35 -39h-105q-37 0 -36 37l24 666q1 36 38 37l103 5q35 2 33 -35zM997 805l1 -766q0 -39 -35 -39h-102q-37 0 -37 37l-1 770q0 151 -78.5 221t-241.5 70q-50 0 -98 -8.5t-88.5 -20.5t-71.5 -26t-49 -24q-24 -14 -35 5l-41 68q-13 21 6 33 q25 16 63.5 33.5t88 32.5t109 24.5t126.5 9.5q51 0 102 -5t97 -16t86.5 -28.5t70.5 -43.5q65 -55 96.5 -139t31.5 -188zM645 572q0 -35 -25.5 -60.5t-60.5 -25.5t-60.5 25.5t-25.5 60.5q0 33 27 58.5t59 25.5q37 0 61.5 -23.5t24.5 -60.5z" />
<glyph unicode="&#xfb35;" horiz-adv-x="482" d="M327 1158v-1121q0 -37 -35 -37h-102q-35 0 -35 35v1121q0 41 37 41h102q33 0 33 -39zM95 582q0 -35 -25.5 -60.5t-60.5 -25.5t-60.5 25.5t-25.5 60.5q0 33 27 58.5t59 25.5q37 0 61.5 -23.5t24.5 -60.5z" />
<glyph unicode="&#xfb36;" horiz-adv-x="691" d="M590 1187l18 -59q7 -23 -8 -29q-113 -36 -151 -123q-31 -71 -31 -270v-669q0 -37 -27 -37h-120q-27 0 -27 37v525q0 97 4 167.5t14 115.5q30 144 123 219q-17 -2 -33 -3t-30 -1q-175 0 -234 35q-12 8 -6 28l23 76q6 19 34 10q94 -28 199 -28q57 0 112.5 5.5t110.5 16.5 q23 5 29 -16zM195 582q0 -35 -25.5 -60.5t-60.5 -25.5t-60.5 25.5t-25.5 60.5q0 33 27 58.5t59 25.5q37 0 61.5 -23.5t24.5 -60.5z" />
<glyph unicode="&#xfb38;" horiz-adv-x="1207" d="M1084 675q0 -59 -6.5 -121t-20.5 -123.5t-36 -119.5t-52 -108q-35 -57 -77 -98.5t-87.5 -68t-93 -39t-93.5 -12.5q-97 0 -182.5 35t-142.5 110q-54 72 -83.5 178t-40.5 243l-46 597q-3 49 25 49h104q41 0 43 -35l40 -605q8 -107 23.5 -186t44.5 -134q21 -39 46 -66 t52 -43t55 -23t57 -7t61 11t63 34t58.5 58.5t48.5 84.5q36 85 50 177t14 192q0 51 -2.5 104t-9.5 101.5t-18 89t-28 65.5q-26 40 -63 57.5t-79 17.5q-37 0 -73.5 -17.5t-61.5 -52.5q-18 -27 -45 -6l-46 36q-20 16 -6 37q18 26 44 49t58.5 40.5t71 28t80.5 10.5q86 0 156 -33 t118 -105q23 -34 38.5 -79t24.5 -97.5t13 -110t4 -115.5zM696 577q0 -35 -25.5 -60.5t-60.5 -25.5t-60.5 25.5t-25.5 60.5q0 33 27 58.5t59 25.5q37 0 61.5 -23.5t24.5 -60.5z" />
<glyph unicode="&#xfb39;" horiz-adv-x="460" d="M317 1158v-502q0 -17 -4.5 -31t-20.5 -25l-111 -73q-16 -11 -27 -5t-11 24v610q0 41 37 41h104q33 0 33 -39zM96 842q0 -35 -25.5 -60.5t-60.5 -25.5t-60.5 25.5t-25.5 60.5q0 33 27 58.5t59 25.5q37 0 61.5 -23.5t24.5 -60.5z" />
<glyph unicode="&#xfb3a;" horiz-adv-x="997" d="M852 815v-1185q0 -39 -35 -39h-102q-37 0 -37 37v1179q0 289 -283 289q-69 0 -133.5 -17t-126.5 -49q-23 -12 -31 6l-39 70q-12 19 6 33q142 82 365 82q189 0 299 -103q117 -109 117 -303zM424 605q0 -35 -25.5 -60.5t-60.5 -25.5t-60.5 25.5t-25.5 60.5q0 33 27 58.5 t59 25.5q37 0 61.5 -23.5t24.5 -60.5z" />
<glyph unicode="&#xfb3b;" horiz-adv-x="990" d="M890 606q0 -134 -29 -246t-91 -199q-66 -91 -157 -136t-204 -45q-100 0 -177.5 16t-135.5 52q-14 8 -14.5 19.5t7.5 25.5l26 52q12 24 41 6q16 -11 39.5 -20t50.5 -16.5t56.5 -11.5t59.5 -4q85 0 152 35t113 105q42 66 61.5 159t19.5 210t-22.5 208.5t-66.5 154.5 t-109 96t-150 33q-31 0 -61.5 -5t-57.5 -13.5t-48.5 -18.5t-33.5 -20q-22 -18 -37 4l-37 54q-7 10 -4 20.5t17 20.5q57 40 129 60.5t177 20.5q112 0 204.5 -41t157.5 -124t94.5 -195.5t29.5 -256.5zM441 583q0 -35 -25.5 -60.5t-60.5 -25.5t-60.5 25.5t-25.5 60.5 q0 33 27 58.5t59 25.5q37 0 61.5 -23.5t24.5 -60.5z" />
<glyph unicode="&#xfb3c;" horiz-adv-x="1031" d="M909 1089l-106 -626q-18 -107 -51 -190.5t-86 -140.5q-60 -64 -148.5 -98.5t-209.5 -42.5q-24 -1 -29 21l-10 58q-4 25 16 26q181 16 264 123q30 38 48.5 92.5t29.5 124.5l99 620q3 20 -16 20h-601q-19 0 -20 25l-34 459q-2 29 39 28l106 -2q25 0 27 -32l21 -357h570 q15 0 31.5 -3.5t30 -12t22.5 -23.5t9 -38v-15t-2 -16zM411 639q0 -35 -25.5 -60.5t-60.5 -25.5t-60.5 25.5t-25.5 60.5q0 33 27 58.5t59 25.5q37 0 61.5 -23.5t24.5 -60.5z" />
<glyph unicode="&#xfb3e;" horiz-adv-x="1247" d="M1080 882l34 -443q2 -15 2 -30v-31q0 -93 -21 -161t-71 -122q-53 -59 -129 -86.5t-176 -27.5q-61 0 -110.5 9.5t-84.5 23.5q-20 9 -13 33l21 70q7 22 37 10q33 -12 67.5 -20t66.5 -8q65 0 112.5 22t76.5 59q32 40 43 91.5t6 118.5l-35 483q-4 55 -20 96.5t-41.5 69 t-58.5 41.5t-72 14q-27 0 -58 -8.5t-67 -28.5t-78.5 -52.5t-93.5 -81.5l-126 -892q-4 -31 -36 -31h-113q-27 0 -21 37l119 816q2 11 2 20.5v18.5q0 66 -34.5 123.5t-97.5 104.5q-34 25 -19 43l41 49q18 21 31 17q69 -26 127 -78t96 -118q63 57 116 93t97.5 56.5t81 27.5 t66.5 7q70 0 128.5 -21.5t102 -63.5t70 -105t32.5 -145zM725 583q0 -35 -25.5 -60.5t-60.5 -25.5t-60.5 25.5t-25.5 60.5q0 33 27 58.5t59 25.5q37 0 61.5 -23.5t24.5 -60.5z" />
<glyph unicode="&#xfb40;" horiz-adv-x="728" d="M573 853v-826q0 -27 -29 -27h-442q-27 0 -27 25v75q0 21 27 21h297v733q0 61 -12 112t-51 87q-14 13 -34 20t-41 9t-40.5 0.5t-32.5 -5.5q-17 -5 -21.5 3t-6.5 22l-3 68q-1 12 5 18.5t17 10.5q26 10 63 13.5t76.5 -2t79 -20.5t71.5 -43q58 -51 81 -128.5t23 -165.5z M276 592q0 -35 -25.5 -60.5t-60.5 -25.5t-60.5 25.5t-25.5 60.5q0 33 27 58.5t59 25.5q37 0 61.5 -23.5t24.5 -60.5z" />
<glyph unicode="&#xfb41;" horiz-adv-x="1214" d="M921 664q0 117 -19 201.5t-59.5 139.5t-103 81t-149.5 26q-34 0 -71.5 -3.5t-74 -10t-69.5 -15.5t-58 -20l30 -479q8 -121 26.5 -213t44.5 -145q31 -62 81.5 -95t117.5 -33q17 0 42 4.5t52.5 16.5t54.5 32.5t49 52.5q45 68 75.5 184.5t30.5 275.5zM1101 681 q0 -79 -12 -158t-33 -150.5t-51 -133t-66 -106.5q-33 -41 -71.5 -69.5t-79.5 -46.5t-84.5 -26t-86.5 -8q-110 0 -193 41.5t-140 128.5q-49 75 -74 186.5t-35 255.5l-29 435q-11 10 -19.5 16t-22.5 17q-16 11 -16 29t20 28q36 18 91.5 37t123 34.5t143 25.5t152.5 10 q124 0 215.5 -31t150.5 -97t88 -169.5t29 -248.5zM707 624q0 -35 -25.5 -60.5t-60.5 -25.5t-60.5 25.5t-25.5 60.5q0 33 27 58.5t59 25.5q37 0 61.5 -23.5t24.5 -60.5z" />
<glyph unicode="&#xfb43;" horiz-adv-x="1160" d="M1017 776v-1144q0 -41 -37 -41h-102q-37 0 -37 39v1130q0 176 -81.5 263t-251.5 87q-26 0 -52.5 -2t-50 -5.5t-42.5 -7.5t-30 -7v-349q0 -118 98 -118q33 0 82 16q25 7 33 -12l18 -47q9 -23 -10 -33q-78 -41 -164 -41q-57 0 -100 18t-72.5 51.5t-44 80.5t-14.5 104v299 l-40 37q-14 14 -14 22q0 14 20 25q37 19 84.5 35t101 28t109 18.5t108.5 6.5q242 0 365.5 -116t123.5 -337zM763 724q0 -35 -25.5 -60.5t-60.5 -25.5t-60.5 25.5t-25.5 60.5q0 33 27 58.5t59 25.5q37 0 61.5 -23.5t24.5 -60.5z" />
<glyph unicode="&#xfb44;" horiz-adv-x="1151" d="M1038 612q0 -144 -34.5 -261.5t-113.5 -205.5q-73 -82 -163 -120t-199 -38q-107 0 -205 19.5t-173 64.5q-26 15 -14 41l25 57q15 35 43 16q61 -42 134 -60.5t145 -18.5q173 0 276 121q55 66 78 161t23 224q0 249 -89 373.5t-271 124.5q-52 0 -99 -9.5t-76 -17.5v-352 q0 -119 99 -119q16 0 33.5 4.5t37.5 12.5q22 9 33 -13l18 -49q7 -18 -10 -32q-62 -41 -153 -41q-57 0 -100.5 18t-73 51.5t-44 80.5t-14.5 104v299l-38 48q-13 17 -13 26.5t19 20.5q23 13 62.5 28.5t91.5 28.5t112.5 21.5t125.5 8.5q245 0 382 -146q75 -79 110 -196t35 -275 zM763 724q0 -35 -25.5 -60.5t-60.5 -25.5t-60.5 25.5t-25.5 60.5q0 33 27 58.5t59 25.5q37 0 61.5 -23.5t24.5 -60.5z" />
<glyph unicode="&#xfb46;" horiz-adv-x="1077" d="M956 1158l-44 -238q-15 -80 -38 -143t-56 -115.5t-77.5 -97t-102.5 -87.5l258 -323q17 -22 27 -40.5t10 -41.5v-37q0 -35 -39 -35h-743q-33 0 -33 35v53q0 33 33 33h561l-264 335q-51 64 -96 131t-81 127q-56 94 -104.5 202.5t-85.5 239.5q-12 41 23 41h112q32 0 43 -26 q28 -92 65 -178t79 -163.5t87.5 -146t91.5 -126.5q64 53 99 143t57 225l38 237q6 35 41 35h106q40 0 33 -39zM314 470q0 -35 -25.5 -60.5t-60.5 -25.5t-60.5 25.5t-25.5 60.5q0 33 27 58.5t59 25.5q37 0 61.5 -23.5t24.5 -60.5z" />
<glyph unicode="&#xfb47;" horiz-adv-x="1185" d="M330 757v-1127q0 -39 -33 -39h-101q-38 0 -38 39v1125q0 34 36 34h101q35 0 35 -32zM1065 841q0 -77 -11 -154.5t-30 -152.5t-44.5 -146t-54.5 -136q-33 -72 -75.5 -121t-90 -79t-97 -42.5t-95.5 -12.5q-70 0 -86 13q-10 7 -4 35l12 64q2 21 27 18q23 -2 34 -4t9 -2 q28 0 57.5 12t58.5 40t57.5 74t54.5 114q42 111 67.5 228t25.5 234q0 136 -65.5 202t-211.5 66q-67 0 -132.5 -4.5t-122.5 -12t-102 -16t-71 -16.5q-20 -6 -32.5 -3t-16.5 20l-14 63q-4 17 0 29t15 15q34 10 87 20t119 18t141 13.5t153 5.5q226 0 332 -93t106 -289zM660 643 q0 -35 -25.5 -60.5t-60.5 -25.5t-60.5 25.5t-25.5 60.5q0 33 27 58.5t59 25.5q37 0 61.5 -23.5t24.5 -60.5z" />
<glyph unicode="&#xfb48;" horiz-adv-x="989" d="M856 815v-776q0 -39 -35 -39h-103q-37 0 -37 37v770q0 289 -282 289q-37 0 -73.5 -5t-70 -13t-62 -18.5t-48.5 -21.5q-22 -12 -31 6l-39 70q-12 19 6 33q64 35 159.5 54.5t204.5 19.5q94 0 170 -26t132 -79q109 -104 109 -301zM438 606q0 -35 -25.5 -60.5t-60.5 -25.5 t-60.5 25.5t-25.5 60.5q0 33 27 58.5t59 25.5q37 0 61.5 -23.5t24.5 -60.5z" />
<glyph unicode="&#xfb49;" horiz-adv-x="1413" d="M1290 1158l-90 -580q-22 -139 -66 -257.5t-122 -202.5q-41 -44 -87.5 -71t-91 -41.5t-84.5 -19.5t-68 -5q-103 0 -181.5 28t-137 92t-98 168.5t-63.5 258.5l-100 630q-6 39 27 39h110q20 0 29.5 -7.5t11.5 -23.5l79 -578q3 -24 7 -50.5t8.5 -52t9 -48t9.5 -39.5 q55 21 92.5 55.5t60.5 85t33 118.5t12 157l5 344q0 39 37 39h104q20 0 27.5 -10.5t6.5 -30.5l-10 -295q-4 -107 -20.5 -195t-55.5 -157t-104.5 -119t-167.5 -81q18 -58 43 -99t58.5 -66.5t76 -37t96.5 -11.5q11 0 34.5 4t52.5 14.5t59.5 27.5t55.5 44t46 60t39 79t33 106.5 t26 142.5l81 591q2 17 11.5 25t29.5 8h109q33 0 27 -39zM952 608q0 -35 -25.5 -60.5t-60.5 -25.5t-60.5 25.5t-25.5 60.5q0 33 27 58.5t59 25.5q37 0 61.5 -23.5t24.5 -60.5z" />
<glyph unicode="&#xfb4a;" horiz-adv-x="1252" d="M1106 811l16 -772q1 -39 -35 -39h-103q-33 0 -34 37l-18 786q-3 146 -74.5 214.5t-229.5 68.5q-18 0 -42.5 -1.5t-49 -4t-47 -6t-36.5 -7.5l-22 -779q-5 -182 -92.5 -263.5t-253.5 -78.5q-22 0 -26 17l-12 54q-9 43 23 43q94 -2 138.5 48.5t49.5 167.5l29 759l-94 -27 q-11 -3 -20 -1t-13 13l-19 55q-5 14 -2 24.5t17 16.5q41 16 98 31.5t122.5 28t135.5 20t137 7.5q230 0 341 -102t116 -310zM768 615q0 -35 -25.5 -60.5t-60.5 -25.5t-60.5 25.5t-25.5 60.5q0 33 27 58.5t59 25.5q37 0 61.5 -23.5t24.5 -60.5z" />
<glyph unicode="&#xfb4b;" horiz-adv-x="482" d="M327 1158v-1121q0 -37 -35 -37h-102q-35 0 -35 35v1121q0 41 37 41h102q33 0 33 -39zM316 1470q0 -35 -25.5 -60.5t-60.5 -25.5q-34 0 -60 25.5t-26 60.5q0 33 26 58.5t60 25.5q39 0 62.5 -23.5t23.5 -60.5z" />
<glyph horiz-adv-x="0" />
<glyph horiz-adv-x="700" d="M609 712q0 -111 -76.5 -187t-187.5 -76q-108 0 -185 77t-77 186q0 110 77 187t185 77q111 0 187.5 -77t76.5 -187zM536 712q0 82 -55.5 137t-135.5 55t-135 -55t-55 -137q0 -78 55 -134.5t135 -56.5t135.5 56.5t55.5 134.5z" />
<glyph horiz-adv-x="700" d="M609 712q0 -111 -76.5 -187t-187.5 -76q-108 0 -185 77t-77 186q0 110 77 187t185 77q111 0 187.5 -77t76.5 -187zM536 712q0 82 -55.5 137t-135.5 55t-135 -55t-55 -137q0 -78 55 -134.5t135 -56.5t135.5 56.5t55.5 134.5z" />
<glyph horiz-adv-x="700" d="M609 712q0 -111 -76.5 -187t-187.5 -76q-108 0 -185 77t-77 186q0 110 77 187t185 77q111 0 187.5 -77t76.5 -187zM536 712q0 82 -55.5 137t-135.5 55t-135 -55t-55 -137q0 -78 55 -134.5t135 -56.5t135.5 56.5t55.5 134.5z" />
<glyph horiz-adv-x="700" d="M609 712q0 -111 -76.5 -187t-187.5 -76q-108 0 -185 77t-77 186q0 110 77 187t185 77q111 0 187.5 -77t76.5 -187zM536 712q0 82 -55.5 137t-135.5 55t-135 -55t-55 -137q0 -78 55 -134.5t135 -56.5t135.5 56.5t55.5 134.5z" />
<glyph d="M657 770q0 -119 -82.5 -202t-203.5 -83q-117 0 -200 84t-83 201q0 119 83 203t200 84q121 0 203.5 -84t82.5 -203zM578 770q0 88 -59.5 148.5t-147.5 60.5q-86 0 -145.5 -60.5t-59.5 -148.5q0 -84 59.5 -145.5t145.5 -61.5q88 0 147.5 61.5t59.5 145.5z" />
<glyph d="M657 770q0 -119 -82.5 -202t-203.5 -83q-117 0 -200 84t-83 201q0 119 83 203t200 84q121 0 203.5 -84t82.5 -203zM578 770q0 88 -59.5 148.5t-147.5 60.5q-86 0 -145.5 -60.5t-59.5 -148.5q0 -84 59.5 -145.5t145.5 -61.5q88 0 147.5 61.5t59.5 145.5z" />
<glyph d="M657 770q0 -119 -82.5 -202t-203.5 -83q-117 0 -200 84t-83 201q0 119 83 203t200 84q121 0 203.5 -84t82.5 -203zM578 770q0 88 -59.5 148.5t-147.5 60.5q-86 0 -145.5 -60.5t-59.5 -148.5q0 -84 59.5 -145.5t145.5 -61.5q88 0 147.5 61.5t59.5 145.5z" />
<glyph horiz-adv-x="0" d="M934 -299q0 -39 -26.5 -66.5t-67.5 -27.5q-39 0 -65.5 27.5t-26.5 66.5t26.5 64.5t65.5 25.5t66.5 -25.5t27.5 -64.5zM934 -600q0 -41 -26.5 -67.5t-67.5 -26.5q-39 0 -65.5 26.5t-26.5 67.5q0 37 27.5 64.5t64.5 27.5q41 0 67.5 -26.5t26.5 -65.5zM639 -672h-94v445h94 v-445zM418 -346h-170l-6 -100q0 -23 29.5 -67t29.5 -65q0 -40 -26.5 -67t-65.5 -27t-65.5 28t-26.5 66q0 25 30.5 67t30.5 67l-8 98h-170v119h418v-119z" />
<glyph d="M657 770q0 -119 -82.5 -202t-203.5 -83q-117 0 -200 84t-83 201q0 119 83 203t200 84q121 0 203.5 -84t82.5 -203zM578 770q0 88 -59.5 148.5t-147.5 60.5q-86 0 -145.5 -60.5t-59.5 -148.5q0 -84 59.5 -145.5t145.5 -61.5q88 0 147.5 61.5t59.5 145.5z" />
<glyph d="M657 770q0 -119 -82.5 -202t-203.5 -83q-117 0 -200 84t-83 201q0 119 83 203t200 84q121 0 203.5 -84t82.5 -203zM578 770q0 88 -59.5 148.5t-147.5 60.5q-86 0 -145.5 -60.5t-59.5 -148.5q0 -84 59.5 -145.5t145.5 -61.5q88 0 147.5 61.5t59.5 145.5z" />
<glyph d="M657 770q0 -119 -82.5 -202t-203.5 -83q-117 0 -200 84t-83 201q0 119 83 203t200 84q121 0 203.5 -84t82.5 -203zM578 770q0 88 -59.5 148.5t-147.5 60.5q-86 0 -145.5 -60.5t-59.5 -148.5q0 -84 59.5 -145.5t145.5 -61.5q88 0 147.5 61.5t59.5 145.5z" />
<glyph d="M657 770q0 -119 -82.5 -202t-203.5 -83q-117 0 -200 84t-83 201q0 119 83 203t200 84q121 0 203.5 -84t82.5 -203zM578 770q0 88 -59.5 148.5t-147.5 60.5q-86 0 -145.5 -60.5t-59.5 -148.5q0 -84 59.5 -145.5t145.5 -61.5q88 0 147.5 61.5t59.5 145.5z" />
</font>
</defs>
</svg>
