<?xml version="1.0" encoding="UTF-8"?>
<svg width="15px" height="20px" viewBox="0 0 15 20" version="1.1" xmlns="http://www.w3.org/2000/svg" xmlns:xlink="http://www.w3.org/1999/xlink">
    <title>_55-2</title>
    <g id="Page-1" stroke="none" stroke-width="1" fill-rule="evenodd">
        <g id="icons_sprite" transform="translate(-375.000000, 0.000000)" fill="#000000" fill-rule="nonzero">
            <g id="_55-2" transform="translate(375.000000, 0.000000)">
                <path d="M7.5,20 C7.29747739,20 7.10195272,19.9258873 6.95,19.792 C6.666,19.542 -4.18502039e-16,13.642 -4.18502039e-16,7.817 C-0.0792920944,3.59054883 3.2738872,0.0956418208 7.5,-1.77635684e-15 C11.7261128,0.0956418208 15.0792921,3.59054883 15,7.817 C15,13.65 8.333,19.542 8.05,19.792 C7.89804728,19.9258873 7.70252261,20 7.5,20 L7.5,20 Z M7.5,1.667 C4.19447974,1.76236611 1.58746562,4.51106092 1.667,7.817 C1.667,11.984 5.95,16.525 7.5,18.025 C9.05,16.525 13.333,11.992 13.333,7.817 C13.4125344,4.51106092 10.8055203,1.76236611 7.5,1.667 Z" id="Контур_2743-3"></path>
                <path d="M7.5,11.75 C5.290861,11.75 3.5,9.959139 3.5,7.75 C3.5,5.540861 5.290861,3.75 7.5,3.75 C9.709139,3.75 11.5,5.540861 11.5,7.75 C11.5,8.81086596 11.0785726,9.82828161 10.3284271,10.5784271 C9.57828161,11.3285726 8.56086596,11.75 7.5,11.75 Z M7.5,5.75 C6.3954305,5.75 5.5,6.6454305 5.5,7.75 C5.5,8.8545695 6.3954305,9.75 7.5,9.75 C8.6045695,9.75 9.5,8.8545695 9.5,7.75 C9.5,6.6454305 8.6045695,5.75 7.5,5.75 Z" id="Контур_2744-3"></path>
            </g>
        </g>
    </g>
</svg>