<?xml version="1.0" encoding="UTF-8"?>
<svg width="21px" height="19px" viewBox="0 0 21 19" version="1.1" xmlns="http://www.w3.org/2000/svg" xmlns:xlink="http://www.w3.org/1999/xlink">
    <title>box-icon</title>
    <g id="Page-1" stroke="none" stroke-width="1" fill-rule="evenodd">
        <g id="icons_sprite" transform="translate(0.000000, -258.000000)" fill="#000000" fill-rule="nonzero">
            <g id="box-icon" transform="translate(0.000000, 258.000000)">
                <path d="M3.165,2.722 L3.165,7.085 L5.195,6.696 L5.195,2.117 L7.009,1.573 L8.845,1.033 C8.867,1.033 8.888,1.033 8.888,1.011 L8.931,1.011 C9.03791973,0.989397306 9.14808027,0.989397306 9.255,1.011 L9.298,1.011 C9.32,1.011 9.341,1.011 9.341,1.033 L12.754,2.053 C12.3222644,2.50784668 11.9724428,3.03393224 11.72,3.608 L9.971,3.09 L9.971,16.415 L16.386,14.493 L16.386,10.606 L16.408,10.606 C17.0125611,10.6005233 17.6116583,10.4909199 18.179,10.282 L18.222,15.739 C18.252,15.761 17.922,15.876 9.367,18.468 C9.19911169,18.5254478 9.01688831,18.5254478 8.849,18.468 C0.7,15.992 0.038,15.807 0.02,15.757 L0,3.86 L3.165,2.722 Z M16.405,1.944 C18.3970911,1.944 20.012,3.55890891 20.012,5.551 C20.012,7.54309109 18.3970911,9.158 16.405,9.158 C14.4129089,9.158 12.798,7.54309109 12.798,5.551 C12.8018534,3.56066928 14.4146683,1.94830156 16.405,1.945 L16.405,1.944 Z M14.59,5.66 L15.26,6.33 L15.951,7.021 L16.642,6.33 L18.22,4.752 L17.529,4.061 L15.951,5.638 L15.281,4.968 L14.59,5.66 Z" id="Контур_2737"></path>
            </g>
        </g>
    </g>
</svg>