<?xml version="1.0" encoding="UTF-8"?>
<svg width="19px" height="19px" viewBox="0 0 19 19" version="1.1" xmlns="http://www.w3.org/2000/svg" xmlns:xlink="http://www.w3.org/1999/xlink">
    <title>checkbox-on-icon</title>
    <g id="Page-1" stroke="none" stroke-width="1" fill-rule="evenodd">
        <g id="icons_sprite" transform="translate(-226.000000, -189.000000)">
            <g id="checkbox-on-icon" transform="translate(227.000000, 190.000000)">
                <g id="Прямоугольник_136">
                    <rect id="Rectangle" fill="#FFFFFF" fill-rule="nonzero" x="0" y="0" width="17" height="17"></rect>
                    <rect id="Rectangle" stroke="#000000" x="0.5" y="0.5" width="16" height="16"></rect>
                </g>
                <path d="M6.673,12.431 L2.873,8.631 C2.76308153,8.52126349 2.70131465,8.37231958 2.70131465,8.217 C2.70131465,8.06168042 2.76308153,7.91273651 2.873,7.803 L3.698,6.977 C3.80773651,6.86708153 3.95668042,6.80531465 4.112,6.80531465 C4.26731958,6.80531465 4.41626349,6.86708153 4.526,6.977 L7.088,9.539 L12.575,4.047 C12.6847365,3.93708153 12.8336804,3.87531465 12.989,3.87531465 C13.1443196,3.87531465 13.2932635,3.93708153 13.403,4.047 L14.23,4.875 C14.3399185,4.98473651 14.4016853,5.13368042 14.4016853,5.289 C14.4016853,5.44431958 14.3399185,5.59326349 14.23,5.703 L7.498,12.431 C7.38826349,12.5409185 7.23931958,12.6026853 7.084,12.6026853 C6.92868042,12.6026853 6.77973651,12.5409185 6.67,12.431 L6.673,12.431 Z" id="check" fill="#0C0C0C" fill-rule="nonzero"></path>
            </g>
        </g>
    </g>
</svg>