<?xml version="1.0" encoding="UTF-8"?>
<svg width="20px" height="20px" viewBox="0 0 20 20" version="1.1" xmlns="http://www.w3.org/2000/svg" xmlns:xlink="http://www.w3.org/1999/xlink">
    <title>circle</title>
    <g id="Page-1" stroke="none" stroke-width="1" fill-rule="evenodd">
        <g id="icons_sprite" transform="translate(-130.000000, -112.000000)" fill="#000000" fill-rule="nonzero">
            <g id="icons_sprite_19_08_svg">
                <path d="M140,112 C134.477153,112 130,116.477153 130,122 C130,127.522847 134.477153,132 140,132 C145.522847,132 150,127.522847 150,122 C150,119.347835 148.946432,116.804296 147.071068,114.928932 C145.195704,113.053568 142.652165,112 140,112 Z M140,130.065001 C135.545823,130.065001 131.935,126.454177 131.935,122 C131.935,117.545823 135.545823,113.935 140,113.935 C144.454177,113.935 148.065001,117.545823 148.065001,122 C148.065796,124.139215 147.216349,126.191042 145.703695,127.703695 C144.191042,129.216349 142.139215,130.065796 140,130.065001 Z" id="circle"></path>
            </g>
        </g>
    </g>
</svg>