<?xml version="1.0" encoding="UTF-8"?>
<svg width="20px" height="20px" viewBox="0 0 20 20" version="1.1" xmlns="http://www.w3.org/2000/svg" xmlns:xlink="http://www.w3.org/1999/xlink">
    <title>full-screen-icon</title>
    <g id="Page-1" stroke="none" stroke-width="1" fill-rule="evenodd">
        <g id="icons_sprite" transform="translate(-220.000000, -36.000000)" fill="#000000" fill-rule="nonzero">
            <g id="Сгруппировать_2501" transform="translate(220.000000, 36.000000)">
                <polygon id="Контур_2727" points="13.41 0 13.41 1.558 17.326 1.558 11.726 7.179 12.821 8.274 18.442 2.674 18.442 6.589 20 6.589 20 0"></polygon>
                <polygon id="Контур_2728" points="7.179 11.726 1.558 17.326 1.558 13.41 0 13.41 0 19.999 6.589 19.999 6.589 18.442 2.674 18.442 8.274 12.821"></polygon>
                <polygon id="Контур_2729-3" points="18.442 17.326 12.821 11.726 11.726 12.821 17.326 18.442 13.41 18.442 13.41 20 19.999 20 19.999 13.41 18.442 13.41"></polygon>
                <polygon id="Контур_2730" points="6.589 1.558 6.589 0 0 0 0 6.589 1.558 6.589 1.558 2.674 7.179 8.274 8.274 7.179 2.674 1.558"></polygon>
            </g>
        </g>
    </g>
</svg>