<?xml version="1.0" encoding="UTF-8"?>
<svg width="15px" height="16px" viewBox="0 0 15 16" version="1.1" xmlns="http://www.w3.org/2000/svg" xmlns:xlink="http://www.w3.org/1999/xlink">
    <title>google-logo-color-icon</title>
    <g id="Page-1" stroke="none" stroke-width="1" fill-rule="evenodd">
        <g id="icons_sprite" transform="translate(-238.000000, -226.000000)" fill-rule="nonzero">
            <g id="google-logo-color-icon" transform="translate(238.000000, 226.000000)">
                <path d="M3.516,7.5 C3.51512741,6.7834962 3.70866898,6.08017996 4.076,5.465 L4.076,2.936 L1.548,2.936 C-0.516716878,5.62839368 -0.516716878,9.37160632 1.548,12.064 L4.076,12.064 L4.076,9.535 C3.70866898,8.91982004 3.51512741,8.2165038 3.516,7.5 Z" id="Контур_2742" fill="#FBBD00"></path>
                <path d="M7.5,11.485 L5.742,13.243 L7.5,15.0010306 C9.1507938,15.0057322 10.756319,14.4615281 12.064,13.454 L12.064,10.928 L9.542,10.928 C8.92400652,11.2943888 8.2184381,11.486848 7.5,11.485 Z" id="Контур_2743" fill="#0F9D58"></path>
                <path d="M4.077,9.535 L1.548,12.064 C1.74818725,12.3240574 1.96497238,12.5709052 2.197,12.803 C3.59909725,14.2145153 5.50746771,15.0066691 7.497,15.0030127 L7.497,11.487 C6.09274551,11.4841873 4.79357003,10.7426696 4.077,9.535 Z" id="Контур_2744" fill="#31AA52"></path>
                <path d="M15.000041,7.5 C15.000041,7.04422039 14.958839,6.58937198 14.877,6.141 L14.811,5.781 L7.5,5.781 L7.5,9.297 L11.058,9.297 C10.7175541,9.97445429 10.1900558,10.5401268 9.538,10.927 L12.064,13.457 C12.3240663,13.2568235 12.5709148,13.0400378 12.803,12.808 C14.2153895,11.4034556 15.0066016,9.49186985 15.000041,7.5 L15.000041,7.5 Z" id="Контур_2745-2" fill="#3C79E6"></path>
                <path d="M10.317,4.683 L10.628,4.994 L13.114,2.508 L12.803,2.197 C11.4009027,0.78548468 9.49253229,-0.00666909485 7.503,-0.00301268927 L5.742,1.758 L7.5,3.516 C8.55717007,3.51318211 9.57153328,3.93340286 10.317,4.683 L10.317,4.683 Z" id="Контур_2746-2" fill="#CF2D48"></path>
                <path d="M7.5,3.516 L7.5,-1.26892731e-05 C5.51046771,-0.00366909485 3.60209725,0.78848468 2.2,2.2 C1.9679622,2.43208524 1.75117648,2.6789337 1.551,2.939 L4.08,5.468 C4.79804657,4.26025817 6.09892683,3.51977463 7.504,3.519 L7.5,3.516 Z" id="Контур_2747-2" fill="#EB4132"></path>
            </g>
        </g>
    </g>
</svg>