<?xml version="1.0" encoding="UTF-8"?>
<svg width="25px" height="15px" viewBox="0 0 25 15" version="1.1" xmlns="http://www.w3.org/2000/svg" xmlns:xlink="http://www.w3.org/1999/xlink">
    <title>google-logo-icon</title>
    <g id="Page-1" stroke="none" stroke-width="1" fill-rule="evenodd">
        <g id="icons_sprite" transform="translate(-170.000000, -226.000000)" fill="#000000" fill-rule="nonzero">
            <g id="google-logo-icon" transform="translate(170.000000, 226.000000)">
                <path d="M7.292,6.429 L7.292,9 L11.427,9 C11.0606262,10.9662868 9.28870516,12.3529703 7.292,12.236 C4.73749812,12.1726758 2.71565984,10.0546873 2.771,7.5 C2.71621375,4.94552773 4.73773865,2.8278675 7.292,2.764 C8.37656017,2.74473279 9.4234779,3.16155447 10.198,3.921 L12.177,1.961 C10.8728099,0.685908484 9.11584042,-0.0193969799 7.292,-1.11022302e-15 C5.33014147,0.0265964093 3.45931709,0.83195846 2.09159009,2.23869906 C0.723863098,3.64543966 -0.0285771545,5.53816932 8.24861013e-16,7.5 C-0.0285771545,9.46183068 0.723863098,11.3545603 2.09159009,12.7613009 C3.45931709,14.1680415 5.33014147,14.9734036 7.292,15 C11.5,15 14.292,11.957 14.292,7.671 C14.2898157,7.25440004 14.2509995,6.83879919 14.176,6.429 L7.292,6.429 Z M7.292,6.429 L25,8.571 L21.875,8.571 L21.875,11.786 L19.792,11.786 L19.792,8.571 L16.667,8.571 L16.667,6.429 L19.792,6.429 L19.792,3.214 L21.875,3.214 L21.875,6.429 L25,6.429 L25,8.571" id="Контур_2734"></path>
            </g>
        </g>
    </g>
</svg>