<?xml version="1.0" encoding="UTF-8"?>
<svg width="20px" height="20px" viewBox="0 0 20 20" version="1.1" xmlns="http://www.w3.org/2000/svg" xmlns:xlink="http://www.w3.org/1999/xlink">
    <title>info-icon</title>
    <g id="Page-1" stroke="none" stroke-width="1" fill-rule="evenodd">
        <g id="icons_sprite" transform="translate(-244.000000, -112.000000)" fill="#000000" fill-rule="nonzero">
            <g id="info-icon" transform="translate(244.000000, 112.000000)">
                <path d="M10,-9.84173489e-06 C4.4771525,-9.84173489e-06 0,4.4771525 0,9.99999016 C0,15.5228475 4.4771525,19.9999902 10,19.9999902 C15.5228475,19.9999902 20,15.5228475 20,9.99999016 C20.0037224,7.34669569 18.9513495,4.80099317 17.0751781,2.92482186 C15.1990068,1.04865054 12.6533043,-0.00372244866 10,-9.84173489e-06 Z M11.134,13.934 L11.134,14.422 C10.9992184,14.5131114 10.8582049,14.5946453 10.712,14.666 C10.556,14.734 10.378,14.8 10.2,14.866 C10.02809,14.9321479 9.84877377,14.9771449 9.666,15 C9.49700871,15.0246445 9.32671515,15.0393365 9.156,15.044 C8.90157637,15.0738637 8.64565941,15.0019769 8.444,14.844 C8.30628907,14.737495 8.22457747,14.5740718 8.222,14.4 C8.22572771,14.2212674 8.240422,14.0429322 8.266,13.866 C8.288,13.688 8.334,13.512 8.378,13.288 L9.312,9.044 L8.444,8.844 L8.444,8.378 C8.578,8.334 8.756,8.266 9,8.2 C9.24119443,8.13282715 9.48633469,8.08072649 9.734,8.044 C10,8 10.244,7.956 10.488,7.934 C10.732,7.912 10.956,7.888 11.156,7.888 L11.4,8.044 L10.156,13.934 L11.134,13.934 Z M11.556,6.466 C11.3238578,6.65259942 11.031516,6.7479128 10.734,6.734 C10.4441797,6.74109174 10.1610618,6.64624726 9.934,6.466 C9.73161276,6.29541874 9.61697971,6.04263816 9.622,5.778 C9.61190501,5.49915297 9.72621435,5.23023291 9.934,5.044 C10.1577227,4.85787613 10.4433698,4.76289846 10.734,4.778 C11.0317492,4.75976391 11.3253826,4.85478396 11.556,5.044 C11.7632776,5.23044035 11.8768802,5.49942215 11.866,5.778 C11.8617326,6.04021841 11.749596,6.28908953 11.556,6.466 L11.556,6.466 Z" id="Контур_2717-3"></path>
            </g>
        </g>
    </g>
</svg>