<?xml version="1.0" encoding="UTF-8"?>
<svg width="15px" height="15px" viewBox="0 0 15 15" version="1.1" xmlns="http://www.w3.org/2000/svg" xmlns:xlink="http://www.w3.org/1999/xlink">
    <title>instagram-logo-hover-icon</title>
    <g id="Page-1" stroke="none" stroke-width="1" fill-rule="evenodd" opacity="0.88">
        <g id="icons_sprite" transform="translate(-304.000000, -226.000000)" fill="#000000" fill-rule="nonzero">
            <g id="instagram-logo-hover-icon" transform="translate(304.000000, 226.000000)">
                <path d="M4.432,0 C1.98518805,0.00220532983 0.00220532983,1.98518805 0,4.432 L0,10.568 C0.00220532983,13.014812 1.98518805,14.9977947 4.432,15 L10.568,15 C13.014812,14.9977947 14.9977947,13.014812 15,10.568 L15,4.432 C14.9977947,1.98518805 13.014812,0.00220532983 10.568,0 L4.432,0 Z M11.591,2.727 C11.9676582,2.727 12.273,3.0323418 12.273,3.409 C12.273,3.7856582 11.9676582,4.091 11.591,4.091 C11.2143418,4.091 10.909,3.7856582 10.909,3.409 C10.9100984,3.03279772 11.2147977,2.72809841 11.591,2.727 L11.591,2.727 Z M7.5,3.75 C9.57106781,3.75 11.25,5.42893219 11.25,7.5 C11.25,9.57106781 9.57106781,11.25 7.5,11.25 C5.42893219,11.25 3.75,9.57106781 3.75,7.5 C3.75110344,5.42938942 5.42938942,3.75110344 7.5,3.75 Z M7.5,4.432 C5.80559039,4.432 4.432,5.80559039 4.432,7.5 C4.432,9.19440961 5.80559039,10.568 7.5,10.568 C9.19440961,10.568 10.568,9.19440961 10.568,7.5 C10.5652472,5.80673196 9.19326804,4.43475284 7.5,4.432 L7.5,4.432 Z" id="icons8-instagram-2"></path>
            </g>
        </g>
    </g>
</svg>