<?xml version="1.0" encoding="UTF-8"?>
<svg width="15px" height="15px" viewBox="0 0 15 15" version="1.1" xmlns="http://www.w3.org/2000/svg" xmlns:xlink="http://www.w3.org/1999/xlink">
    <title>instagram-logo-icon-white</title>
    <g id="Page-1" stroke="none" stroke-width="1" fill-rule="evenodd">
        <g id="icons_sprite" transform="translate(-224.000000, -261.000000)" fill="#FFFFFF" fill-rule="nonzero">
            <g id="icons_sprite_19_08_svg">
                <path d="M228.432,261 C225.985188,261.002205 224.002205,262.985188 224,265.432 L224,271.568 C224.002205,274.014812 225.985188,275.997795 228.432,276 L234.568,276 C237.014812,275.997795 238.997795,274.014812 239,271.568 L239,265.432 C238.997795,262.985188 237.014812,261.002205 234.568,261 L228.432,261 Z M235.591,263.727 C235.967658,263.727 236.273,264.032342 236.273,264.409 C236.273,264.785658 235.967658,265.091 235.591,265.091 C235.214342,265.091 234.909,264.785658 234.909,264.409 C234.910098,264.032798 235.214798,263.728098 235.591,263.727 L235.591,263.727 Z M231.5,264.75 C233.571068,264.75 235.25,266.428932 235.25,268.5 C235.25,270.571068 233.571068,272.25 231.5,272.25 C229.428932,272.25 227.75,270.571068 227.75,268.5 C227.751103,266.429389 229.429389,264.751103 231.5,264.75 Z M231.5,265.432 C229.80559,265.432 228.432,266.80559 228.432,268.5 C228.432,270.19441 229.80559,271.568 231.5,271.568 C233.19441,271.568 234.568,270.19441 234.568,268.5 C234.565247,266.806732 233.193268,265.434753 231.5,265.432 L231.5,265.432 Z" id="instagram-logo-icon-white"></path>
            </g>
        </g>
    </g>
</svg>