<?xml version="1.0" encoding="UTF-8"?>
<svg width="20px" height="12px" viewBox="0 0 20 12" version="1.1" xmlns="http://www.w3.org/2000/svg" xmlns:xlink="http://www.w3.org/1999/xlink">
    <title>password-icon</title>
    <g id="Page-1" stroke="none" stroke-width="1" fill-rule="evenodd">
        <g id="icons_sprite" transform="translate(-72.000000, -260.000000)" fill="#000000" fill-rule="nonzero">
            <g id="icons_sprite_19_08_svg">
                <path d="M85.75,260 C83.3028999,259.978193 81.0675414,261.38457 80.028,263.6 L72,263.6 L72,269.6 L74.5,269.6 L74.5,270.8 L78.25,270.8 L78.25,269.6 L80.778,269.6 C81.9785606,271.121425 83.8119501,272.006407 85.75,272 C89.1321519,272.06752 91.9294739,269.382091 92,266 C91.9294739,262.617909 89.1321519,259.93248 85.75,260 L85.75,260 Z M87.625,267.8 C86.6416971,267.758993 85.8736235,266.935861 85.9006811,265.952076 C85.9277387,264.96829 86.7398949,264.18862 87.7239653,264.201723 C88.7080357,264.214825 89.4991453,265.015843 89.5,266 C89.4775881,267.014077 88.6391467,267.81898 87.625,267.8 Z" id="password-icon"></path>
            </g>
        </g>
    </g>
</svg>