<?xml version="1.0" encoding="UTF-8"?>
<svg width="11px" height="15px" viewBox="0 0 11 15" version="1.1" xmlns="http://www.w3.org/2000/svg" xmlns:xlink="http://www.w3.org/1999/xlink">
    <title>pinterest-logo-hover-icon</title>
    <g id="Page-1" stroke="none" stroke-width="1" fill-rule="evenodd" opacity="0.88">
        <g id="icons_sprite" transform="translate(-373.000000, -226.000000)" fill="#000000" fill-rule="nonzero">
            <g id="pinterest-logo-hover-icon" transform="translate(373.000000, 226.000000)">
                <path d="M10.935,4.024 C10.549,1.164 7.764,-0.293 4.793,0.048 C2.19516068,0.326534409 0.174441383,2.43377155 0.005,5.041 C-0.054,6.741 0.416,8.011 1.993,8.369 C2.676,7.132 1.773,6.861 1.632,5.969 C1.053,2.3 5.761,-0.2 8.227,2.36 C9.934,4.133 8.809,9.584 6.059,9.017 C3.425,8.476 7.349,4.137 5.247,3.285 C3.538,2.592 2.63,5.4 3.44,6.8 C2.965,9.2 1.94,11.463 2.356,14.475 C3.699,13.475 4.156,11.567 4.524,9.575 C5.05725611,10.0564112 5.71605583,10.3767959 6.424,10.499 C9.6,10.748 11.371,7.252 10.935,4.024 Z" id="Контур_195-2"></path>
            </g>
        </g>
    </g>
</svg>