<?xml version="1.0" encoding="UTF-8"?>
<svg width="20px" height="20px" viewBox="0 0 20 20" version="1.1" xmlns="http://www.w3.org/2000/svg" xmlns:xlink="http://www.w3.org/1999/xlink">
    <title>question-icon</title>
    <g id="Page-1" stroke="none" stroke-width="1" fill-rule="evenodd">
        <g id="icons_sprite" transform="translate(-38.000000, -74.000000)" fill="#000000" fill-rule="nonzero">
            <g id="question-icon" transform="translate(38.000000, 74.000000)">
                <path d="M10,0 C4.4771525,0 3.55271368e-15,4.4771525 3.55271368e-15,10 C3.55271368e-15,15.5228475 4.4771525,20 10,20 C15.5228475,20 20,15.5228475 20,10 C20,7.3478351 18.9464316,4.80429597 17.0710678,2.92893219 C15.195704,1.0535684 12.6521649,0 10,0 Z M10,18.0650016 C5.54582349,18.0650016 1.935,14.4541765 1.935,10 C1.935,5.54582349 5.54582349,1.935 10,1.935 C14.4541765,1.935 18.0650016,5.54582349 18.0650016,10 C18.0663276,12.1393777 17.217051,14.1915134 15.7042822,15.7042822 C14.1915134,17.217051 12.1393777,18.0663276 10,18.0650016 Z M14.324,7.775 C14.324,10.475 11.404,10.52 11.404,11.519 L11.404,11.775 C11.404,12.0423058 11.1873058,12.259 10.92,12.259 L9.08,12.259 C8.95163522,12.259 8.82852793,12.2080073 8.73776032,12.1172397 C8.64699271,12.0264721 8.596,11.9033648 8.596,11.775 L8.596,11.426 C8.596,9.985 9.689,9.408 10.515,8.946 C11.223,8.546 11.657,8.279 11.657,7.753 C11.657,7.053 10.77,6.596 10.057,6.596 C9.122,6.596 8.69,7.039 8.084,7.804 C7.92074398,8.01079191 7.6220706,8.049015 7.412,7.89 L6.29,7.039 C6.0841583,6.88266224 6.0370947,6.59236341 6.183,6.379 C7.03633145,4.96701547 8.58942565,4.13014473 10.238,4.194 C12.212,4.194 14.324,5.738 14.324,7.774 L14.324,7.775 Z M11.693,14.517 C11.6929999,15.20225 11.2801617,15.8200071 10.6470346,16.0821474 C10.0139074,16.3442877 9.28520936,16.1991729 8.80080751,15.7144849 C8.31640565,15.2297969 8.17172114,14.5010133 8.43423527,13.8680411 C8.69674939,13.2350688 9.3147501,12.8225955 10,12.8229997 C10.9338152,12.8262879 11.6901606,13.5821869 11.694,14.516 L11.693,14.517 Z" id="question-circle-2"></path>
            </g>
        </g>
    </g>
</svg>