<?xml version="1.0" encoding="UTF-8"?>
<svg width="20px" height="20px" viewBox="0 0 20 20" version="1.1" xmlns="http://www.w3.org/2000/svg" xmlns:xlink="http://www.w3.org/1999/xlink">
    <title>question-icon-selected</title>
    <g id="Page-1" stroke="none" stroke-width="1" fill-rule="evenodd">
        <g id="icons_sprite" transform="translate(0.000000, -74.000000)" fill="#000000" fill-rule="nonzero">
            <g id="question-icon-selected" transform="translate(0.000000, 74.000000)">
                <path d="M20,10 C20,15.5228475 15.5228475,20 10,20 C4.4771525,20 3.55271368e-15,15.5228475 3.55271368e-15,10 C3.55271368e-15,4.4771525 4.4771525,0 10,0 C12.6521649,0 15.195704,1.0535684 17.0710678,2.92893219 C18.9464316,4.80429597 20,7.3478351 20,10 L20,10 Z M10.268,3.306 C8.34765231,3.23308946 6.54238346,4.22060992 5.568,5.877 C5.42510998,6.09007843 5.47288084,6.3775801 5.677,6.533 L7.077,7.594 C7.2870706,7.753015 7.58574398,7.71479191 7.749,7.508 C8.469,6.594 8.963,6.065 10.06,6.065 C10.884,6.065 11.903,6.595 11.903,7.394 C11.903,7.994 11.403,8.308 10.591,8.764 C9.642,9.296 8.391,9.958 8.391,11.613 L8.391,11.774 C8.391,12.0413058 8.60769418,12.258 8.875,12.258 L11.133,12.258 C11.4003058,12.258 11.617,12.0413058 11.617,11.774 L11.617,11.72 C11.617,10.572 14.971,10.52 14.971,7.42 C14.967,5.081 12.541,3.306 10.268,3.306 Z M10,13.306 C8.97551179,13.306 8.145,14.1365118 8.145,15.161 C8.145,16.1854882 8.97551179,17.016 10,17.016 C11.0244882,17.016 11.855,16.1854882 11.855,15.161 C11.8538977,14.1369687 11.0240313,13.3071023 10,13.306 L10,13.306 Z" id="question-circle"></path>
            </g>
        </g>
    </g>
</svg>