<?xml version="1.0" encoding="UTF-8"?>
<svg width="20px" height="20px" viewBox="0 0 20 20" version="1.1" xmlns="http://www.w3.org/2000/svg" xmlns:xlink="http://www.w3.org/1999/xlink">
    <title>search-white-icon</title>
    <g id="Page-1" stroke="none" stroke-width="1" fill-rule="evenodd">
        <g id="icons_sprite" transform="translate(-152.000000, -73.000000)" fill="#FFFFFF" fill-rule="nonzero">
            <g id="search-white-icon" transform="translate(152.000000, 73.000000)">
                <path d="M20,17.739 L14.674,12.413 C16.9388359,8.98690412 16.2414105,4.4023717 13.0602133,1.80475765 C9.87901604,-0.792856412 5.2476093,-0.559594338 2.34350748,2.34450748 C-0.560594338,5.2486093 -0.793856412,9.88001604 1.80375765,13.0612133 C4.4013717,16.2424105 8.98590412,16.9398359 12.412,14.675 L17.737,20.001 L20,17.739 Z M2.26699921,8.001 C2.26755233,4.83419932 4.83519926,2.26744787 8.00199994,2.26800009 C11.1688006,2.26855248 13.7355521,4.83619937 13.7349999,8.00300006 C13.7344476,11.1698007 11.1668007,13.7365522 8,13.7360001 C6.4790859,13.7362655 5.02041747,13.1320655 3.94515635,12.0564292 C2.86989523,10.980793 2.26620396,9.52191392 2.26699921,8.001 L2.26699921,8.001 Z" id="Контур_2714-3"></path>
            </g>
        </g>
    </g>
</svg>