<?xml version="1.0" encoding="UTF-8"?>
<svg width="17px" height="20px" viewBox="0 0 17 20" version="1.1" xmlns="http://www.w3.org/2000/svg" xmlns:xlink="http://www.w3.org/1999/xlink">
    <title>security-icon-transp</title>
    <g id="Page-1" stroke="none" stroke-width="1" fill-rule="evenodd" fill-opacity="0.400000006">
        <g id="icons_sprite" transform="translate(-159.000000, -186.000000)" fill="#000000" fill-rule="nonzero">
            <g id="security-icon-transp" transform="translate(159.563000, 186.505000)">
                <path d="M13.069,7.539 L13.069,5.582 C13.069,2.74767466 10.7713253,0.45 7.937,0.45 C5.10267466,0.45 2.805,2.74767466 2.805,5.582 L2.805,7.539 L0.437,7.539 L0.437,18.495 L15.437,18.495 L15.437,7.539 L13.069,7.539 Z M3.595,5.582 C3.63100541,3.20939662 5.56462344,1.30489954 7.9375,1.30489954 C10.3103766,1.30489954 12.2439946,3.20939662 12.28,5.582 L12.28,7.539 L3.595,7.539 L3.595,5.582 Z M9.122,16.148 L6.753,16.148 L6.753,13.4 C6.07396353,12.8902519 5.79720555,12.0032394 6.06588627,11.1977928 C6.33456699,10.3923461 7.08842186,9.84912524 7.9375,9.84912524 C8.78657814,9.84912524 9.54043301,10.3923461 9.80911373,11.1977928 C10.0777945,12.0032394 9.80103647,12.8902519 9.122,13.4 L9.122,16.148 Z" id="Контур_2724-2"></path>
            </g>
        </g>
    </g>
</svg>