<?xml version="1.0" encoding="UTF-8"?>
<svg width="16px" height="21px" viewBox="0 0 16 21" version="1.1" xmlns="http://www.w3.org/2000/svg" xmlns:xlink="http://www.w3.org/1999/xlink">
    <title>security-icon-white</title>
    <g id="Page-1" stroke="none" stroke-width="1" fill-rule="evenodd">
        <g id="icons_sprite" transform="translate(-193.000000, -186.000000)" fill="#FFFFFF" fill-rule="nonzero">
            <g id="security-icon-white" transform="translate(193.000000, 186.000000)">
                <path d="M13.474,7.827 L13.474,5.652 C13.5157819,2.58378216 11.069023,0.0592348621 8.001,0.005 C4.93036857,0.058141248 2.48188782,2.58624012 2.527,5.657 L2.527,7.831 L0,7.831 L0,20.005 L16,20.005 L16,7.827 L13.474,7.827 Z M3.368,5.652 C3.32902147,3.05336289 5.40144023,0.913832124 8,0.87 C10.5984038,0.913830401 12.670536,3.05352729 12.631,5.652 L12.631,7.826 L3.368,7.826 L3.368,5.652 Z M9.268,17.392 L6.737,17.392 L6.737,14.339 C6.20530521,13.9223358 5.89450139,13.2845059 5.894,12.609 C5.87736723,11.8458388 6.27499578,11.1334217 6.93327999,10.7469588 C7.5915642,10.3604958 8.4074358,10.3604958 9.06572001,10.7469588 C9.72400422,11.1334217 10.1216328,11.8458388 10.105,12.609 C10.1049806,13.2841644 9.79494419,13.9219325 9.264,14.339 L9.268,17.392 Z" id="Контур_2724-3"></path>
            </g>
        </g>
    </g>
</svg>