<?xml version="1.0" encoding="UTF-8"?>
<svg width="19px" height="22px" viewBox="0 0 19 22" version="1.1" xmlns="http://www.w3.org/2000/svg" xmlns:xlink="http://www.w3.org/1999/xlink">
    <title>share-icon</title>
    <g id="Page-1" stroke="none" stroke-width="1" fill-rule="evenodd">
        <g id="icons_sprite" transform="translate(-256.000000, -35.000000)" fill="#000000" fill-rule="nonzero">
            <g id="share-icon" transform="translate(256.100000, 35.026000)">
                <g id="Сгруппировать_2506" transform="translate(0.900000, 0.974000)">
                    <path d="M16.107,5.923 L11.89,5.923 L11.89,7.745 L15.19,7.745 L15.19,18.155 L2.785,18.155 L2.785,7.768 L6.085,7.768 L6.085,5.946 L1.885,5.946 C1.64560277,5.94784406 1.41680548,6.0449934 1.24921849,6.21595841 C1.08163149,6.38692341 0.989066845,6.61761364 0.991932358,6.857 L0.991932358,19.089 C0.989066845,19.3283864 1.08163149,19.5590766 1.24921849,19.7300416 C1.41680548,19.9010066 1.64560277,19.9981559 1.885,20 L16.107,20 C16.3463972,19.9981559 16.5751945,19.9010066 16.7427815,19.7300416 C16.9103685,19.5590766 17.0029332,19.3283864 17.0000676,19.089 L17.0000676,6.857 C17.0051853,6.35489125 16.6088359,5.9403444 16.107,5.923 Z" id="Контур_2734-3"></path>
                    <polygon id="Контур_2735" points="7.985 3.166 7.985 11.776 9.77 11.776 9.77 3.166 12.07 5.148 13.208 3.758 8.877 0 4.548 3.759 5.708 5.149"></polygon>
                </g>
            </g>
        </g>
    </g>
</svg>