<?xml version="1.0" encoding="UTF-8"?>
<svg width="28px" height="20px" viewBox="0 0 28 20" version="1.1" xmlns="http://www.w3.org/2000/svg" xmlns:xlink="http://www.w3.org/1999/xlink">
    <title>shipping-icon</title>
    <g id="Page-1" stroke="none" stroke-width="1" fill-rule="evenodd">
        <g id="icons_sprite" transform="translate(-46.000000, -112.000000)" fill="#000000" fill-rule="nonzero">
            <g id="shipping-icon" transform="translate(46.000000, 112.000000)">
                <path d="M24.378,4.29 L19.6,4.29 L19.6,5.68434189e-14 L-2.84217094e-14,5.68434189e-14 L-2.84217094e-14,17.142 L1.658,17.142 C2.21569217,18.8471895 3.80642871,20.0005824 5.6005,20.0005824 C7.39457129,20.0005824 8.98530783,18.8471895 9.543,17.142 L18.457,17.142 C19.0146922,18.8471895 20.6054287,20.0005824 22.3995,20.0005824 C24.1935713,20.0005824 25.7843078,18.8471895 26.342,17.142 L28,17.142 L28,7.984 L24.378,4.29 Z M5.6,17.15 C5.01807446,17.1630072 4.48617475,16.8224792 4.2544107,16.2885392 C4.02264666,15.7545991 4.13713735,15.1334965 4.54404695,14.7172861 C4.95095656,14.3010757 5.56931357,14.1725799 6.10835421,14.3922198 C6.64739485,14.6118598 6.99985465,15.1359291 7,15.718 C7.00558362,16.4987267 6.38065357,17.1379409 5.6,17.15 L5.6,17.15 Z M22.4,17.15 C21.8180745,17.1630072 21.2861747,16.8224792 21.0544107,16.2885392 C20.8226467,15.7545991 20.9371373,15.1334965 21.344047,14.7172861 C21.7509566,14.3010757 22.3693136,14.1725799 22.9083542,14.3922198 C23.4473948,14.6118598 23.7998547,15.1359291 23.8,15.718 C23.8066787,16.4991681 23.1811196,17.1390258 22.4,17.15 Z M25.2,12.526 C23.6204061,11.0619382 21.1795939,11.0619382 19.6,12.526 L19.6,7.15 L23.222,7.15 L25.199,9.17 L25.2,12.526 Z" id="Контур_2715-3"></path>
            </g>
        </g>
    </g>
</svg>