<?xml version="1.0" encoding="UTF-8"?>
<svg width="28px" height="20px" viewBox="0 0 28 20" version="1.1" xmlns="http://www.w3.org/2000/svg" xmlns:xlink="http://www.w3.org/1999/xlink">
    <title>shipping-icon-white</title>
    <g id="Page-1" stroke="none" stroke-width="1" fill-rule="evenodd">
        <g id="icons_sprite" transform="translate(0.000000, -112.000000)" fill="#FFFFFF" fill-rule="nonzero">
            <g id="shipping-icon-white" transform="translate(0.000000, 112.000000)">
                <path d="M24.378,4.204 L19.6,4.204 L19.6,0.004 L-2.84217094e-14,0.004 L-2.84217094e-14,16.804 L1.658,16.804 C2.2424798,18.4813302 3.824253,19.6052028 5.6005,19.6052028 C7.376747,19.6052028 8.9585202,18.4813302 9.543,16.804 L18.457,16.804 C19.0414798,18.4813302 20.623253,19.6052028 22.3995,19.6052028 C24.175747,19.6052028 25.7575202,18.4813302 26.342,16.804 L28,16.804 L28,7.829 L24.378,4.204 Z M5.6,16.804 C4.82680135,16.804 4.2,16.1771986 4.2,15.404 C4.2,14.6308014 4.82680135,14.004 5.6,14.004 C6.37319865,14.004 7,14.6308014 7,15.404 C6.99781259,16.1767782 6.37277176,16.8031584 5.6,16.807 L5.6,16.804 Z M22.4,16.804 C21.6268014,16.804 21,16.1771986 21,15.404 C21,14.6308014 21.6268014,14.004 22.4,14.004 C23.1731986,14.004 23.8,14.6308014 23.8,15.404 C23.7983577,16.1770044 23.1729992,16.803703 22.4,16.807 L22.4,16.804 Z M25.2,12.273 C23.6091937,10.8378144 21.1908063,10.8378144 19.6,12.273 L19.6,7.001 L23.222,7.001 L25.199,8.981 L25.2,12.273 Z" id="Контур_2715-4"></path>
            </g>
        </g>
    </g>
</svg>