<?xml version="1.0" encoding="UTF-8"?>
<svg width="18px" height="15px" viewBox="0 0 18 15" version="1.1" xmlns="http://www.w3.org/2000/svg" xmlns:xlink="http://www.w3.org/1999/xlink">
    <title>twitter-logo-icon-white</title>
    <g id="Page-1" stroke="none" stroke-width="1" fill-rule="evenodd">
        <g id="icons_sprite" transform="translate(-286.000000, -261.000000)" fill="#FFFFFF" fill-rule="nonzero">
            <g id="icons_sprite_19_08_svg">
                <path d="M303.999,262.775 C303.327142,263.082147 302.612173,263.284497 301.879,263.375 C302.654043,262.893587 303.229287,262.14861 303.499,261.277 C302.775963,261.716777 301.98224,262.028041 301.153,262.197 C300.46319,261.433184 299.4822,260.997189 298.453,260.997 C296.389968,261.028257 294.741738,262.723912 294.769,264.787 C294.77003,265.077497 294.803572,265.366965 294.869,265.65 C291.881043,265.486923 289.108117,264.04471 287.259,261.692 C286.281197,263.419891 286.77441,265.607766 288.399,266.749 C287.811033,266.728887 287.236814,266.565854 286.726,266.274 L286.726,266.321 C286.710209,268.104099 287.94617,269.654266 289.688,270.036 C289.371136,270.12395 289.043843,270.168688 288.715,270.169 C288.479893,270.169531 288.245346,270.146076 288.015,270.099 C288.478813,271.627445 289.86928,272.687117 291.466,272.729 C290.167988,273.777485 288.549579,274.348958 286.881,274.348 C286.586244,274.347669 286.291753,274.330306 285.999,274.296 C287.67777,275.406228 289.646322,275.997489 291.659,275.996003 C298.452,275.996003 302.165,270.224 302.165,265.218 L302.153,264.728 C302.881175,264.193765 303.506598,263.532091 303.999,262.775 Z" id="twitter-logo-icon-white"></path>
            </g>
        </g>
    </g>
</svg>