<?xml version="1.0" encoding="UTF-8"?>
<svg width="18px" height="15px" viewBox="0 0 18 15" version="1.1" xmlns="http://www.w3.org/2000/svg" xmlns:xlink="http://www.w3.org/1999/xlink">
    <title>twitter-logo-icon</title>
    <g id="Page-1" stroke="none" stroke-width="1" fill-rule="evenodd">
        <g id="icons_sprite" transform="translate(-33.000000, -226.000000)" fill="#000000" fill-rule="nonzero">
            <g id="twitter-logo-icon" transform="translate(33.000000, 226.000000)">
                <path d="M17.999,1.717 C17.3249022,2.01352825 16.6103959,2.2079953 15.879,2.294 C16.6466469,1.8372663 17.222323,1.11731582 17.499,0.268 C16.7727163,0.694697992 15.9795504,0.995600651 15.153,1.158 C14.1157684,0.0647053103 12.5190882,-0.290255309 11.116342,0.260603836 C9.71359577,0.811462981 8.78511624,2.15805507 8.769,3.665 C8.77005958,3.946256 8.80361546,4.22644759 8.869,4.5 C5.90539187,4.35490181 3.14122882,2.96373959 1.259,0.67 C0.930289335,1.22846935 0.757607468,1.86497471 0.759,2.513 C0.760498832,3.73905353 1.37629202,4.88277674 2.399,5.559 C1.81283039,5.53994615 1.23951127,5.38230909 0.726,5.099 L0.726,5.145 C0.731236934,6.89579803 1.9705359,8.3999438 3.688,8.74 C3.37064031,8.82493526 3.04352879,8.8679674 2.715,8.868 C2.47999666,8.86844114 2.24552457,8.84566385 2.015,8.8 C2.50350567,10.2977581 3.88879856,11.3203605 5.464,11.346 C4.1542845,12.3661188 2.54111828,12.9190938 0.881,12.917 C0.586297532,12.9167975 0.291837262,12.9001047 -0.001,12.867 C1.68929338,13.9463104 3.65350856,14.5185702 5.659,14.516 C8.44134767,14.5462717 11.1196404,13.4595829 13.0943031,11.4992048 C15.0689658,9.53882673 16.1750707,6.86849411 16.165,4.086 L16.153,3.611 C16.8778664,3.09656504 17.5033376,2.45483022 17.999,1.717 L17.999,1.717 Z" id="Контур_2691"></path>
            </g>
        </g>
    </g>
</svg>