<?xml version="1.0" encoding="UTF-8"?>
<svg width="20px" height="20px" viewBox="0 0 20 20" version="1.1" xmlns="http://www.w3.org/2000/svg" xmlns:xlink="http://www.w3.org/1999/xlink">
    <title>universal-access-icon</title>
    <g id="Page-1" stroke="none" stroke-width="1" fill-rule="evenodd">
        <g id="icons_sprite" transform="translate(-76.000000, -74.000000)" fill="#000000" fill-rule="nonzero">
            <g id="universal-access-icon" transform="translate(76.000000, 74.000000)">
                <path d="M10,1.61299904 C14.6320122,1.61299904 18.387,5.3679878 18.387,10 C18.387,14.6320122 14.6320122,18.387 10,18.387 C5.3679878,18.387 1.61299904,14.6320122 1.61299904,10 C1.61193822,7.77530397 2.49522507,5.64142073 4.0683229,4.0683229 C5.64142073,2.49522507 7.77530397,1.61193822 10,1.61299904 M10,0 C4.4771525,0 3.55271368e-15,4.4771525 3.55271368e-15,10 C3.55271368e-15,15.5228475 4.4771525,20 10,20 C15.5228475,20 20,15.5228475 20,10 C20,7.3478351 18.9464316,4.80429597 17.0710678,2.92893219 C15.195704,1.0535684 12.6521649,0 10,0 Z M10,2.258 C5.72421147,2.258 2.258,5.72421147 2.258,10 C2.258,14.2757885 5.72421147,17.742 10,17.742 C14.2757885,17.742 17.742,14.2757885 17.742,10 C17.742,7.94669394 16.9263273,5.97748594 15.4744207,4.5255793 C14.0225141,3.07367266 12.0533061,2.258 10,2.258 L10,2.258 Z M10,4.032 C10.8019175,4.032 11.452,4.68208254 11.452,5.484 C11.452,6.28591746 10.8019175,6.936 10,6.936 C9.19808254,6.936 8.548,6.28591746 8.548,5.484 C8.548,4.68208254 9.19808254,4.032 10,4.032 L10,4.032 Z M14.748,7.985 C13.6573612,8.26171375 12.5514734,8.47441017 11.436,8.622 C11.47,12.696 11.936,13.584 12.446,14.897 C12.5788182,15.2670149 12.3929853,15.6755252 12.0267894,15.8185366 C11.6605936,15.961548 11.2470949,15.7870961 11.094,15.425 C10.6446155,14.4176149 10.3415499,13.3511607 10.194,12.258 L9.8,12.258 C9.65249045,13.3511691 9.34942324,14.4176289 8.9,15.425 C8.81075124,15.6736358 8.59349195,15.8541706 8.33271892,15.8963905 C8.07194589,15.9386105 7.80882045,15.8358514 7.64567775,15.6280786 C7.48253504,15.4203058 7.44512607,15.1403147 7.548,14.897 C8.061,13.585 8.523,12.697 8.558,8.622 C7.44252115,8.47444399 6.33663139,8.2617472 5.246,7.985 C4.89916518,7.90215728 4.6851573,7.55383482 4.76800001,7.207 C4.85084272,6.86016518 5.19916518,6.64615729 5.546,6.729 C9.446,7.65 10.557,7.648 14.446,6.729 C14.6703628,6.67541016 14.9062724,6.74558723 15.064864,6.91309618 C15.2234555,7.08060514 15.2806352,7.31999739 15.214864,7.54109619 C15.1490927,7.76219499 14.9703628,7.93141016 14.746,7.985 L14.748,7.985 Z" id="universal-access"></path>
            </g>
        </g>
    </g>
</svg>