<svg xmlns="http://www.w3.org/2000/svg" width="20.5" height="20.5" viewBox="0 0 20.5 20.5">
  <g id="user_icon_def" transform="translate(-41.546 0.25)">
    <g id="Group_2802" data-name="Group 2802" transform="translate(46.942)">
      <g id="Group_2801" data-name="Group 2801" transform="translate(0)">
        <path id="Path_2969" data-name="Path 2969" d="M135.612,0a5,5,0,1,0,5,5A5.006,5.006,0,0,0,135.612,0Zm0,8.75A3.75,3.75,0,1,1,139.362,5,3.754,3.754,0,0,1,135.612,8.75Z" transform="translate(-130.612)" fill="#fff" stroke="#fff" stroke-width="0.5"/>
      </g>
    </g>
    <g id="Group_2804" data-name="Group 2804" transform="translate(41.796 11.02)">
      <g id="Group_2803" data-name="Group 2803" transform="translate(0)">
        <path id="Path_2970" data-name="Path 2970" d="M51.8,282.122c-5.514,0-10,3.754-10,8.367v.612h20v-.612C61.8,285.876,57.31,282.122,51.8,282.122Zm-8.506,7.755c.372-3.653,4.045-6.531,8.506-6.531s8.133,2.878,8.506,6.531Z" transform="translate(-41.796 -282.122)" fill="#fff" stroke="#fff" stroke-width="0.5"/>
      </g>
    </g>
  </g>
</svg>
