
<svg xmlns="http://www.w3.org/2000/svg" width="87.26" height="30" viewBox="0 0 87.26 30">
  <g id="Logo_WOW_Black" transform="translate(-144.438 -156.967)">
    <path id="Контур_2965" data-name="Контур 2965" d="M162.748,158.229l4.264,14.663,4.47-14.663h5.331l-6.791,19.6h-5.612l-2.017-5.762-1.743-6.526-1.742,6.526-2.015,5.762h-5.61l-6.848-19.6h5.384l4.46,14.663,4.235-14.663Z" transform="translate(0 -0.903)" fill="#161615"/>
    <path id="Контур_2966" data-name="Контур 2966" d="M267.133,167.122c0,2.964,1.771,5.734,5.292,5.734s5.3-2.771,5.3-5.734a5.5,5.5,0,0,0-5.3-5.766c-3.477,0-5.292,2.841-5.292,5.766m15.458,0c0,5.612-3.839,10.17-10.166,10.17s-10.123-4.557-10.123-10.17c0-5.573,3.877-10.155,10.088-10.155a9.853,9.853,0,0,1,10.2,10.155" transform="translate(-84.38)" fill="#161615"/>
    <path id="Контур_2967" data-name="Контур 2967" d="M355.9,158.229l4.273,14.663,4.467-14.663h5.346l-6.809,19.6h-5.614l-2.009-5.762-1.744-6.526-1.741,6.526-2.014,5.762h-5.613l-6.836-19.6h5.374l4.469,14.663,4.226-14.663Z" transform="translate(-138.29 -0.903)" fill="#161615"/>
    <path id="Контур_2968" data-name="Контур 2968" d="M261.654,249.848h1.036v-3.13l2.335,3.13h1.043V245h-1.043v3.13L262.689,245h-1.036Zm-5.5-.859a1.563,1.563,0,1,1,1.509-1.566,1.559,1.559,0,0,1-1.509,1.566m0,.944a2.507,2.507,0,1,0-2.573-2.51,2.57,2.57,0,0,0,2.573,2.51m-8.786-1.029v-2.955h.832a1.481,1.481,0,1,1,0,2.955Zm-1.036.944h1.734a2.445,2.445,0,1,0,0-4.843h-1.734Zm-7.855,0h1.036v-3.13l2.335,3.13h1.043V245h-1.043v3.13L239.513,245h-1.036Zm-5.782-.859a1.563,1.563,0,1,1,1.509-1.566,1.559,1.559,0,0,1-1.509,1.566m0,.944a2.507,2.507,0,1,0-2.573-2.51,2.57,2.57,0,0,0,2.573,2.51m-7.439-1.022V245h-1.043v4.843h3.454v-.937Z" transform="translate(-57.112 -62.965)" fill="#161615"/>
  </g>
</svg>